<?xml version="1.0" encoding="UTF-8" standalone="no"?>
<!-- Created with Inkscape (http://www.inkscape.org/) -->

<svg
   width="800"
   height="800"
   viewBox="0 0 800 800"
   version="1.1"
   id="svg26728"
   inkscape:version="1.2.2 (732a01da63, 2022-12-09)"
   sodipodi:docname="ENTJ_Color.svg"
   inkscape:export-filename="INTP_Color.svg"
   inkscape:export-xdpi="300"
   inkscape:export-ydpi="300"
   xmlns:inkscape="http://www.inkscape.org/namespaces/inkscape"
   xmlns:sodipodi="http://sodipodi.sourceforge.net/DTD/sodipodi-0.dtd"
   xmlns="http://www.w3.org/2000/svg"
   xmlns:svg="http://www.w3.org/2000/svg">
  <sodipodi:namedview
     id="namedview26730"
     pagecolor="#ffffff"
     bordercolor="#000000"
     borderopacity="0.25"
     inkscape:showpageshadow="2"
     inkscape:pageopacity="0.0"
     inkscape:pagecheckerboard="0"
     inkscape:deskcolor="#d1d1d1"
     inkscape:document-units="mm"
     showgrid="false"
     inkscape:zoom="0.50646226"
     inkscape:cx="409.70477"
     inkscape:cy="541.99498"
     inkscape:window-width="1198"
     inkscape:window-height="1251"
     inkscape:window-x="3592"
     inkscape:window-y="0"
     inkscape:window-maximized="0"
     inkscape:current-layer="layer1" />
  <defs
     id="defs26725">
    <inkscape:path-effect
       effect="bspline"
       id="path-effect5189-0"
       is_visible="true"
       lpeversion="1"
       weight="33.333333"
       steps="2"
       helper_size="0"
       apply_no_weight="true"
       apply_with_weight="true"
       only_selected="false" />
    <inkscape:path-effect
       effect="bspline"
       id="path-effect5193-0"
       is_visible="true"
       lpeversion="1"
       weight="33.333333"
       steps="2"
       helper_size="0"
       apply_no_weight="true"
       apply_with_weight="true"
       only_selected="false" />
    <inkscape:path-effect
       effect="bspline"
       id="path-effect5197-3"
       is_visible="true"
       lpeversion="1"
       weight="33.333333"
       steps="2"
       helper_size="0"
       apply_no_weight="true"
       apply_with_weight="true"
       only_selected="false" />
    <inkscape:path-effect
       effect="bspline"
       id="path-effect5201-0"
       is_visible="true"
       lpeversion="1"
       weight="33.333333"
       steps="2"
       helper_size="0"
       apply_no_weight="true"
       apply_with_weight="true"
       only_selected="false" />
    <inkscape:path-effect
       effect="bspline"
       id="path-effect5205-8"
       is_visible="true"
       lpeversion="1"
       weight="33.333333"
       steps="2"
       helper_size="0"
       apply_no_weight="true"
       apply_with_weight="true"
       only_selected="false" />
    <inkscape:path-effect
       effect="bspline"
       id="path-effect5209-8"
       is_visible="true"
       lpeversion="1"
       weight="33.333333"
       steps="2"
       helper_size="0"
       apply_no_weight="true"
       apply_with_weight="true"
       only_selected="false" />
    <inkscape:path-effect
       effect="bspline"
       id="path-effect5213-6"
       is_visible="true"
       lpeversion="1"
       weight="33.333333"
       steps="2"
       helper_size="0"
       apply_no_weight="true"
       apply_with_weight="true"
       only_selected="false" />
    <inkscape:path-effect
       effect="bspline"
       id="path-effect5217-8"
       is_visible="true"
       lpeversion="1"
       weight="33.333333"
       steps="2"
       helper_size="0"
       apply_no_weight="true"
       apply_with_weight="true"
       only_selected="false" />
    <inkscape:path-effect
       effect="bspline"
       id="path-effect5221-0"
       is_visible="true"
       lpeversion="1"
       weight="33.333333"
       steps="2"
       helper_size="0"
       apply_no_weight="true"
       apply_with_weight="true"
       only_selected="false" />
    <inkscape:path-effect
       effect="bspline"
       id="path-effect5225-6"
       is_visible="true"
       lpeversion="1"
       weight="33.333333"
       steps="2"
       helper_size="0"
       apply_no_weight="true"
       apply_with_weight="true"
       only_selected="false" />
    <inkscape:path-effect
       effect="bspline"
       id="path-effect5229-3"
       is_visible="true"
       lpeversion="1"
       weight="33.333333"
       steps="2"
       helper_size="0"
       apply_no_weight="true"
       apply_with_weight="true"
       only_selected="false" />
    <inkscape:path-effect
       effect="bspline"
       id="path-effect5233-9"
       is_visible="true"
       lpeversion="1"
       weight="33.333333"
       steps="2"
       helper_size="0"
       apply_no_weight="true"
       apply_with_weight="true"
       only_selected="false" />
    <inkscape:path-effect
       effect="bspline"
       id="path-effect5237-6"
       is_visible="true"
       lpeversion="1"
       weight="33.333333"
       steps="2"
       helper_size="0"
       apply_no_weight="true"
       apply_with_weight="true"
       only_selected="false" />
    <inkscape:path-effect
       effect="bspline"
       id="path-effect5241-5"
       is_visible="true"
       lpeversion="1"
       weight="33.333333"
       steps="2"
       helper_size="0"
       apply_no_weight="true"
       apply_with_weight="true"
       only_selected="false" />
    <inkscape:path-effect
       effect="bspline"
       id="path-effect5245-8"
       is_visible="true"
       lpeversion="1"
       weight="33.333333"
       steps="2"
       helper_size="0"
       apply_no_weight="true"
       apply_with_weight="true"
       only_selected="false" />
    <inkscape:path-effect
       effect="bspline"
       id="path-effect5249-1"
       is_visible="true"
       lpeversion="1"
       weight="33.333333"
       steps="2"
       helper_size="0"
       apply_no_weight="true"
       apply_with_weight="true"
       only_selected="false" />
    <inkscape:path-effect
       effect="bspline"
       id="path-effect5253-9"
       is_visible="true"
       lpeversion="1"
       weight="33.333333"
       steps="2"
       helper_size="0"
       apply_no_weight="true"
       apply_with_weight="true"
       only_selected="false" />
    <inkscape:path-effect
       effect="bspline"
       id="path-effect5257-7"
       is_visible="true"
       lpeversion="1"
       weight="33.333333"
       steps="2"
       helper_size="0"
       apply_no_weight="true"
       apply_with_weight="true"
       only_selected="false" />
    <inkscape:path-effect
       effect="bspline"
       id="path-effect5261-1"
       is_visible="true"
       lpeversion="1"
       weight="33.333333"
       steps="2"
       helper_size="0"
       apply_no_weight="true"
       apply_with_weight="true"
       only_selected="false" />
    <inkscape:path-effect
       effect="bspline"
       id="path-effect5265-3"
       is_visible="true"
       lpeversion="1"
       weight="33.333333"
       steps="2"
       helper_size="0"
       apply_no_weight="true"
       apply_with_weight="true"
       only_selected="false" />
    <inkscape:path-effect
       effect="bspline"
       id="path-effect5269-9"
       is_visible="true"
       lpeversion="1"
       weight="33.333333"
       steps="2"
       helper_size="0"
       apply_no_weight="true"
       apply_with_weight="true"
       only_selected="false" />
    <inkscape:path-effect
       effect="bspline"
       id="path-effect5273-6"
       is_visible="true"
       lpeversion="1"
       weight="33.333333"
       steps="2"
       helper_size="0"
       apply_no_weight="true"
       apply_with_weight="true"
       only_selected="false" />
    <inkscape:path-effect
       effect="bspline"
       id="path-effect5277-8"
       is_visible="true"
       lpeversion="1"
       weight="33.333333"
       steps="2"
       helper_size="0"
       apply_no_weight="true"
       apply_with_weight="true"
       only_selected="false" />
    <inkscape:path-effect
       effect="bspline"
       id="path-effect5281-9"
       is_visible="true"
       lpeversion="1"
       weight="33.333333"
       steps="2"
       helper_size="0"
       apply_no_weight="true"
       apply_with_weight="true"
       only_selected="false" />
    <inkscape:path-effect
       effect="bspline"
       id="path-effect5285-7"
       is_visible="true"
       lpeversion="1"
       weight="33.333333"
       steps="2"
       helper_size="0"
       apply_no_weight="true"
       apply_with_weight="true"
       only_selected="false" />
    <inkscape:path-effect
       effect="bspline"
       id="path-effect1885-2"
       is_visible="true"
       lpeversion="1"
       weight="33.333333"
       steps="2"
       helper_size="0"
       apply_no_weight="true"
       apply_with_weight="true"
       only_selected="false" />
    <inkscape:path-effect
       effect="bspline"
       id="path-effect1889-7"
       is_visible="true"
       lpeversion="1"
       weight="33.333333"
       steps="2"
       helper_size="0"
       apply_no_weight="true"
       apply_with_weight="true"
       only_selected="false" />
    <inkscape:path-effect
       effect="bspline"
       id="path-effect1893-4"
       is_visible="true"
       lpeversion="1"
       weight="33.333333"
       steps="2"
       helper_size="0"
       apply_no_weight="true"
       apply_with_weight="true"
       only_selected="false" />
    <inkscape:path-effect
       effect="bspline"
       id="path-effect1897-4"
       is_visible="true"
       lpeversion="1"
       weight="33.333333"
       steps="2"
       helper_size="0"
       apply_no_weight="true"
       apply_with_weight="true"
       only_selected="false" />
    <inkscape:path-effect
       effect="bspline"
       id="path-effect1901-5"
       is_visible="true"
       lpeversion="1"
       weight="33.333333"
       steps="2"
       helper_size="0"
       apply_no_weight="true"
       apply_with_weight="true"
       only_selected="false" />
  </defs>
  <g
     inkscape:label="Layer 1"
     inkscape:groupmode="layer"
     id="layer1">
    <path
       style="fill:#8e6535;fill-opacity:1;stroke:#000000;stroke-width:2.29569px;stroke-linecap:butt;stroke-linejoin:miter;stroke-opacity:1"
       d="m 466.33968,323.78589 c 1.05344,0.58017 3.15754,1.73896 4.02503,3.07322 0.8675,1.33425 0.50157,2.84369 -0.68995,4.21428 -1.19152,1.37059 -3.21383,2.60692 -4.87992,3.90698 -1.66608,1.30005 -2.97732,2.66466 -4.63364,4.27922 -1.65632,1.61455 -3.6648,3.48564 -5.09629,4.93208 -1.43148,1.44643 -2.29666,2.48004 -2.74627,5.10367 -0.44962,2.62363 -0.48782,6.86995 -0.62181,9.44818 -0.13398,2.57824 -0.36174,3.49706 -1.74346,4.32679 -1.38173,0.82973 -3.92229,1.56979 -14.16037,6.8166 -10.23808,5.24681 -28.1624,14.99413 -40.01148,20.78891 -11.84907,5.79479 -17.60764,7.63058 -35.04013,15.88943 -17.43249,8.25885 -46.57522,22.96022 -75.91847,37.48352 -29.34325,14.52329 -58.9067,28.87844 -79.0215,38.65208 -20.1148,9.77364 -30.77996,14.9653 -39.79942,19.46184 -9.01945,4.49654 -16.37462,8.28841 -22.0772,11.48281 -5.70258,3.19441 -9.74288,5.78639 -12.70835,7.61606 -2.96547,1.82968 -4.85612,2.897 -6.82616,2.20846 -1.97005,-0.68853 -4.02076,-3.13569 -6.58768,-6.19851 -2.56692,-3.06283 -5.64363,-6.73364 -7.53951,-9.55675 -1.89587,-2.82312 -2.60306,-4.78505 -2.4475,-6.71865 0.15556,-1.93359 1.17709,-3.83187 3.17157,-5.28484 1.99447,-1.45296 4.95998,-2.45927 15.34212,-6.92846 10.38214,-4.46918 28.20028,-12.40971 48.68111,-21.59256 20.48083,-9.18285 43.63306,-19.61189 62.85588,-28.47832 19.22282,-8.86643 34.51535,-16.16981 59.47226,-28.81608 24.95692,-12.64628 59.61849,-30.65633 84.79756,-43.44832 25.17907,-12.79198 40.93228,-20.39402 52.12306,-26.11755 11.19079,-5.72354 17.82413,-9.5696 22.23823,-12.11213 4.41409,-2.54253 6.60193,-3.77749 7.69555,-4.39481 1.09363,-0.61731 1.0933,-0.61731 2.14674,-0.0371 z"
       id="path5187-6"
       inkscape:path-effect="#path-effect5189-0"
       inkscape:original-d="m 465.28624,323.20573 c 2.10647,1.16107 4.21055,2.3199 6.31233,3.47641 -0.36394,1.51181 -0.72977,3.02127 -1.09782,4.52846 -2.01041,1.24499 -4.03819,2.47238 -6.06069,3.70515 -1.30894,1.36694 -2.62017,2.73156 -3.93378,4.09389 -2.01033,1.85492 -4.0077,3.73793 -6.01488,5.60345 -0.85934,1.02387 -1.7207,2.06067 -2.58443,3.08759 -0.0381,4.21829 -0.0761,8.46461 -0.11419,12.69346 -0.21048,0.93244 -0.45446,1.84724 -0.68597,2.7674 -2.5364,0.73427 -5.07493,1.48131 -7.61592,2.21852 -17.93622,9.7532 -35.8588,19.50373 -53.79169,29.25215 -5.76879,1.83201 -11.52445,3.67693 -17.29008,5.51195 -29.11263,14.65534 -58.24156,29.38406 -87.36571,44.07262 -29.5624,14.35804 -59.12585,28.71319 -88.69218,43.06632 -10.66326,5.19416 -21.32844,10.38578 -31.99601,15.57523 -7.36973,3.8066 -14.72643,7.5955 -22.09303,11.38981 -4.03828,2.59441 -8.07856,5.18642 -12.1213,7.77619 -1.88838,1.06962 -3.77905,2.1369 -5.67192,3.20196 -2.04852,-2.44498 -4.09923,-4.89213 -6.15224,-7.34162 -3.08529,-3.67243 -6.15751,-7.347 -9.23973,-11.02391 -0.72216,-1.96465 -1.41564,-3.93153 -2.12694,-5.90075 1.0238,-1.89604 2.04537,-3.7943 3.0646,-5.69488 2.96791,-1.00408 5.93342,-2.01038 8.89666,-3.019 17.79597,-7.94178 35.61948,-15.87028 53.42576,-23.80883 23.15539,-10.42715 46.30762,-20.85618 69.45797,-31.28769 15.29537,-7.30134 30.5879,-14.60472 45.87842,-21.91055 34.61381,-18.00523 69.28497,-35.99683 103.92411,-53.99867 15.71458,-7.59107 31.47213,-15.18413 47.2048,-22.77964 6.64253,-3.86299 13.2825,-7.69763 19.92026,-11.54991 2.19039,-1.23278 4.3782,-2.46779 6.56393,-3.70511 z" />
    <path
       style="fill:#a17971;fill-opacity:1;stroke:#000000;stroke-width:2.29569px;stroke-linecap:butt;stroke-linejoin:miter;stroke-opacity:1"
       d="m 346.38577,380.42361 c -0.11846,0.0835 -0.35581,0.25065 -0.66471,0.72682 -0.3089,0.47618 -0.68896,1.26059 -1.04769,2.19926 -0.35873,0.93866 -0.7006,2.04558 -1.62495,2.51811 -0.92435,0.47253 -2.43652,0.31887 -3.54173,0.74767 -1.10521,0.4288 -1.80047,1.43938 -2.12493,2.97533 -0.32445,1.53594 -0.27841,3.59521 -0.80771,4.99142 -0.52929,1.39621 -1.63439,2.13205 -2.94459,2.32927 -1.31021,0.19723 -2.82759,-0.14507 -3.82638,-0.21442 -0.99878,-0.0693 -1.49062,0.14103 -1.07348,0.76491 0.41715,0.62387 1.73515,1.66157 2.48738,2.84241 0.75224,1.18084 0.94088,2.50438 0.83134,4.05503 -0.10955,1.55065 -0.51657,3.32973 -1.26812,4.56861 -0.75154,1.23888 -1.84848,1.93964 -3.04964,2.22968 -1.20115,0.29004 -2.50837,0.16873 -3.48035,-0.20781 -0.97199,-0.37654 -1.60766,-1.00957 -2.12337,-2.38139 -0.51571,-1.37183 -0.9092,-3.4821 -1.15742,-3.59558 -0.24821,-0.11348 -0.35046,1.77052 -0.28812,3.47559 0.0623,1.70507 0.28877,3.23069 -0.54078,4.21569 -0.82954,0.98501 -2.71618,1.43243 -4.25738,1.30809 -1.5412,-0.12434 -2.73799,-0.8225 -4.18965,-1.79518 -1.45166,-0.97268 -3.15812,-2.2202 -4.90624,-2.25039 -1.74812,-0.0302 -3.53579,1.15907 -5.20045,1.57884 -1.66466,0.41977 -3.20845,0.0691 -4.58103,-0.85433 -1.37257,-0.92343 -2.57324,-2.42142 -2.88136,-3.89151 -0.30813,-1.47008 0.27896,-2.91111 1.28011,-4.09549 1.00114,-1.18437 2.41523,-2.11062 4.00953,-2.4896 1.5943,-0.37897 3.36672,-0.21127 4.57367,-0.44379 1.20696,-0.23253 1.85145,-0.86559 2.08719,-1.86534 0.23573,-0.99975 0.0581,-2.4055 0.42569,-3.8036 0.36757,-1.39809 1.27849,-2.8045 2.08201,-3.48321 0.80352,-0.67871 1.49775,-0.62909 2.46854,-0.45762 0.97078,0.17147 2.2237,0.46563 2.93315,-0.50375 0.70945,-0.96937 0.88093,-3.20306 1.11333,-5.21973 0.2324,-2.01667 0.52581,-3.81569 1.21505,-5.11174 0.68923,-1.29604 1.80052,-2.10638 3.12435,-1.98524 1.32382,0.12115 2.87134,1.16174 4.00736,1.96477 1.13601,0.80303 1.8676,1.37374 2.59222,0.5997 0.72461,-0.77405 1.44888,-2.88975 1.97791,-4.42366 0.52904,-1.53391 0.86614,-2.49538 2.00714,-3.53231 1.14101,-1.03692 3.14454,-2.1857 5.62566,-2.40996 2.48113,-0.22426 5.46447,0.45777 7.17547,1.69001 1.711,1.23224 2.15606,3.03541 2.55793,4.65231 0.40187,1.61689 0.76339,3.059 0.94383,3.77881 0.18045,0.71982 0.17969,0.71987 0.0612,0.80332 z"
       id="path5191-2"
       inkscape:path-effect="#path-effect5193-0"
       inkscape:original-d="m 346.50424,380.34016 c -0.23518,0.16939 -0.47253,0.33659 -0.71167,0.50132 -0.37728,0.78664 -0.75741,1.57102 -1.1401,2.35307 -0.33728,1.09397 -0.67644,2.20173 -1.01896,3.29916 -1.50966,-0.15125 -3.02182,-0.30496 -4.53615,-0.46094 -0.69358,1.01308 -1.38859,2.02384 -2.08615,3.03231 0.0476,2.06163 0.0953,4.12086 0.13813,6.17785 -1.10287,0.73807 -2.20793,1.47397 -3.31526,2.2075 -1.51521,-0.34002 -3.03259,-0.68233 -4.55236,-1.02692 -0.47733,0.20443 -0.96806,0.41739 -1.45557,0.6226 1.32038,1.04002 2.63837,2.07773 3.95407,3.11315 0.19056,1.32575 0.38012,2.64916 0.5659,3.9703 -0.40395,1.78129 -0.8117,3.5602 -1.22099,5.33688 -1.09478,0.70311 -2.19172,1.40387 -3.29096,2.10239 -1.30496,-0.11898 -2.61218,-0.24022 -3.92178,-0.36394 -0.63452,-0.63117 -1.26987,-1.26453 -1.90819,-1.90025 -0.39157,-2.10824 -0.7841,-4.21869 -1.18061,-6.33144 -0.10007,1.88638 -0.20191,3.7704 -0.30677,5.65218 0.22863,1.52794 0.45539,3.05351 0.67928,4.57678 -1.88447,0.44978 -3.77113,0.89715 -5.66019,1.34232 -1.1944,-0.69578 -2.39121,-1.39392 -3.5901,-2.09433 -1.70431,-1.24526 -3.41075,-2.4928 -5.11942,-3.7426 -1.78551,1.19163 -3.57318,2.38088 -5.36313,3.56787 -1.5415,-0.34839 -3.08529,-0.6991 -4.63136,-1.05205 -1.1984,-1.4958 -2.39903,-2.99382 -3.60212,-4.49416 0.58879,-1.43863 1.17632,-2.87948 1.76111,-4.32265 1.4165,-0.92405 2.8306,-1.85029 4.24243,-2.77885 1.77482,0.17015 3.54725,0.33773 5.31741,0.50314 0.64593,-0.63051 1.29073,-1.26326 1.93259,-1.89831 -0.17721,-1.36621 -0.34872,-2.77273 -0.5259,-4.16256 0.91364,-1.40429 1.82435,-2.81083 2.73305,-4.2197 0.69547,0.0524 1.38973,0.10159 2.08121,0.14873 1.24882,0.29964 2.50278,0.58937 3.75075,0.88061 0.17342,-2.2315 0.34488,-4.46519 0.51445,-6.70123 0.29631,-1.79695 0.58879,-3.59612 0.88031,-5.39761 1.08495,-0.79065 2.19793,-1.59867 3.29336,-2.40147 1.54997,1.04295 3.09747,2.08358 4.64278,3.12192 0.73358,0.55885 1.45842,1.13821 2.18419,1.70389 0.72597,-2.1133 1.4507,-4.22885 2.17266,-6.34674 0.32298,-0.9545 0.67359,-1.91124 1.00635,-2.87031 1.9425,-1.12222 3.95122,-2.26195 5.92344,-3.39637 2.99077,0.67318 5.97143,1.36694 8.9538,2.04695 0.44113,1.78249 0.887,3.58546 1.32659,5.37475 0.36391,1.44455 0.72501,2.88676 1.08464,4.32671 z" />
    <path
       style="fill:#805e55;fill-opacity:1;stroke:#000000;stroke-width:2.29569px;stroke-linecap:butt;stroke-linejoin:miter;stroke-opacity:1"
       d="m 350.47902,389.01194 c -0.92124,-0.0723 -2.76618,-0.21717 -4.25406,0.34698 -1.48787,0.56414 -2.61616,1.83728 -2.52001,3.63779 0.0961,1.80052 1.41499,4.12569 3.33465,6.43922 1.91965,2.31353 4.43924,4.61589 5.98614,6.57365 1.5469,1.95776 2.1224,3.56999 1.21795,5.00575 -0.90444,1.43576 -3.31525,2.7121 -5.36665,4.74822 -2.05139,2.03613 -3.7552,4.83779 -6.15397,6.85943 -2.39876,2.02165 -5.49385,3.2643 -8.46284,4.06489 -2.96898,0.8006 -5.81256,1.1589 -8.80028,2.39613 -2.98771,1.23724 -6.1162,3.35215 -6.86937,6.6398 -0.75316,3.28765 0.87183,7.75076 3.17649,11.25522 2.30466,3.50446 5.34321,6.10072 8.73206,8.04994 3.38886,1.94921 7.15475,3.2757 10.393,3.84539 3.23824,0.56969 5.97047,0.38216 8.47504,0.514 2.50457,0.13184 4.79164,0.58164 6.92401,0.71661 2.13237,0.13497 4.1107,-0.0442 5.92218,-0.94178 1.81148,-0.8976 3.45812,-2.51381 4.61483,-4.99261 1.1567,-2.47879 1.82373,-5.82163 2.65845,-8.86377 0.83473,-3.04214 1.83718,-5.7828 2.44163,-8.59938 0.60445,-2.81658 0.81054,-5.70966 1.06603,-9.22615 0.25549,-3.51648 0.56036,-7.65611 0.70653,-11.31541 0.14617,-3.6593 0.13347,-6.83831 -0.58834,-9.12735 -0.72181,-2.28904 -2.15504,-3.68799 -3.54838,-5.17074 -1.39334,-1.48275 -2.74643,-3.04932 -4.93417,-4.87555 -2.18774,-1.82624 -5.21043,-3.91131 -7.55455,-5.27249 -2.34412,-1.36119 -4.00987,-1.99777 -4.84416,-2.31659 -0.83429,-0.31883 -0.83097,-0.31888 -1.75221,-0.3912 z"
       id="path5195-3"
       inkscape:path-effect="#path-effect5197-3"
       inkscape:original-d="m 351.40026,389.08426 c -1.84266,-0.14242 -3.68758,-0.28741 -5.53472,-0.43452 -1.12601,1.27549 -2.25431,2.54861 -3.38491,3.81946 1.32124,2.32759 2.64009,4.65276 3.95664,6.97571 2.52184,2.3047 5.04148,4.60701 7.55876,6.90707 0.5783,1.61476 1.15346,3.22711 1.72669,4.83725 -2.37626,1.27549 -4.79281,2.54097 -7.19279,3.80802 -1.70157,2.80408 -3.40541,5.60572 -5.11154,8.40514 -3.09298,1.24499 -6.18808,2.48761 -9.28545,3.72801 -2.84137,0.36059 -5.68495,0.71891 -8.5307,1.07491 -3.12349,2.12556 -6.2567,4.23349 -9.38846,6.34674 1.6262,4.45847 3.2499,8.92205 4.87144,13.37963 2.97942,2.5601 6.02487,5.14828 9.03394,7.71897 3.76836,1.32885 7.53425,2.65536 11.29805,3.9796 2.71248,-0.19611 5.44556,-0.37128 8.16479,-0.56038 2.28938,0.45214 4.57646,0.90191 6.86117,1.34939 1.98062,-0.1767 3.95893,-0.35602 5.93496,-0.53742 1.64896,-1.61397 3.29562,-3.23016 4.94002,-4.84869 0.66976,-3.34077 1.33637,-6.68369 2.00118,-10.02897 1.00482,-2.7385 2.00728,-5.47916 3.00743,-8.22217 0.20872,-2.89097 0.41444,-5.78408 0.61831,-8.67959 0.30678,-4.13748 0.61262,-8.27704 0.91462,-12.419 -0.008,-3.17688 -0.0202,-6.35589 -0.0381,-9.53728 -1.43089,-1.39669 -2.86415,-2.79561 -4.29971,-4.19684 -1.35096,-1.56441 -2.70398,-3.13104 -4.05953,-4.7 -3.02049,-2.08282 -6.04317,-4.1679 -9.06814,-6.25526 -1.66343,-0.63422 -3.32915,-1.27088 -4.99727,-1.90973 z" />
    <path
       style="fill:#381705;fill-opacity:1;stroke:#000000;stroke-width:2.29569px;stroke-linecap:butt;stroke-linejoin:miter;stroke-opacity:1"
       d="m 352.89379,407.22212 c -0.69661,-0.352 -1.06681,0.0411 -2.24347,0.91887 -1.17666,0.87776 -3.16438,2.2436 -6.25189,4.23719 -3.08751,1.99358 -7.27644,4.61602 -11.22899,6.64583 -3.95255,2.0298 -7.66898,3.46687 -10.51889,4.71257 -2.84991,1.2457 -4.83882,2.30316 -6.32033,3.76948 -1.48151,1.46633 -2.45729,3.3417 -2.50846,5.6039 -0.0512,2.26221 0.81485,4.89075 2.07287,6.77343 1.25801,1.88268 2.91373,3.0184 3.41779,2.10213 0.50405,-0.91627 -0.13633,-3.88199 0.0599,-6.18209 0.19617,-2.30009 1.2285,-3.9305 2.66469,-5.12461 1.43618,-1.19411 3.28812,-1.95556 5.83283,-2.74985 2.54471,-0.79428 5.79582,-1.62616 8.62177,-2.83451 2.82594,-1.20836 5.23114,-2.79409 7.2359,-4.35308 2.00476,-1.559 3.61711,-3.09876 5.15995,-4.56153 1.54285,-1.46278 3.01604,-2.84849 4.12502,-3.90235 1.10898,-1.05387 1.86799,-1.78976 1.73373,-2.69959 -0.13425,-0.90982 -1.15576,-2.00379 -1.85237,-2.35579 z"
       id="path5199-0"
       inkscape:path-effect="#path-effect5201-0"
       inkscape:original-d="m 352.56667,406.47777 c -0.36679,0.39489 -0.73741,0.7876 -1.10924,1.17786 -1.98374,1.36316 -3.9697,2.73156 -5.95792,4.09391 -4.18691,2.62491 -8.3758,5.2474 -12.56737,7.86767 -3.71417,1.43939 -7.43061,2.87643 -11.14936,4.31121 -1.97983,1.0582 -3.96959,2.11406 -5.95779,3.16762 -0.97351,1.87779 -1.94928,3.75316 -2.92743,5.62632 0.8908,2.64396 1.74042,5.2779 2.60722,7.91339 1.65287,1.12301 3.30324,2.26654 4.95144,3.39636 -0.63737,-2.96337 -1.27836,-5.92896 -1.92105,-8.89686 1.03151,-1.63303 2.06826,-3.26064 3.09899,-4.89442 1.83579,-0.76389 3.69206,-1.51481 5.53471,-2.27567 3.24609,-0.82866 6.49743,-1.65967 9.74287,-2.49295 2.4075,-1.58347 4.81272,-3.16916 7.21558,-4.75719 1.61095,-1.5263 3.2195,-3.07005 4.82579,-4.60852 1.47747,-1.38908 2.95258,-2.77276 4.42536,-4.16256 0.74503,-0.71815 1.50425,-1.45383 2.2528,-2.18419 -1.0193,-1.09172 -2.0408,-2.18569 -3.0646,-3.28198 z" />
    <path
       style="fill:#091620;fill-opacity:1;stroke:#000000;stroke-width:2.29569px;stroke-linecap:butt;stroke-linejoin:miter;stroke-opacity:1"
       d="m 571.04414,268.58858 c 0.14243,-0.008 0.42433,-0.0229 1.6098,0.27473 1.18547,0.2976 3.2514,0.90034 4.84014,2.42607 1.58874,1.52574 2.69034,3.96908 4.3809,7.67997 1.69057,3.71088 3.96996,8.68905 5.79151,11.53239 1.82156,2.84334 3.18091,3.5516 6.07159,3.28384 2.89068,-0.26776 7.31225,-1.51041 11.04561,-3.09745 3.73336,-1.58705 6.77092,-3.51314 8.43994,-4.99307 1.66901,-1.47992 1.96626,-2.51291 1.43919,-4.51344 -0.52706,-2.00054 -1.88037,-4.97019 -3.40886,-8.17029 -1.52848,-3.20009 -3.23229,-6.63069 -4.48595,-9.12483 -1.25366,-2.49414 -2.05869,-4.05464 -3.42864,-5.81787 -1.36994,-1.76323 -3.30623,-3.73004 -4.97885,-4.5946 -1.67262,-0.86456 -3.07725,-0.62473 -5.66102,0.38764 -2.58377,1.01238 -6.34052,2.79554 -9.02256,4.54906 -2.68203,1.75352 -4.29451,3.48449 -5.46092,4.71383 -1.16642,1.22934 -1.89058,1.96115 -3.03569,2.79002 -1.1451,0.82887 -2.71166,1.75511 -3.49533,2.21845 -0.78366,0.46335 -0.78329,0.46323 -0.64086,0.45555 z"
       id="path5203-6"
       inkscape:path-effect="#path-effect5205-8"
       inkscape:original-d="m 570.90171,268.59626 c 0.28487,-0.0151 0.56687,-0.0285 0.84601,-0.0456 2.09112,0.6122 4.15719,1.21446 6.2322,1.81825 1.104,2.44571 2.20554,4.88908 3.30488,7.33018 2.28176,4.98068 4.56113,9.95886 6.83831,14.93483 1.36686,0.70747 2.72382,1.42031 4.08239,2.12702 4.42403,-1.24038 8.84559,-2.48305 13.26486,-3.72798 3.0404,-1.9418 6.08594,-3.85531 9.12549,-5.78639 0.29916,-1.03075 0.5964,-2.06374 0.89175,-3.09905 -1.35857,-2.96337 -2.70411,-5.93657 -4.05963,-8.90831 -1.70154,-3.42844 -3.40538,-6.85903 -5.11151,-10.29201 -0.79836,-1.55677 -1.60628,-3.11579 -2.41284,-4.67713 -1.9342,-1.96466 -3.87043,-3.93153 -5.80919,-5.90075 -1.40811,0.2309 -2.81072,0.48254 -4.21958,0.72045 -3.75999,1.78245 -7.51457,3.57018 -11.27522,5.35183 -1.61009,1.71765 -3.21483,3.45582 -4.82568,5.1803 -0.72216,0.73416 -1.44624,1.46606 -2.17269,2.19563 -1.56444,0.92861 -3.131,1.85485 -4.69992,2.77885 z" />
    <path
       style="fill:#5d4c2d;fill-opacity:1;stroke:#000000;stroke-width:2.29569px;stroke-linecap:butt;stroke-linejoin:miter;stroke-opacity:1"
       d="m 597.92642,233.84824 c -0.14552,-0.0983 -0.43895,-0.29648 5.5e-4,1.65006 0.43949,1.94654 1.6135,6.03655 1.82851,8.40044 0.215,2.36389 -0.5282,3.00419 -1.00252,4.07692 -0.47432,1.07273 -0.681,2.58877 0.2616,4.08651 0.94259,1.49774 3.03215,2.98489 4.81464,5.1319 1.78248,2.147 3.27079,4.9744 5.04324,8.4642 1.77245,3.4898 3.83454,7.65228 5.3037,11.21451 1.46916,3.56223 2.34584,6.5239 3.53021,8.04735 1.18436,1.52344 2.67482,1.61113 3.81384,2.74272 1.13902,1.1316 1.92803,3.30419 2.90574,6.8001 0.97771,3.49591 2.15133,8.34366 3.32417,11.17201 1.17285,2.82836 2.35505,3.65857 4.89369,4.35731 2.53864,0.69875 6.43801,1.27052 11.28401,0.26564 4.846,-1.00488 10.63966,-3.5854 14.17879,-5.36901 3.53913,-1.7836 4.81555,-2.76376 4.71283,-4.19783 -0.10273,-1.43408 -1.59565,-3.32796 -2.78678,-4.47546 -1.19113,-1.1475 -2.10524,-1.56021 -3.1087,-3.53975 -1.00347,-1.97954 -2.10507,-5.53212 -2.46949,-8.27414 -0.36441,-2.74202 0.0163,-4.70717 1.1147,-6.18545 1.09839,-1.47827 2.91654,-2.48456 3.76428,-3.79413 0.84775,-1.30958 0.72605,-2.91874 0.26885,-5.646 -0.4572,-2.72727 -1.25002,-6.56961 -2.96455,-10.99817 -1.71453,-4.42855 -4.34527,-9.43125 -6.90304,-12.0925 -2.55776,-2.66124 -5.06086,-2.97508 -7.27321,-3.00974 -2.21235,-0.0347 -4.14629,0.20946 -6.14552,-0.91939 -1.99924,-1.12885 -4.06521,-3.63319 -5.53968,-6.59151 -1.47448,-2.95832 -2.36153,-6.39196 -3.02078,-8.85205 -0.65925,-2.46008 -1.09406,-3.9591 -2.76578,-3.58699 -1.67172,0.37212 -4.58006,2.61726 -7.02078,4.05096 -2.44073,1.4337 -4.40793,2.05394 -5.55779,1.19911 -1.14985,-0.85482 -1.47749,-3.18656 -2.62749,-4.56742 -1.15,-1.38087 -3.12451,-1.8078 -4.76391,-1.40708 -1.63941,0.40072 -2.92967,1.61892 -4.03153,3.74865 -1.10185,2.12973 -2.00904,5.16389 -2.46242,6.68025 -0.45338,1.51637 -0.45386,1.51627 -0.59938,1.41798 z"
       id="path5207-3"
       inkscape:path-effect="#path-effect5209-8"
       inkscape:original-d="m 598.07194,233.94653 c -0.29152,-0.19586 -0.58496,-0.39404 -0.88031,-0.59459 1.17622,4.0925 2.35025,8.18251 3.52211,12.27035 -0.74122,0.64271 -1.48436,1.28308 -2.22994,1.92117 -0.21048,1.5042 -0.40967,3.02127 -0.61735,4.52849 2.08729,1.49275 4.17995,2.97555 6.26648,4.45988 1.48138,2.80786 2.96791,5.63619 4.44843,8.45087 2.06443,4.16492 4.12659,8.32737 6.18637,12.48761 0.87936,2.96417 1.75574,5.92593 2.63016,8.88544 1.49272,0.0895 2.98315,0.17771 4.47119,0.26304 0.79171,2.17509 1.58037,4.3478 2.36722,6.51825 1.17241,4.82059 2.34264,9.66916 3.51046,14.50029 1.17643,0.82564 2.35807,1.65665 3.53364,2.48153 3.90176,0.574 7.80112,1.14585 11.69829,1.71533 5.79634,-2.5784 11.58999,-5.15895 17.38166,-7.74186 1.28691,-0.98503 2.56376,-1.96463 3.8422,-2.95041 -1.47662,-1.89221 -2.97847,-3.77906 -4.47119,-5.67205 -0.88985,-0.40175 -1.80444,-0.81341 -2.71009,-1.22358 -1.09934,-3.55042 -2.20097,-7.10299 -3.30488,-10.65795 0.36488,-1.93034 0.75645,-3.89339 1.13211,-5.84357 1.82055,-1.00404 3.6387,-2.01034 5.45468,-3.01898 -0.11242,-1.61395 -0.24199,-3.22252 -0.36583,-4.83723 -0.77172,-3.84393 -1.58332,-7.6824 -2.37846,-11.52704 -2.63169,-5.0142 -5.26557,-10.01525 -7.90183,-15.02634 -2.47926,-0.31791 -4.98348,-0.62279 -7.47865,-0.93766 -1.9304,0.23468 -3.86289,0.49026 -5.79775,0.73187 -2.06367,-2.50212 -4.12963,-5.00647 -6.19799,-7.51316 -0.8822,-3.40938 -1.76632,-6.84377 -2.65294,-10.26912 -0.4287,-1.4958 -0.86695,-2.99382 -1.3036,-4.49418 -2.90617,2.24751 -5.81451,4.49265 -8.72517,6.73554 -1.97222,0.62365 -3.93909,1.24496 -5.91207,1.864 -0.33346,-2.33061 -0.65357,-4.6634 -0.98338,-6.99855 -1.97222,-0.42464 -3.94673,-0.85155 -5.92354,-1.28078 -1.29369,1.23735 -2.58967,2.44949 -3.88792,3.67079 -0.90509,3.03659 -1.81218,6.07077 -2.72163,9.1027 z" />
    <path
       style="fill:#ad9a79;fill-opacity:1;stroke:#000000;stroke-width:2.29569px;stroke-linecap:butt;stroke-linejoin:miter;stroke-opacity:1"
       d="m 663.94784,300.5504 c -0.56313,-0.70583 -1.69141,-2.12005 -3.13625,-4.22985 -1.44483,-2.1098 -3.20583,-4.91526 -4.2452,-7.62372 -1.03937,-2.70845 -1.35566,-5.31951 -0.89836,-7.27243 0.4573,-1.95292 1.68844,-3.24508 2.56316,-4.47183 0.87473,-1.22675 1.40048,-2.40492 2.23252,-2.07438 0.83204,0.33053 1.97175,2.16022 2.90905,4.35605 0.9373,2.19583 1.67287,4.75702 2.31498,7.49506 0.64212,2.73804 1.19868,5.69369 0.98663,8.14388 -0.21205,2.45019 -1.18785,4.41705 -1.67554,5.40005 -0.48769,0.983 -0.48787,0.983 -1.05099,0.27717 z"
       id="path5211-1"
       inkscape:path-effect="#path-effect5213-6"
       inkscape:original-d="m 664.51096,301.25623 c -1.12593,-1.41191 -2.25424,-2.82611 -3.38483,-4.24261 -1.75872,-2.80328 -3.5197,-5.60875 -5.2831,-8.41654 -0.31438,-2.6089 -0.63069,-5.21995 -0.9489,-7.83339 1.23359,-1.28993 2.46469,-2.58213 3.6936,-3.87665 0.52017,-1.16034 1.04665,-2.33818 1.56663,-3.5107 1.14202,1.83199 2.28176,3.66166 3.41912,5.48904 0.72597,2.56774 1.47366,5.12545 2.20704,7.68472 0.54307,2.91842 1.10774,5.87254 1.65811,8.80538 -0.97358,1.96925 -1.94935,3.93612 -2.92749,5.90075 z" />
    <path
       style="fill:#e2d6c2;fill-opacity:1;stroke:#000000;stroke-width:2.29569px;stroke-linecap:butt;stroke-linejoin:miter;stroke-opacity:1"
       d="m 649.91493,244.17013 c -0.10748,-0.0227 -0.32379,-0.0683 -1.25597,-0.2989 -0.93219,-0.23064 -2.57885,-0.64613 -4.51506,-1.00647 -1.93621,-0.36035 -4.16275,-0.66534 -6.19267,-1.73359 -2.02991,-1.06826 -3.86337,-2.90177 -5.41926,-5.77761 -1.55589,-2.87584 -2.83283,-6.79436 -3.86157,-9.31031 -1.02874,-2.51595 -1.81007,-3.62893 -3.17784,-3.48321 -1.36778,0.14572 -3.3183,1.55149 -5.50653,2.61687 -2.18823,1.06538 -4.58804,1.78193 -6.27798,1.39243 -1.68993,-0.3895 -2.65142,-1.88309 -3.9251,-2.93637 -1.27368,-1.05328 -2.85343,-1.65854 -4.5287,-1.41624 -1.67528,0.2423 -3.42322,1.32294 -4.68501,3.51113 -1.26179,2.1882 -1.92752,5.0481 -3.29994,5.86353 -1.37242,0.81543 -3.41319,-0.63385 -4.81494,-2.64707 -1.40174,-2.01323 -2.16893,-4.60105 -2.01448,-7.45146 0.15445,-2.8504 1.23557,-5.97922 3.22171,-8.74951 1.98615,-2.7703 4.88712,-5.19422 8.42935,-6.93694 3.54222,-1.74271 7.71912,-2.80504 12.14126,-3.09631 4.42215,-0.29127 9.08389,0.18903 12.41526,1.41937 3.33137,1.23034 5.33252,3.20867 7.7697,7.20952 2.43718,4.00085 5.31119,10.02342 7.66618,14.6534 2.35499,4.62999 4.19382,7.87284 5.43033,10.67454 1.23651,2.80169 1.87311,5.16512 2.19103,6.34543 0.31792,1.1803 0.31772,1.18043 0.21023,1.15777 z"
       id="path5215-4"
       inkscape:path-effect="#path-effect5217-8"
       inkscape:original-d="m 650.02242,244.19279 c -0.21527,-0.0439 -0.43158,-0.0895 -0.65166,-0.13738 -1.6444,-0.41318 -3.29106,-0.82867 -4.94002,-1.24648 -2.22384,-0.29878 -4.44985,-0.60765 -6.67827,-0.9148 -1.83111,-1.83126 -3.66461,-3.66473 -5.50031,-5.5005 -1.27463,-3.91638 -2.55165,-7.83488 -3.83087,-11.75577 -0.77931,-1.11079 -1.56054,-2.22384 -2.34416,-3.33919 -1.94554,1.41653 -3.901,2.81545 -5.85492,4.21973 -2.4259,0.71891 -4.82341,1.44316 -7.23855,2.16132 -0.96596,-1.49961 -1.92649,-2.99382 -2.89311,-4.49418 -1.5835,-0.60004 -3.1615,-1.20988 -4.74568,-1.81825 -1.77013,1.08489 -3.51218,2.17506 -5.27165,3.25912 -0.98502,3.23861 -1.4288,6.15018 -2.14667,9.22181 -2.03053,-1.44019 -4.07075,-2.89024 -6.10957,-4.3388 -0.76408,-2.57841 -1.53006,-5.16659 -2.29853,-7.75331 1.06952,-3.11585 2.15971,-6.24153 3.23619,-9.36572 2.89549,-2.41448 5.79614,-4.83879 8.69077,-7.26161 4.18776,-1.06503 8.36534,-2.1247 12.5446,-3.19051 4.66413,0.48257 9.32587,0.96289 13.98531,1.4409 2.00347,1.98068 4.00465,3.95898 6.00354,5.93503 2.87646,6.02517 5.75041,12.04777 8.62228,18.0682 1.8396,3.23861 3.67673,6.48243 5.51175,9.72023 0.63832,2.36571 1.27549,4.72899 1.90973,7.09003 z" />
    <path
       style="fill:#a39591;fill-opacity:1;stroke:#000000;stroke-width:2.29569px;stroke-linecap:butt;stroke-linejoin:miter;stroke-opacity:1"
       d="m 592.90909,230.44506 c 1.4042,0.44418 3.212,1.92473 4.54338,4.52514 1.33139,2.60041 2.18779,6.31839 2.27937,8.93528 0.0916,2.6169 -0.57783,4.12691 -1.12743,5.30801 -0.5496,1.1811 -0.97493,2.0242 -1.88074,1.88576 -0.90581,-0.13844 -2.29325,-1.26291 -3.18822,-3.46404 -0.89496,-2.20113 -1.29523,-5.47925 -2.00637,-8.0065 -0.71113,-2.52725 -1.73857,-4.31102 -2.12764,-5.59479 -0.38907,-1.28377 -0.14281,-2.06067 0.48095,-2.74954 0.62375,-0.68886 1.62249,-1.28351 3.0267,-0.83932 z"
       id="path5219-5"
       inkscape:path-effect="#path-effect5221-0"
       inkscape:original-d="m 592.50295,229.40662 c 1.81016,1.48284 3.61792,2.96344 5.42352,4.44173 0.86219,3.72115 1.71546,7.43985 2.56976,11.15636 -0.6688,1.51945 -1.33944,3.02891 -2.01263,4.53993 -0.42396,0.85239 -0.85077,1.69474 -1.28073,2.53868 -1.38524,-1.12223 -2.77268,-2.2467 -4.1624,-3.37349 -0.39825,-3.27596 -0.79839,-6.5541 -1.20083,-9.83457 -1.03445,-1.76645 -2.04842,-3.55798 -3.07602,-5.34039 0.25437,-0.78294 0.49827,-1.56059 0.74311,-2.3443 1.00103,-0.59233 1.99975,-1.18702 2.99622,-1.78395 z" />
    <path
       style="fill:#6d6a7b;fill-opacity:1;stroke:#000000;stroke-width:2.29569px;stroke-linecap:butt;stroke-linejoin:miter;stroke-opacity:1"
       d="m 344.36653,461.93391 c 0.005,1.30301 0.0143,3.90676 -0.0188,6.53333 -0.0331,2.62656 -0.1086,5.27625 0.75438,7.51684 0.86299,2.2406 2.66478,4.07481 4.68216,5.01706 2.01738,0.94226 4.24664,0.99606 6.02158,0.25082 1.77495,-0.74525 3.09569,-2.2897 3.88545,-4.33458 0.78976,-2.04489 1.04859,-4.59204 1.48648,-6.87126 0.43789,-2.27921 1.0551,-4.28999 1.13131,-5.89578 0.0762,-1.6058 -0.39003,-2.80779 -1.77005,-3.32546 -1.38003,-0.51766 -3.6727,-0.34793 -6.00109,-0.34949 -2.32838,-0.002 -4.67098,-0.17329 -6.37206,-0.17623 -1.70107,-0.003 -2.74956,0.16417 -3.27471,0.24787 -0.52516,0.0837 -0.52941,0.0839 -0.52466,1.38688 z"
       id="path5223-9"
       inkscape:path-effect="#path-effect5225-6"
       inkscape:original-d="m 344.36178,460.6309 c 0.008,2.60603 0.0202,5.20977 0.0285,7.81121 -0.0668,2.65194 -0.14872,5.30145 -0.22661,7.94872 1.80005,1.83521 3.60325,3.66804 5.40141,5.49859 2.2368,0.0449 4.46578,0.11015 6.69513,0.16158 1.32303,-1.54221 2.64379,-3.08664 3.96224,-4.63338 0.26104,-2.54488 0.5202,-5.092 0.77648,-7.64141 0.61924,-2.00854 1.23672,-4.01923 1.8516,-6.03228 -0.46399,-1.19987 -0.92987,-2.402 -1.39888,-3.60643 -2.29146,0.18552 -4.58512,0.34193 -6.88118,0.50941 -2.36149,-0.16485 -4.70365,-0.34269 -7.05905,-0.5175 -1.04618,0.16939 -2.09465,0.33659 -3.14539,0.50132 z" />
    <path
       style="fill:#000515;fill-opacity:1;stroke:#000000;stroke-width:2.29569px;stroke-linecap:butt;stroke-linejoin:miter;stroke-opacity:1"
       d="m 344.2221,462.96974 c -0.14368,1.03582 -0.43075,3.10545 -0.49866,5.4965 -0.0679,2.39105 0.0829,5.1023 1.12437,7.42428 1.04145,2.32199 2.98208,4.26532 5.19098,5.19678 2.20891,0.93145 4.69116,0.85869 6.61562,-0.38889 1.92447,-1.24758 3.29367,-3.67066 4.2048,-7.04467 0.91113,-3.374 1.36392,-7.70008 1.85247,-10.4299 0.48856,-2.72982 1.01521,-3.86681 2.10819,-6.09463 1.09298,-2.22782 2.75324,-5.54846 4.15979,-8.88127 1.40655,-3.33282 2.56098,-6.68285 3.34464,-8.78253 0.78366,-2.09969 1.21087,-2.97877 4.18728,-2.37075 2.97641,0.60803 8.50348,2.68846 12.96522,6.06123 4.46175,3.37276 7.85774,8.03566 11.8441,13.93061 3.98635,5.89495 8.56119,13.01872 13.13785,20.14532 0,0 8.37066,3.04186 8.37066,3.04186 -1.72557,6.54661 -3.45154,13.09475 -4.99298,19.0249 -1.54145,5.93014 -2.90101,11.25251 -4.10064,15.89741 -1.19962,4.6449 -2.23962,8.6137 -4.22905,10.74486 -1.98944,2.13116 -4.92973,2.42492 -9.345,2.08236 -4.41527,-0.34256 -10.32488,-1.32527 -15.69949,-1.9654 -5.37461,-0.64013 -10.2342,-0.93964 -12.68266,-1.50454 -2.44847,-0.56491 -2.4888,-1.39767 -4.45454,-2.06125 -1.96575,-0.66357 -5.87778,-1.15799 -9.03708,-1.61915 -3.1593,-0.46115 -5.56805,-0.8891 -6.9522,-1.45158 -1.38415,-0.56249 -1.74091,-1.26523 -3.8173,-1.49983 -2.07639,-0.2346 -5.86885,-2.7e-4 -8.53841,0.03 -2.66957,0.0303 -4.23,-0.14579 -4.88769,-3.15025 -0.65769,-3.00446 -0.41793,-8.83987 0.34603,-15.69044 0.76397,-6.85057 2.05231,-14.71555 3.06429,-20.02837 1.01198,-5.31282 1.75336,-8.09433 2.85112,-10.5273 1.09775,-2.43297 2.55455,-4.52685 3.28312,-5.57405 0.72858,-1.0472 0.72885,-1.04717 0.58517,-0.0113 z"
       id="path5227-9"
       inkscape:path-effect="#path-effect5229-3"
       inkscape:original-d="m 344.36578,461.93392 c -0.28486,2.07199 -0.57162,4.14166 -0.86125,6.20903 0.15905,2.71389 0.30488,5.42542 0.45254,8.13467 1.93486,1.93222 3.8728,3.87824 5.80585,5.81396 2.48468,-0.0761 4.96709,-0.14343 7.44711,-0.21829 1.3716,-2.42091 2.74076,-4.84401 4.10773,-7.26948 0.45444,-4.32388 0.90794,-8.64988 1.35837,-12.97828 0.52781,-1.12979 1.05351,-2.26722 1.57684,-3.40427 1.6626,-3.31851 3.32288,-6.63914 4.98091,-9.96217 1.15593,-3.34273 2.30957,-6.69303 3.46083,-10.04301 0.40967,-0.8521 0.84316,-1.72813 1.2614,-2.59564 5.53051,2.08588 11.05846,4.16399 16.5844,6.24251 3.39843,4.66541 6.7944,9.32833 10.18826,13.98906 4.57913,7.12902 13.72998,21.37981 13.72998,21.37981 l 8.37066,3.04186 c 0,0 -3.44874,13.09549 -5.1767,19.63983 -1.34808,5.31768 -2.71457,10.63828 -4.07533,15.95399 -1.05427,3.96997 -2.07855,7.94289 -3.12119,11.9109 -2.93837,0.29878 -5.87892,0.58992 -8.82177,0.88135 -5.88979,-0.96806 -11.79787,-1.95995 -17.70023,-2.94336 -4.84666,-0.29696 -9.70627,-0.59612 -14.56285,-0.89755 -0.0381,-0.83058 -0.0761,-1.66346 -0.121,-2.49863 -3.89251,-0.48017 -7.80332,-0.98421 -11.70848,-1.47976 -2.41554,-0.4155 -4.82228,-0.85478 -7.23694,-1.28573 -0.35345,-0.69584 -0.70883,-1.39928 -1.06732,-2.10239 -3.79554,0.23418 -7.58783,0.47133 -11.38515,0.70349 -1.54208,-0.17292 -3.10262,-0.34811 -4.65745,-0.5256 0.24199,-5.83334 0.48206,-11.66873 0.71929,-17.50653 1.29074,-7.86301 2.57911,-15.72799 3.86508,-23.59543 0.73835,-2.75783 1.47937,-5.53943 2.21565,-8.31256 1.45917,-2.0917 2.91598,-4.18557 4.37049,-6.28181 z"
       sodipodi:nodetypes="sccccccccccccccccccccccccccccccs" />
    <path
       style="fill:#06254b;fill-opacity:1;stroke:#000000;stroke-width:2.29569px;stroke-linecap:butt;stroke-linejoin:miter;stroke-opacity:1"
       d="m 394.3636,446.38443 c 0.94425,1.43261 2.83095,4.29508 5.54891,8.33572 2.71796,4.04065 6.27369,9.26911 9.2911,13.90715 3.0174,4.63803 5.50506,8.69883 7.13507,11.49833 1.63001,2.79951 2.41274,4.35683 3.39832,3.19846 0.98558,-1.15837 2.17956,-5.02347 3.30894,-9.13388 1.12938,-4.11042 2.19406,-8.46609 2.86144,-11.67997 0.66738,-3.21388 0.9367,-5.28162 -0.61567,-6.90209 -1.55237,-1.62047 -4.92957,-2.79025 -8.39988,-3.63283 -3.47032,-0.84259 -7.03358,-1.35741 -10.14257,-2.14816 -3.109,-0.79074 -5.76374,-1.85806 -7.90925,-2.71656 -2.1455,-0.8585 -3.78162,-1.50811 -4.60101,-1.83345 -0.81939,-0.32533 -0.81966,-0.32533 0.1246,1.10728 z"
       id="path5231-6"
       inkscape:path-effect="#path-effect5233-9"
       inkscape:original-d="m 393.41934,444.95182 c 1.88913,2.86481 3.7758,5.7273 5.66017,8.58752 3.55211,5.22068 7.10717,10.4496 10.65739,15.67099 2.48211,4.05623 4.97241,8.11541 7.45518,12.16965 0.78409,1.5414 1.56028,3.10201 2.33691,4.64956 1.19634,-3.86297 2.39028,-7.72808 3.58203,-11.59558 1.06695,-4.35352 2.13171,-8.70917 3.19407,-13.06723 0.26868,-2.0705 0.54115,-4.13783 0.80888,-6.21017 -3.37511,-1.1675 -6.7523,-2.33729 -10.13177,-3.50938 -3.56096,-0.51257 -7.12423,-1.02735 -10.68968,-1.54445 -2.65274,-1.06511 -5.30747,-2.13246 -7.96469,-3.20213 -1.63381,-0.64728 -3.26992,-1.29689 -4.90822,-1.94878 z" />
    <path
       style="fill:#966963;fill-opacity:1;stroke:#000000;stroke-width:2.29569px;stroke-linecap:butt;stroke-linejoin:miter;stroke-opacity:1"
       d="m 471.10116,327.51786 c -0.95081,-0.74523 -2.85486,-2.23759 -4.25819,-3.85732 -1.40333,-1.61973 -2.30462,-3.36724 -4.29307,-4.46558 -1.98846,-1.09834 -5.05631,-1.54368 -9.70677,-1.90577 -4.65046,-0.3621 -10.89415,-0.6407 -16.2853,-1.11726 -5.39114,-0.47655 -9.93195,-1.15082 -13.23735,-3.44823 -3.3054,-2.29741 -5.37129,-6.21971 -6.64475,-8.9948 -1.27347,-2.77508 -1.75376,-4.40263 -2.92302,-5.49379 -1.16927,-1.09116 -3.02933,-1.64385 -4.05973,-3.64815 -1.0304,-2.0043 -1.22878,-5.46914 -1.11159,-8.24855 0.11719,-2.7794 0.55322,-4.89078 0.0839,-6.44211 -0.46928,-1.55134 -1.84529,-2.55001 -2.45848,-4.15089 -0.61319,-1.60089 -0.46075,-3.80411 -0.28959,-5.68305 0.17116,-1.87894 0.36227,-3.44263 1.095,-4.5199 0.73273,-1.07728 2.01299,-1.67346 2.81659,-2.70355 0.8036,-1.03009 1.13516,-2.49742 1.34467,-4.43186 0.20952,-1.93443 0.29771,-4.36617 1.64666,-5.94142 1.34896,-1.57526 3.96252,-2.30783 6.40195,-3.07212 2.43943,-0.7643 4.70745,-1.56098 5.55773,-3.54144 0.85027,-1.98045 0.28091,-5.16366 -0.25833,-7.69281 -0.53924,-2.52916 -1.04948,-4.41023 1.57257,-5.44378 2.62206,-1.03354 8.36447,-1.21254 12.3865,-3.04005 4.02203,-1.82751 6.32048,-5.30386 6.81522,-11.21871 0.49473,-5.91486 -0.81036,-14.24019 -1.46429,-18.41165 -0.65392,-4.17145 -0.65392,-4.17145 3.99897,-4.31537 4.65289,-0.14393 13.95645,-0.43171 19.56875,2.2876 5.6123,2.71931 7.53424,8.4426 9.44848,13.08265 1.91425,4.64005 3.8201,8.19647 6.04683,10.61825 2.22673,2.42178 4.7729,3.71014 7.85257,4.37271 3.07968,0.66257 6.69332,0.70063 9.86081,0.99775 3.16749,0.29712 5.89718,0.85451 7.3844,3.68962 1.48721,2.83511 1.73872,7.94666 1.86309,12.57042 0.12436,4.62377 0.1217,8.75958 0.90589,11.42268 0.78419,2.66309 2.34899,3.85098 5.58282,4.20195 3.23384,0.35098 8.11327,-0.13203 12.47918,-1.48084 4.36591,-1.3488 8.20023,-3.55729 10.83977,-5.63307 2.63954,-2.07578 4.05666,-3.98424 6.03488,-3.4472 1.97822,0.53703 4.50794,3.53995 6.48911,6.22942 1.98117,2.68947 3.43493,5.09837 3.15023,7.1077 -0.2847,2.00933 -2.29724,3.63692 -6.17603,6.63574 -3.87879,2.99881 -9.59949,7.3503 -17.67602,13.47122 -8.07653,6.12092 -18.49146,13.99803 -26.85847,20.72417 -8.367,6.72615 -14.68295,12.29894 -19.76962,16.38708 -5.08667,4.08813 -8.9441,6.69156 -10.87313,7.99349 -1.92903,1.30192 -1.93206,1.30205 -2.88288,0.55682 z"
       id="path5235-0"
       inkscape:path-effect="#path-effect5237-6"
       inkscape:original-d="m 472.05198,328.26309 c -1.90192,-1.4901 -3.80593,-2.9825 -5.7123,-4.47719 -0.89937,-1.74543 -1.80046,-3.49305 -2.70411,-5.24302 -3.07393,-0.4476 -6.14226,-0.88966 -9.21687,-1.33797 -6.22628,-0.27219 -12.46982,-0.55421 -18.70809,-0.83479 -4.54142,-0.69157 -9.08501,-1.34711 -13.63099,-2.0241 -2.06367,-3.92019 -4.12956,-7.84249 -6.19782,-11.76719 -0.47826,-1.62539 -0.95833,-3.253 -1.44097,-4.88298 -1.85781,-0.55047 -3.71788,-1.10314 -5.58044,-1.65816 -0.19637,-3.45511 -0.39346,-6.92003 -0.59449,-10.38348 0.43729,-2.09425 0.87172,-4.20596 1.30359,-6.31244 -1.37372,-0.99642 -2.74973,-1.9951 -4.12812,-2.99608 0.15427,-2.20103 0.30677,-4.40425 0.45731,-6.60976 0.18578,-1.55299 0.38393,-3.11582 0.57163,-4.67716 1.27168,-0.60003 2.55624,-1.18698 3.83088,-1.78394 0.3344,-1.4653 0.66499,-2.93285 0.99483,-4.40268 0.0953,-2.39923 0.17821,-4.83116 0.26293,-7.25015 2.60969,-0.7334 5.22452,-1.46147 7.83324,-2.19563 2.27032,-0.79446 4.53837,-1.59106 6.804,-2.39003 -0.56209,-3.16543 -1.13362,-6.34825 -1.70383,-9.52583 -0.50874,-1.88077 -1.01873,-3.76191 -1.53235,-5.64915 5.75623,-0.17696 11.49863,-0.35603 17.24445,-0.53752 2.30082,-3.47417 4.59925,-6.95053 6.89548,-10.42922 -1.3075,-8.35306 -2.61253,-16.6784 -3.92233,-25.021 0.002,0.002 0.002,0.002 0,0 9.30585,-0.28545 18.60941,-0.57326 27.91097,-0.86335 1.9243,5.72589 3.8462,11.4492 5.76604,17.1705 1.90809,3.55884 3.81399,7.11523 5.71762,10.66939 2.5486,1.29071 5.09474,2.57913 7.63879,3.86523 3.61583,0.0333 7.2294,0.0781 10.84057,0.11419 2.72019,0.57402 5.45316,1.11535 8.17631,1.66958 0.25436,5.1141 0.50495,10.22569 0.75455,15.3351 -0.002,4.13821 -0.005,8.27402 -0.008,12.40758 1.56893,1.19543 3.13558,2.38088 4.69995,3.56787 4.9043,-0.47798 9.78325,-0.9659 14.67145,-1.45232 3.84849,-2.20481 7.67927,-4.41944 11.51539,-6.63262 1.45078,-1.93415 2.8611,-3.84766 4.28816,-5.77494 2.51433,3.00991 5.05673,6.00214 7.58162,8.99979 1.45081,2.37329 2.89168,4.78996 4.33402,7.18153 -2.01044,1.63 -4.02296,3.25761 -6.03785,4.88298 -5.74974,4.36315 -11.46347,8.72381 -17.19863,13.08227 -10.41928,7.88157 -20.83284,15.76048 -31.2527,23.6373 -6.31395,5.57533 -12.62988,11.14815 -18.94829,16.71879 -3.85528,2.60585 -7.71272,5.20928 -11.57257,7.81047 z"
       sodipodi:nodetypes="sccccccccccccccccccccccccccccccccccccccccccss" />
    <path
       style="fill:none;stroke:#000000;stroke-width:2.29569px;stroke-linecap:butt;stroke-linejoin:miter;stroke-opacity:1"
       d="m 409.77529,264.66995 c 3.94385,0.3204 7.88523,0.6406 11.59017,0.93572 3.70494,0.29513 7.18906,0.5664 9.94465,0.37224 2.75558,-0.19415 4.79831,-0.85472 6.8362,-1.51373"
       id="path5239-4"
       inkscape:path-effect="#path-effect5241-5"
       inkscape:original-d="m 409.77529,264.66995 c 3.94368,0.3225 7.88506,0.64271 11.82415,0.9606 3.47105,0.26914 6.95492,0.54362 10.42901,0.812 2.03776,-0.65718 4.08086,-1.3166 6.11786,-1.97837" />
    <path
       style="fill:#855651;fill-opacity:1;stroke:#000000;stroke-width:2.29569px;stroke-linecap:butt;stroke-linejoin:miter;stroke-opacity:1"
       d="m 423.0755,248.44654 c -1.5085,0.24381 -4.52747,0.73174 -9.12426,0.87105 -4.59679,0.13932 -10.77171,-0.0703 -14.7056,-1.12317 -3.93389,-1.05282 -5.62628,-2.95109 -5.59925,-6.1073 0.027,-3.15621 1.77708,-7.57158 4.00121,-11.43386 2.22413,-3.86229 4.94608,-7.20065 6.69486,-9.66892 1.74879,-2.46828 2.53924,-4.0874 3.63054,-3.84828 1.0913,0.23911 2.48252,2.33173 3.85206,2.98956 1.36954,0.65784 2.75759,-0.13868 3.89983,0.71428 1.14224,0.85295 2.05611,3.33567 3.23068,5.59159 1.17456,2.25593 2.61518,4.29271 3.79184,6.78542 1.17665,2.49271 2.09667,5.45512 2.35908,8.0296 0.26242,2.57448 -0.1302,4.76626 -0.32634,5.86123 -0.19614,1.09497 -0.19614,1.095 -1.70465,1.3388 z"
       id="path5243-7"
       inkscape:path-effect="#path-effect5245-8"
       inkscape:original-d="m 424.58401,248.20274 c -3.01658,0.49028 -6.03556,0.97814 -9.0568,1.46376 -6.17284,-0.20721 -12.34776,-0.41701 -18.52519,-0.629 -1.69012,-1.89604 -3.38251,-3.7943 -5.07722,-5.69488 1.74805,-4.41193 3.50144,-8.82598 5.24871,-13.2424 2.67827,-3.32552 5.42267,-6.64557 8.13058,-9.9718 0.79171,-1.61014 1.58037,-3.23013 2.36712,-4.84867 1.39363,2.09506 2.7848,4.18771 4.17385,6.27813 1.34027,-0.79058 2.73915,-1.56822 4.10525,-2.35575 0.92509,2.48768 1.83197,4.97297 2.7445,7.45599 1.43936,2.02644 2.87643,4.06573 4.31112,6.09517 0.91747,2.95654 1.83961,5.91829 2.75594,8.87397 -0.39061,2.19415 -0.78314,4.38595 -1.17786,6.57545 z" />
    <path
       style="fill:#221812;fill-opacity:1;stroke:#000000;stroke-width:2.29569px;stroke-linecap:butt;stroke-linejoin:miter;stroke-opacity:1"
       d="m 414.27506,210.26743 c 0.0434,2.60488 -0.46737,4.44975 -0.50517,5.97206 -0.0378,1.52232 0.39759,2.72545 1.46643,4.37238 1.06883,1.64693 2.78205,3.75407 4.28292,5.82192 1.50086,2.06785 2.79081,4.09608 5.15458,4.88007 2.36377,0.78398 5.80518,0.32232 9.15824,-0.5853 3.35306,-0.90761 6.65575,-2.27546 8.62918,-4.42285 1.97344,-2.14738 2.6373,-5.08917 2.5603,-7.49309 -0.077,-2.40392 -0.89724,-4.2772 -1.08695,-6.96259 -0.18971,-2.68539 0.25304,-6.19325 0.09,-8.6992 -0.16308,-2.50596 -0.94065,-4.03055 -3.59909,-4.52567 -2.65844,-0.49513 -7.20194,0.0347 -12.07532,0.58872 -4.87338,0.554 -10.09912,1.13465 -12.40798,3.10871 -2.30887,1.97406 -1.71047,5.33996 -1.66711,7.94484 z"
       id="path5247-8"
       inkscape:path-effect="#path-effect5249-1"
       inkscape:original-d="m 414.82962,211.02575 c -0.50873,1.84724 -1.0192,3.69218 -1.53225,5.53483 0.42969,1.20305 0.87175,2.40377 1.3036,3.6022 1.71004,2.09125 3.41768,4.20294 5.12305,6.30099 1.30208,2.03405 2.58662,4.06573 3.8765,6.09515 3.43684,-0.46281 6.87882,-0.92022 10.3147,-1.38371 3.27286,-1.34712 6.57373,-2.71936 9.85726,-4.08249 0.66882,-2.9329 1.32867,-5.87559 1.98966,-8.8168 -0.81266,-1.86938 -1.63676,-3.74097 -2.45857,-5.61488 0.43634,-3.49703 0.88697,-7.00389 1.32646,-10.50927 -0.76789,-1.50724 -1.54521,-3.03195 -2.32129,-4.55137 -4.54142,0.5321 -9.08491,1.06203 -13.63089,1.58957 -5.20079,0.5805 -10.42654,1.16107 -15.64341,1.73819 0.60021,3.36825 1.19918,6.73405 1.79518,10.09759 z"
       sodipodi:nodetypes="cccccccccccccc" />
    <path
       style="fill:#5e5244;fill-opacity:1;stroke:#000000;stroke-width:2.29569px;stroke-linecap:butt;stroke-linejoin:miter;stroke-opacity:1"
       d="m 471.08871,195.01029 c 1.20951,0.0286 3.62625,0.0857 9.56117,-0.0325 5.93493,-0.11825 15.38789,-0.41175 23.90534,-0.70907 8.51745,-0.29733 16.09891,-0.59844 22.93772,-1.22402 6.83882,-0.62557 12.93499,-1.57538 17.06907,-0.57903 4.13408,0.99634 6.30585,3.93592 8.42727,7.9309 2.12142,3.99497 4.1968,9.0538 6.64043,13.84722 2.44362,4.79341 5.25662,9.32562 7.9927,10.37247 2.73609,1.04685 5.39669,-1.38891 7.30418,-3.75559 1.9075,-2.36667 3.07007,-4.68042 2.79703,-6.62763 -0.27304,-1.9472 -1.9807,-3.53674 -3.34187,-5.18129 -1.36117,-1.64455 -2.37512,-3.34465 -3.66375,-6.10445 -1.28863,-2.75979 -2.85141,-6.57922 -0.80752,-7.8515 2.04389,-1.27227 7.65578,-0.004 11.7588,0.37002 4.10302,0.37365 6.59091,-0.15651 7.01291,1.9847 0.422,2.14121 -1.23614,6.95558 -2.54548,11.09919 -1.30933,4.14361 -2.26987,7.61613 -3.19044,10.62172 -0.92057,3.00559 -1.80103,5.54418 -2.71589,8.00662 -0.91486,2.46244 -1.86396,4.84853 -2.65869,7.01942 -0.79473,2.17089 -1.43514,4.12654 -1.28211,7.21295 0.15303,3.08641 1.09832,7.30216 1.17591,10.12394 0.0776,2.82178 -0.7114,4.25116 -1.10569,4.96546 -0.39429,0.71431 -0.39429,0.71431 -3.73485,2.19886 -3.34055,1.48455 -10.02235,4.45395 -14.5278,3.48357 -4.50546,-0.97038 -6.8344,-5.88378 -8.82002,-9.42891 -1.98563,-3.54514 -3.62846,-5.72166 -3.46381,-8.47861 0.16465,-2.75695 2.13908,-6.09224 3.3885,-9.09865 1.24942,-3.00641 1.77716,-5.70258 2.1127,-8.26401 0.33553,-2.56143 0.48034,-4.99708 -0.24317,-7.80043 -0.72352,-2.80335 -2.30919,-5.95954 -4.34665,-7.78899 -2.03746,-1.82944 -4.58989,-2.3353 -6.70675,-2.70776 -2.11686,-0.37246 -3.81056,-0.61497 -6.18215,-0.15415 -2.37159,0.46082 -5.40953,1.62722 -8.35838,3.26643 -2.94885,1.6392 -5.80763,3.75096 -8.68481,5.04128 -2.87719,1.29031 -5.77411,1.75916 -7.52095,4.25519 -1.74683,2.49604 -2.34143,7.0167 -5.77442,8.4265 -3.433,1.4098 -9.70701,-0.29025 -14.4917,-3.08329 -4.78469,-2.79305 -8.05402,-6.65098 -10.26364,-9.81499 -2.20962,-3.16401 -3.35255,-5.63345 -5.7613,-8.84143 -2.40876,-3.20798 -6.08736,-7.16092 -8.11631,-9.892 -2.02895,-2.73107 -2.40664,-4.24045 -1.29449,-4.51008 1.11215,-0.26962 3.71209,0.70239 5.0107,1.18789 1.29861,0.48549 1.29871,0.48547 2.50821,0.51407 z"
       id="path5251-7"
       inkscape:path-effect="#path-effect5253-9"
       inkscape:original-d="m 469.87921,194.98169 c 2.41894,0.06 4.83569,0.11671 7.24997,0.17141 9.4557,-0.29117 18.90866,-0.58469 28.3596,-0.88052 7.58399,-0.29876 15.16544,-0.60001 22.74476,-0.90335 6.09863,-0.94749 12.19479,-1.89733 18.28882,-2.84946 2.17411,2.94194 4.34592,5.88149 6.51536,8.81879 2.09119,5.04549 4.14944,10.11135 6.22085,15.16357 2.81538,4.53467 5.62836,9.06689 8.43915,13.59689 2.66295,-2.43356 5.3236,-4.86927 7.98186,-7.30734 1.15727,-2.29631 2.31988,-4.61004 3.47629,-6.91852 -1.70538,-1.58725 -3.41302,-3.1768 -5.12296,-4.76861 -1.01159,-1.69781 -2.02558,-3.39789 -3.04184,-5.10027 -1.56055,-3.81726 -3.12338,-7.63667 -4.6884,-11.45842 5.65132,1.27934 11.2632,2.548 16.94711,3.83113 2.52307,-0.53495 5.01098,-1.06504 7.51301,-1.60099 -1.65592,4.81663 -3.31401,9.63102 -4.97441,14.44309 -0.95825,3.47497 -1.91885,6.94748 -2.88167,10.41777 -0.87842,2.54104 -1.75871,5.07969 -2.64152,7.6161 -0.94699,2.38857 -1.89599,4.77471 -2.84747,7.15867 -0.63736,1.95782 -1.27846,3.91325 -1.92107,5.86644 0.94797,4.21829 1.89297,8.4341 2.83597,12.6477 -0.78695,1.43178 -1.57581,2.86123 -2.36711,4.28834 0.002,0.002 0.002,0.002 0,0 -6.67988,2.97187 -13.36168,5.94126 -20.04612,8.90853 -2.32671,-4.91126 -4.65564,-9.82466 -6.98693,-14.74043 -1.64059,-2.17431 -3.28345,-4.35081 -4.92861,-6.5297 1.97681,-3.33316 3.95122,-6.66846 5.92344,-10.00611 0.52017,-2.67749 1.05437,-5.3724 1.57807,-8.06209 0.14772,-2.43351 0.29153,-4.86922 0.43445,-7.30729 -1.58342,-3.17305 -3.17675,-6.32539 -4.76854,-9.49153 -2.48687,-0.47798 -5.03681,-0.99639 -7.55875,-1.49804 -1.70918,-0.26077 -3.40541,-0.4856 -5.11154,-0.73187 -3.03571,1.16873 -6.07364,2.33515 -9.11397,3.49927 -2.85651,2.11411 -5.71532,4.22583 -8.57642,6.33533 -2.89476,0.4711 -5.79168,0.93993 -8.69087,1.40656 -0.5926,4.52322 -1.18691,9.04392 -1.78387,13.56258 -6.27203,-1.69784 -12.54604,-3.39789 -18.82253,-5.10029 -3.28726,-3.88966 -6.56156,-7.74338 -9.84587,-11.61852 -1.11065,-2.46403 -2.27707,-4.9226 -3.41909,-7.38737 -3.67643,-3.95079 -7.35508,-7.90369 -11.03597,-11.85902 -0.37539,-1.50719 -0.75267,-3.01668 -1.13317,-4.52846 2.60225,0.97433 5.2022,1.94633 7.79989,2.91605 z"
       sodipodi:nodetypes="ccccccccccccccccccccccccccccccccccccccccsc" />
    <path
       style="fill:#a16f5f;fill-opacity:1;stroke:#000000;stroke-width:2.29569px;stroke-linecap:butt;stroke-linejoin:miter;stroke-opacity:1"
       d="m 508.31021,223.06429 c -0.31281,0.88887 -0.93792,2.66509 -0.1553,5.00241 0.78262,2.33733 2.97054,5.23429 3.64402,8.35006 0.67349,3.11577 -0.16506,6.45101 -0.79585,9.47781 -0.63079,3.02679 -1.05389,5.74458 -0.27683,8.01088 0.77705,2.26631 2.7515,4.08073 5.88473,4.88242 3.13323,0.80169 7.46327,0.59111 11.51676,-0.63188 4.05349,-1.22298 7.89493,-3.48497 10.76627,-5.48038 2.87134,-1.9954 4.82025,-3.76018 6.24368,-5.83896 1.42342,-2.07877 2.33434,-4.48388 3.30478,-7.82198 0.97044,-3.3381 2.00663,-7.63582 2.24219,-11.59193 0.23556,-3.9561 -0.32247,-7.55473 -1.84998,-10.42913 -1.52751,-2.8744 -4.02419,-5.00902 -7.29288,-5.99149 -3.2687,-0.98248 -7.29395,-0.81125 -11.25465,0.28902 -3.96071,1.10027 -7.85707,3.13437 -10.77876,4.87628 -2.9217,1.74191 -4.87389,3.19464 -6.5258,4.14751 -1.65192,0.95287 -3.00507,1.40647 -3.68231,1.6335 -0.67725,0.22703 -0.67725,0.227 -0.99007,1.11586 z"
       id="path5255-4"
       inkscape:path-effect="#path-effect5257-7"
       inkscape:original-d="m 508.62303,222.17543 c -0.62307,1.77863 -1.24796,3.55493 -1.87542,5.32897 2.19029,2.89935 4.3782,5.79632 6.56383,8.69102 -0.83648,3.33775 -1.67488,6.67303 -2.51574,10.00611 -0.42111,2.72019 -0.84412,5.43799 -1.26931,8.15355 1.9768,1.81679 3.95129,3.63118 5.92343,5.44333 4.29447,-0.2072 8.62455,-0.417 12.93341,-0.62899 3.78742,-2.25437 7.64105,-4.49567 11.45812,-6.74699 1.9159,-1.75117 3.87509,-3.50459 5.80919,-5.26035 0.91364,-2.40304 1.82425,-4.80827 2.73295,-7.21584 1.00865,-4.27468 2.06826,-8.56675 3.09901,-12.85357 -0.55829,-3.62665 -1.11829,-7.22497 -1.68107,-10.8409 -2.49441,-2.13238 -4.9911,-4.26699 -7.49007,-6.40391 -4.03818,0.17368 -8.06341,0.34536 -12.09854,0.51466 -3.88966,2.0226 -7.78131,4.06573 -11.67536,6.09514 -1.95707,1.4432 -3.90108,2.90693 -5.85492,4.35696 -1.35093,0.45597 -2.70409,0.90955 -4.05951,1.36084 z" />
    <path
       style="fill:#544d48;fill-opacity:1;stroke:#000000;stroke-width:2.29569px;stroke-linecap:butt;stroke-linejoin:miter;stroke-opacity:1"
       d="m 542.28521,206.36162 c -0.17476,0.10449 -0.52605,0.31453 -2.05934,0.44809 -1.53329,0.13356 -4.25127,0.19079 -25.4165,1.01989 -21.16524,0.82909 -60.77632,2.43004 -80.58804,2.51509 -19.81172,0.085 -19.8213,-1.37108 -19.13793,-2.66452 0.68337,-1.29345 2.05939,-2.43317 3.97793,-2.82363 1.91855,-0.39045 4.37702,-0.0322 23.82682,-0.0513 19.44979,-0.0192 55.92756,-0.41577 75.3545,-0.23617 19.42694,0.1796 21.82066,0.93432 23.01623,1.31127 1.19556,0.37695 1.2011,0.3768 1.02633,0.48129 z"
       id="path5259-7"
       inkscape:path-effect="#path-effect5261-1"
       inkscape:original-d="m 542.45998,206.25713 c -0.34773,0.212 -0.6993,0.42157 -1.05197,0.62897 -2.71553,0.0524 -5.43336,0.11671 -8.15345,0.17167 -39.61033,1.60331 -79.22141,3.20425 -118.83554,4.80294 -0.008,-1.43099 -0.0202,-2.88709 -0.0285,-4.33406 1.37828,-1.13748 2.7543,-2.2772 4.12812,-3.41925 2.46096,0.36059 4.91943,0.71892 7.37573,1.07492 36.44351,-0.40186 72.92137,-0.79055 109.37869,-1.18926 2.39608,0.75703 4.78979,1.51179 7.18138,2.26422 z" />
    <path
       style="fill:#64605d;fill-opacity:1;stroke:#000000;stroke-width:2.29569px;stroke-linecap:butt;stroke-linejoin:miter;stroke-opacity:1"
       d="m 413.35199,218.36852 c 0.008,-1.49692 0.0238,-4.49305 0.25886,-7.16602 0.23507,-2.67296 0.68772,-5.01225 0.26588,-6.88927 -0.42184,-1.87701 -1.72163,-3.28736 -3.50227,-3.50798 -1.78063,-0.22061 -4.04095,0.75139 -5.23803,2.06593 -1.19707,1.31454 -1.33136,2.99164 -1.29389,5.0254 0.0375,2.03376 0.24873,4.47347 0.65792,6.14962 0.40919,1.67616 1.02932,2.62755 2.0226,3.04735 0.99327,0.41981 2.36521,0.32071 3.56614,0.69727 1.20094,0.37657 2.23011,1.22661 2.74347,1.65061 0.51336,0.42401 0.51139,0.42401 0.51932,-1.07291 z"
       id="path5263-2"
       inkscape:path-effect="#path-effect5265-3"
       inkscape:original-d="m 413.34406,219.86544 c 0.0202,-2.99382 0.0381,-5.98994 0.0476,-8.98834 0.46301,-2.34587 0.90983,-4.68629 1.36087,-7.03288 -1.29752,-1.40811 -2.59731,-2.81846 -3.89947,-4.23112 -2.25804,0.97431 -4.51836,1.9463 -6.78106,2.91605 -0.13159,1.65665 -0.26486,3.33384 -0.40014,4.99732 0.20871,2.40382 0.42204,4.84335 0.62879,7.26159 0.60021,0.94003 1.22966,1.88535 1.84112,2.82458 1.37447,-0.10058 2.74668,-0.19586 4.1167,-0.29735 1.03141,0.85241 2.06062,1.7024 3.08756,2.55015 z" />
    <path
       style="fill:#d3dce5;fill-opacity:1;stroke:#000000;stroke-width:2.29569px;stroke-linecap:butt;stroke-linejoin:miter;stroke-opacity:1"
       d="m 366.77902,191.43898 c 2.67713,0.43095 8.02882,1.29242 15.2644,2.65348 7.23557,1.36106 16.35164,3.22091 21.98024,4.44423 5.6286,1.22331 7.7737,1.81112 9.48975,2.42934 1.71605,0.61822 3.00289,1.26547 5.59521,0.80783 2.59233,-0.45764 6.47816,-2.01429 10.50379,-3.04719 4.02563,-1.0329 8.18424,-1.53987 14.01498,-2.1245 5.83073,-0.58463 13.35391,-1.2488 24.38908,-1.9654 11.03516,-0.7166 25.59229,-1.4866 38.52767,-1.86394 12.93537,-0.37734 24.25611,-0.36214 36.47482,-0.12006 12.21871,0.24207 25.33869,0.71093 33.93432,1.16845 8.59564,0.45752 12.66659,0.9035 15.02831,0.3932 2.36172,-0.5103 3.01747,-1.97806 2.89322,-2.98224 -0.12425,-1.00419 -1.03137,-1.54541 -2.76972,-1.90784 -1.73835,-0.36242 -4.33025,-0.54618 -5.82183,-2.37561 -1.49157,-1.82944 -1.89162,-5.304 -1.97745,-11.45281 -0.0858,-6.14881 0.14252,-14.94629 -0.76364,-22.72265 -0.90616,-7.77635 -2.94289,-14.50341 -4.76666,-20.48943 -1.82377,-5.98602 -3.43263,-11.22448 -7.27245,-17.63048 -3.83982,-6.406 -9.91184,-13.98001 -16.34235,-19.90358 -6.43051,-5.923572 -13.2109,-10.189978 -18.99778,-13.270518 -5.78689,-3.080539 -10.57308,-4.970673 -15.22546,-6.307056 -4.65239,-1.336384 -9.16921,-2.117792 -17.17041,-2.373616 -8.00119,-0.255824 -19.51638,0.01516 -27.6222,0.97857 -8.10582,0.963406 -12.82541,2.623129 -18.21663,5.333106 -5.39122,2.709977 -11.48421,6.48807 -17.11831,10.690815 -5.63409,4.202745 -10.82183,8.837928 -15.1424,13.404989 -4.32057,4.56705 -7.76698,9.05695 -10.9366,14.27001 -3.16963,5.21307 -6.05885,11.14416 -8.4294,17.40232 -2.37056,6.25816 -4.22374,12.84748 -5.77109,18.63686 -1.54736,5.78938 -2.79806,10.81513 -4.0213,14.3515 -1.22324,3.53636 -2.42458,5.60354 -5.00492,7.70058 -2.58034,2.09705 -6.54762,4.22949 -9.90779,6.14307 -3.36018,1.91358 -6.11608,3.60985 -8.20314,4.9574 -2.08706,1.34754 -3.50499,2.34622 -4.94142,3.01134 -1.43643,0.66513 -2.89248,0.99676 -3.62138,1.16277 -0.7289,0.16601 -0.7286,0.16612 1.94854,0.59706 z"
       id="path5267-7"
       inkscape:path-effect="#path-effect5269-9"
       inkscape:original-d="m 364.10188,191.00804 c 5.35398,0.86372 10.70566,1.72523 16.05507,2.58442 9.12408,1.85107 18.23775,3.72266 27.35326,5.58057 2.14456,0.57782 4.28673,1.17632 6.42662,1.76105 1.29447,0.64652 2.57901,1.29833 3.86509,1.94407 3.89803,-1.56442 7.78597,-3.1158 11.67553,-4.67717 4.16089,-0.50475 8.31951,-1.01164 12.47582,-1.5209 7.50398,-0.67243 15.02825,-1.32427 22.53899,-1.98979 14.5597,-0.76388 29.11663,-1.53769 43.67147,-2.31 11.31578,0.0151 22.63652,0.0333 33.95127,0.0456 13.12273,0.46732 26.24257,0.94006 39.36044,1.40659 4.07325,0.44834 8.1442,0.89431 12.21278,1.33793 0.65735,-1.46528 1.3136,-2.93282 1.96697,-4.40268 -0.90509,-0.53896 -1.81217,-1.08026 -2.72163,-1.62383 -2.56691,-0.18073 -5.15887,-0.36366 -7.74168,-0.54886 -0.41348,-3.47422 -0.79837,-6.95053 -1.2008,-10.42924 0.23543,-8.81852 0.46016,-17.61609 0.68596,-26.42759 -2.02939,-6.74482 -4.07629,-13.46879 -6.11788,-20.20664 -1.60245,-5.23528 -3.21484,-10.47265 -4.82568,-15.71243 -6.06994,-7.57202 -12.142,-15.146 -18.21643,-22.722464 -6.78658,-4.270892 -13.56762,-8.536267 -20.35488,-12.807843 -4.7853,-1.89221 -9.57279,-3.779051 -14.36266,-5.672017 -4.51475,-0.779132 -9.03157,-1.560558 -13.55078,-2.344278 -11.4828,0.272944 -22.99799,0.54362 -34.50033,0.811901 -4.70917,1.656674 -9.42798,3.318615 -14.14544,4.974482 -6.06624,3.760851 -12.15725,7.542145 -18.23939,11.309727 -5.18554,4.637638 -10.37335,9.272748 -15.56338,13.905682 -3.45121,4.50035 -6.89709,8.99065 -10.34908,13.48252 -2.88701,5.93367 -5.77622,11.86476 -8.6679,17.79372 -1.854,6.5855 -3.70273,13.17607 -5.55748,19.76062 -1.24796,4.99213 -2.49068,10.01987 -3.73942,15.02634 -1.20221,2.06455 -2.39903,4.13435 -3.60202,6.19809 -3.96216,2.12553 -7.92623,4.26394 -11.89275,6.39247 -2.75364,1.69859 -5.50956,3.39484 -8.26769,5.0888 -1.41581,1.00105 -2.83375,1.99971 -4.25395,2.99613 -1.45386,0.33392 -2.90991,0.66558 -4.36832,0.99491 z" />
    <path
       style="fill:#13140f;fill-opacity:1;stroke:#000000;stroke-width:2.29569px;stroke-linecap:butt;stroke-linejoin:miter;stroke-opacity:1"
       d="m 548.11184,194.79664 c 0.75948,1.10296 2.27655,3.30616 4.40552,6.62086 2.12897,3.31469 4.86931,7.73976 7.24395,11.86615 2.37464,4.12639 4.38342,7.95338 5.94499,10.14261 1.56158,2.18922 2.67461,2.74194 4.43093,2.09159 1.75631,-0.65035 4.18,-2.51889 5.73676,-4.73466 1.55675,-2.21576 2.25807,-4.78861 1.46643,-7.47933 -0.79165,-2.69072 -3.07865,-5.49998 -4.48944,-7.74838 -1.41079,-2.24839 -1.94476,-3.93804 -2.45274,-5.66512 -0.50798,-1.72708 -0.994,-3.50658 -2.6892,-4.55964 -1.69519,-1.05306 -4.61148,-1.38516 -7.48376,-1.51305 -2.87228,-0.12788 -5.70453,-0.0517 -7.84284,-0.0383 -2.1383,0.0134 -3.5829,-0.0362 -4.30649,-0.061 -0.72359,-0.0248 -0.72359,-0.0247 0.0359,1.07827 z"
       id="path5271-9"
       inkscape:path-effect="#path-effect5273-6"
       inkscape:original-d="m 547.35236,193.69367 c 1.5195,2.20556 3.03652,4.4088 4.55133,6.60975 2.73164,4.43558 5.48364,8.85343 8.22194,13.27668 2.01118,3.82949 4.0199,7.65651 6.0265,11.48131 1.11525,0.55507 2.2283,1.10776 3.33909,1.65816 2.40369,-1.85029 4.82797,-3.71807 7.23855,-5.58056 0.70406,-2.57074 1.40497,-5.1437 2.10407,-7.71898 -2.28481,-2.8071 -4.57179,-5.61638 -6.86117,-8.428 -0.52781,-1.68642 -1.06506,-3.37503 -1.60096,-5.06596 -0.48207,-1.76262 -0.96585,-3.54273 -1.45232,-5.31753 -2.90615,-0.32555 -5.82205,-0.66101 -8.73649,-0.9949 -2.82995,0.0744 -5.66209,0.15477 -8.49642,0.22863 -1.44241,-0.0476 -2.88702,-0.0968 -4.33412,-0.14873 z" />
    <path
       style="fill:#002151;fill-opacity:1;stroke:#000000;stroke-width:2.29569px;stroke-linecap:butt;stroke-linejoin:miter;stroke-opacity:1"
       d="m 407.30301,554.50939 c 1.94767,-2.69479 5.84331,-8.08477 10.4802,-14.82675 4.63689,-6.74198 10.03833,-14.87107 13.53573,-21.55571 3.4974,-6.68464 5.09423,-11.91627 5.42368,-17.60648 0.32946,-5.69022 -0.6183,-11.85843 -0.27339,-19.05526 0.34491,-7.19683 1.98713,-15.46927 4.07595,-23.76791 2.08881,-8.29865 4.62737,-16.63883 7.25329,-24.80658 2.62593,-8.16776 5.34067,-16.16721 7.43336,-21.74416 2.09268,-5.57695 3.564,-8.73312 4.22009,-12.91408 0.6561,-4.18095 0.49503,-9.43355 0.0769,-13.54582 -0.41817,-4.11227 -1.09865,-7.12477 -2.06181,-7.66595 -0.96316,-0.54119 -2.21686,1.39289 -3.63307,5.48024 -1.4162,4.08734 -3.00548,10.36062 -5.20491,17.42392 -2.19944,7.0633 -5.01246,14.9308 -7.67081,22.62399 -2.65834,7.69318 -5.15578,15.19325 -7.32852,21.44849 -2.17274,6.25524 -4.0176,11.25629 -5.89723,18.39086 -1.87964,7.13456 -3.79218,16.39267 -5.63349,24.77201 -1.84132,8.37933 -3.60953,15.87158 -5.59933,22.99586 -1.98979,7.12427 -4.20059,13.87875 -6.15618,18.24247 -1.95559,4.36371 -3.67025,6.35401 -4.64956,9.27469 -0.97932,2.92067 -1.23136,6.79385 -1.16631,10.20567 0.065,3.41183 0.44619,6.36974 0.6366,7.84751 0.19042,1.47777 0.19118,1.47777 2.13885,-1.21701 z"
       id="path5275-8"
       inkscape:path-effect="#path-effect5277-8"
       inkscape:original-d="m 405.35534,557.20417 c 3.89795,-5.38768 7.79361,-10.77765 11.68688,-16.16989 5.37694,-8.09424 10.78199,-16.22094 16.16951,-24.33486 1.62618,-5.25055 3.20418,-10.48792 4.80282,-15.73532 -0.93556,-6.13493 -1.88837,-12.30237 -2.83594,-18.45703 1.63371,-8.23907 3.2804,-16.51062 4.91716,-24.76938 2.54099,-8.33822 5.07959,-16.67838 7.61582,-25.02101 2.70875,-7.99512 5.43038,-15.99223 8.14201,-23.99179 1.47367,-3.15401 2.94504,-6.31016 4.41402,-9.46866 -0.15805,-5.20477 -0.31726,-10.45742 -0.48111,-15.68959 -0.66882,-2.99387 -1.35466,-6.00516 -2.03548,-9.0112 -1.24807,1.92351 -2.49822,3.85989 -3.75085,5.78638 -1.58332,6.24624 -3.16901,12.52043 -4.75702,18.77718 -2.81089,7.87012 -5.62387,15.73764 -8.43924,23.603 -2.50594,7.5194 -4.99881,15.02099 -7.50159,22.52805 -1.84265,5.00354 -3.6875,10.00459 -5.53471,15.00348 -1.93411,9.26524 -3.82468,18.52788 -5.74051,27.78838 -1.77404,7.49655 -3.53504,14.9905 -5.30596,22.4823 -2.20858,6.75702 -4.41936,13.51151 -6.63251,20.26381 -1.69774,1.97686 -3.41302,3.96662 -5.12295,5.9465 -0.24199,3.85997 -0.50019,7.73274 -0.75456,11.59566 0.383,2.96034 0.76408,5.91826 1.14345,8.87399 z" />
    <path
       style="fill:#c3c5d3;fill-opacity:1;stroke:#000000;stroke-width:2.29569px;stroke-linecap:butt;stroke-linejoin:miter;stroke-opacity:1"
       d="m 438.77709,497.72146 c -0.28954,-2.21342 -0.86894,-6.64277 -0.95689,-11.41897 -0.0879,-4.7762 0.31614,-9.89991 1.57222,-16.91442 1.25608,-7.0145 3.37118,-15.9485 6.02112,-24.74587 2.64993,-8.79738 5.8502,-17.50479 8.45714,-25.06641 2.60694,-7.56162 4.62785,-13.99809 5.84392,-19.4827 1.21606,-5.4846 1.62779,-10.0213 1.44904,-13.88248 -0.17875,-3.86117 -0.94871,-7.04777 -1.69955,-9.79614 -0.75084,-2.74838 -1.48267,-5.05822 -2.42637,-7.68835 -0.9437,-2.63012 -2.10548,-5.59583 -2.77326,-8.32935 -0.66778,-2.73351 -0.84251,-5.22595 -0.36251,-7.79585 0.48,-2.5699 1.61589,-5.20759 3.709,-7.99102 2.09312,-2.78343 5.1421,-5.71054 7.36393,-8.2865 2.22182,-2.57596 4.35986,-5.98697 11.41165,-11.86607 7.05179,-5.87909 19.40502,-14.83056 30.70526,-23.18633 11.30024,-8.35576 21.58227,-16.14187 29.48902,-21.95954 7.90674,-5.81766 13.44695,-9.6738 16.593,-12.31043 3.14604,-2.63663 3.89697,-4.05383 6.84655,-5.14763 2.94958,-1.0938 8.10295,-1.86435 11.32931,-1.97686 3.22635,-0.11251 4.55437,0.44178 4.69516,1.47341 0.14079,1.03162 -0.88723,2.54322 -1.91582,3.83007 -1.02859,1.28685 -2.05686,2.34768 -3.92469,4.38138 -1.86784,2.03369 -4.57506,5.04006 -7.75635,8.29473 -3.18129,3.25468 -6.83673,6.75774 -11.24141,11.77248 -4.40469,5.01473 -9.55806,11.54047 -15.41309,20.25086 -5.85503,8.71038 -12.41115,19.60446 -18.47576,30.75627 -6.06461,11.15181 -11.63733,22.56048 -15.93281,31.25578 -4.29549,8.69531 -7.32276,14.69516 -11.29926,22.56758 -3.9765,7.87241 -8.90347,17.61986 -13.83409,27.71195 -4.93061,10.09209 -9.86285,20.52473 -14.3398,29.75518 -4.47694,9.23045 -8.49825,17.25807 -11.36091,23.90623 -2.86266,6.64816 -4.56653,11.91605 -6.28742,15.70283 -1.7209,3.78678 -3.45889,6.09331 -4.32779,7.24646 -0.8689,1.15314 -0.869,1.15314 -1.15854,-1.06029 z"
       id="path5279-9"
       inkscape:path-effect="#path-effect5281-9"
       inkscape:original-d="m 439.06663,499.93489 c -0.57735,-4.42708 -1.15648,-8.85646 -1.73822,-13.28813 0.39823,-5.12091 0.81077,-10.24396 1.21214,-15.36938 2.11409,-8.90236 4.22578,-17.83716 6.33517,-26.7592 3.16617,-8.68129 6.39083,-17.37974 9.58273,-26.07308 2.015,-6.43224 4.04285,-12.86653 6.06079,-19.30321 0.40586,-4.53391 0.82506,-9.06993 1.23501,-13.60833 -0.76789,-3.18448 -1.5377,-6.37111 -2.30995,-9.56011 -0.7298,-2.30775 -1.46139,-4.61767 -2.19563,-6.92994 -1.13355,-2.95578 -2.31521,-5.9137 -3.47629,-8.87402 -0.17998,-2.50593 -0.34773,-4.99886 -0.5259,-7.50172 1.13821,-2.63557 2.27405,-5.27328 3.40778,-7.91339 3.06699,-2.91001 6.10099,-5.85273 9.14817,-8.78252 2.19793,-1.72068 3.53505,-5.63371 5.299,-8.454 12.33978,-8.93563 24.69203,-17.88845 37.03447,-26.83613 10.25619,-7.76641 20.54008,-15.55007 30.80676,-23.32853 5.53708,-3.87063 11.08694,-7.7129 16.6269,-11.57279 0.75264,-1.41476 1.50394,-2.83177 2.2525,-4.25109 5.14818,-0.76769 10.30164,-1.53769 15.44896,-2.30997 1.30226,0.55124 2.63255,1.1001 3.9453,1.64669 -1.01931,1.52328 -2.05606,3.02894 -3.08757,4.53994 -1.02599,1.06316 -2.05424,2.12401 -3.08489,3.18257 -2.70494,3.00874 -5.41218,6.01509 -8.12171,9.01916 -3.65319,3.50548 -7.30868,7.00849 -10.96643,10.5093 -5.15134,6.52831 -10.30469,13.05407 -15.46049,19.57767 -6.55412,10.89678 -13.11026,21.79084 -19.66874,32.68283 -5.57063,11.41139 -11.14336,22.82005 -16.71845,34.2266 -3.01288,5.98562 -6.04317,11.98395 -9.06815,17.97247 -4.94166,9.74942 -9.85499,19.50376 -14.78588,29.25217 -4.92258,10.43935 -9.86251,20.86836 -14.79729,31.29911 -4.01915,8.0302 -8.04046,16.05782 -12.06415,24.08329 -1.70165,5.27036 -3.40548,10.53826 -5.11171,15.80393 -1.73575,2.30894 -3.47369,4.61551 -5.21413,6.91981 z" />
    <path
       style="fill:none;stroke:#000000;stroke-width:2.29569px;stroke-linecap:butt;stroke-linejoin:miter;stroke-opacity:1"
       d="m 463.57517,337.48381 c 12.75681,11.40383 25.51123,22.80553 38.26327,34.2051"
       id="path5283-8"
       inkscape:path-effect="#path-effect5285-7"
       inkscape:original-d="m 463.57517,337.48381 c 12.75668,11.40398 25.51108,22.80569 38.26327,34.2051" />
    <path
       style="fill:#053869;fill-opacity:1;stroke:#000000;stroke-width:2.29569px;stroke-linecap:butt;stroke-linejoin:miter;stroke-opacity:1"
       d="m 413.43227,547.69373 c 0.83906,1.23853 7.99708,-2.86049 18.35577,-11.31489 10.3587,-8.45439 23.8443,-21.19417 32.50846,-31.96698 8.66417,-10.77281 12.35895,-19.39819 14.92677,-28.26462 2.56782,-8.86644 3.99321,-17.93729 7.15237,-25.56254 3.15915,-7.62525 8.08567,-13.8447 13.52123,-21.55603 5.43557,-7.71132 11.39704,-16.93582 16.89964,-26.12708 5.5026,-9.19125 10.55251,-18.36059 13.97169,-24.5549 3.41918,-6.19431 5.21064,-9.41901 4.85086,-13.1134 -0.35977,-3.69439 -2.87819,-7.86892 -2.7414,-10.80561 0.13679,-2.93669 2.92692,-4.63673 7.05312,-8.34759 4.1262,-3.71086 9.59543,-9.43958 15.92302,-16.2476 6.32758,-6.80803 13.51646,-14.69843 19.70285,-20.31815 6.1864,-5.61972 11.34077,-8.94961 13.10295,-11.7568 1.76217,-2.80719 0.1145,-5.08802 -1.79943,-9.01799 -1.91392,-3.92997 -4.09421,-9.51042 -6.77372,-13.14426 -2.67951,-3.63384 -5.85962,-5.31951 -9.69778,-3.86981 -3.83816,1.44969 -8.36868,6.07435 -12.88869,10.93859 -4.52,4.86424 -9.04875,9.98779 -15.329,18.84033 -6.28026,8.85255 -14.31879,21.44448 -21.33299,33.76379 -7.0142,12.31931 -13.00705,24.37037 -18.39693,35.84043 -5.38988,11.47006 -10.17644,22.35824 -15.82967,34.31851 -5.65323,11.96027 -12.18494,25.01634 -17.8798,36.85612 -5.69485,11.83978 -10.55857,22.4746 -15.41258,31.51358 -4.85401,9.03898 -9.69809,16.48201 -12.70557,23.16867 -3.00747,6.68666 -4.17821,12.61533 -6.71413,18.54304 -2.53592,5.92771 -6.44138,11.86229 -11.13339,18.11618 -4.69201,6.25389 -10.1727,12.83048 -9.33365,14.06901 z"
       id="path1883-1"
       inkscape:path-effect="#path-effect1885-2"
       inkscape:original-d="m 407.11264,553.03166 c 7.16023,-4.09671 14.31827,-8.19569 21.47394,-12.29699 13.56237,-12.80788 27.04799,-25.54764 40.65002,-38.40189 3.72692,-8.69251 7.42165,-17.31791 11.12897,-25.98029 1.43555,-9.07011 2.85346,-18.14214 4.27681,-27.21664 4.8967,-6.17301 9.82147,-12.39384 14.72872,-18.5942 5.96402,-9.22257 11.92544,-18.4471 17.88477,-27.67407 5.04922,-9.15395 10.09585,-18.32509 15.14038,-27.49107 1.79388,-3.2226 3.58526,-6.44734 5.37457,-9.67448 -2.52879,-4.15272 -5.02931,-8.33804 -7.54734,-12.5105 2.79262,-1.69784 5.58274,-3.39789 8.37066,-5.10026 5.44563,-5.73847 10.93442,-11.44852 16.39817,-17.1762 7.19147,-7.88842 14.38038,-15.7788 21.567,-23.6716 5.1865,-3.34458 10.33983,-6.67608 15.50632,-10.01756 -1.65209,-2.26961 -3.29114,-4.55667 -4.9401,-6.83846 -2.17801,-5.57837 -4.35832,-11.15881 -6.54099,-16.74167 -3.17806,-1.68346 -6.35814,-3.36918 -9.54078,-5.05723 -4.47919,4.6004 -9.02146,9.21354 -13.53561,13.81687 -4.53381,5.11791 -9.05453,10.24855 -13.58516,15.36941 -8.03303,12.58163 -16.06813,25.17575 -24.10563,37.76018 -5.99079,12.05387 -11.98367,24.10492 -17.97892,36.1539 -4.78454,10.89096 -9.57108,21.77915 -14.36001,32.66529 -6.50847,13.0391 -13.04926,26.09063 -19.57726,39.13247 -4.86171,10.6376 -9.72543,21.27243 -14.59152,31.90522 -4.84199,7.44565 -9.68607,14.88868 -14.53255,22.32959 -1.16848,5.9312 -2.33919,11.85988 -3.51228,17.78634 -3.89347,5.93367 -7.80418,11.86479 -11.70982,17.79372 -5.4786,6.57915 -10.9593,13.15573 -16.44236,19.73012 z"
       sodipodi:nodetypes="cccccccccccccccccccccccccccc" />
    <path
       style="fill:#02082c;fill-opacity:1;stroke:#000000;stroke-width:2.29569px;stroke-linecap:butt;stroke-linejoin:miter;stroke-opacity:1"
       d="m 553.94662,430.79039 c 0.66322,4.96618 1.9893,14.89597 3.89766,26.59966 1.90835,11.70369 4.39868,25.1804 6.7166,43.06729 2.31792,17.88688 4.46343,40.18236 6.25871,54.73204 1.79528,14.54968 3.23992,21.35272 4.26397,28.54403 1.02404,7.19131 1.62779,14.7705 4.94942,22.23141 3.32163,7.46091 9.35907,14.80304 12.37679,21.55225 3.01773,6.7492 3.01773,12.97003 0.43826,21.47535 -2.57947,8.50533 -7.74947,19.35289 -12.59565,31.44997 -4.84618,12.09709 -9.37432,25.45542 -11.63815,32.13391 -2.26384,6.67848 -2.26384,6.67848 -8.00633,7.53502 -5.74249,0.85655 -17.24142,2.57172 -28.39601,3.45589 -11.15459,0.88417 -22.027,0.93824 -23.2901,-6.8908 -1.2631,-7.82904 7.05784,-23.53358 14.47471,-38.29205 7.41686,-14.75848 13.92994,-28.57212 15.67215,-38.20474 1.7422,-9.63262 -1.28731,-15.08798 -8.67203,-19.13216 -7.38472,-4.04418 -19.12532,-6.67483 -30.30577,-8.28152 -11.18045,-1.60669 -21.7998,-2.18888 -25.07331,-11.18011 -3.27351,-8.99123 0.80175,-26.39227 7.68377,-45.2291 6.88202,-18.83683 16.59956,-39.16859 23.85136,-55.43593 7.25181,-16.26734 12.0467,-28.4864 15.57775,-41.85544 3.53105,-13.36905 5.79507,-27.88069 8.95531,-39.90741 3.16023,-12.02671 7.25433,-21.65564 10.16586,-22.92161 2.91153,-1.26596 4.65805,5.78502 6.46946,12.1031 1.81141,6.31809 3.68733,11.9028 4.62484,14.69385 0.93752,2.79104 0.93752,2.79092 1.60073,7.7571 z"
       id="path1887-5"
       inkscape:path-effect="#path-effect1889-7"
       inkscape:original-d="m 553.28341,425.82421 c 1.32837,9.9321 2.65438,19.8619 3.97826,29.78941 2.49268,13.4798 4.98308,26.9565 7.47129,40.43173 2.14792,22.29867 4.29333,44.59416 6.43666,66.88778 1.44697,6.80557 2.89158,13.60861 4.33399,20.40946 0.60689,7.5819 1.20987,15.16115 1.81132,22.73828 6.03991,7.34467 12.07739,14.68677 18.11257,22.02671 0.0285,6.15869 0.002,12.37952 0,18.56582 -5.1562,10.82565 -10.32622,21.6732 -15.4927,32.50638 -4.52587,13.36062 -9.05406,26.71894 -13.58441,40.075 0.002,0.002 0.002,0.002 0,0 -11.49089,1.67348 -22.98353,3.43083 -34.4787,5.14281 -10.81438,0.0562 -21.68679,0.11016 -32.53792,0.16183 8.32758,-15.71064 16.64861,-31.41513 24.96945,-47.12613 6.51286,-13.80613 13.026,-27.61974 19.53573,-41.43349 -3.02725,-5.45327 -6.05681,-10.9086 -9.08872,-16.36638 -11.7387,-2.62847 -23.47932,-5.25907 -35.22249,-7.8921 -10.61746,-0.57992 -21.23681,-1.16208 -31.85876,-1.74659 4.07784,-17.39948 8.15297,-34.80055 12.22604,-52.20424 9.69492,-20.26743 19.40863,-40.60102 29.10948,-60.90501 4.80284,-12.2309 9.59767,-24.44998 14.39315,-36.67879 2.26642,-14.50997 4.53036,-29.02163 6.79221,-43.5359 4.0561,-9.53955 8.15297,-19.1673 12.22601,-28.75438 1.74881,7.05358 3.49534,14.10456 5.23966,21.1534 1.87827,5.58727 3.75417,11.17199 5.62788,16.75452 z"
       sodipodi:nodetypes="ccccccccccccccccccccccccc" />
    <path
       style="fill:#01356d;fill-opacity:1;stroke:#000000;stroke-width:2.29569px;stroke-linecap:butt;stroke-linejoin:miter;stroke-opacity:1"
       d="m 564.73301,496.04534 c 1.06716,-6.1769 3.20182,-18.53256 4.57653,-31.26553 1.37471,-12.73298 1.98923,-25.84306 3.84892,-39.4228 1.85969,-13.57974 4.96468,-27.62779 9.21815,-37.24585 4.25347,-9.61806 9.65483,-14.80395 17.50158,-18.89786 7.84674,-4.0939 18.2563,-7.13009 28.28155,-6.70095 10.02526,0.42913 19.8617,4.35945 26.96634,8.73206 7.10464,4.3726 11.54641,9.2134 10.29612,7.02711 -1.2503,-2.18629 -8.28058,-11.51685 -15.60164,-21.22272 -7.32105,-9.70588 -14.95309,-19.81397 -22.20881,-28.3262 -7.25572,-8.51223 -14.12327,-15.41228 -19.3821,-20.63842 -5.25883,-5.22614 -8.83227,-8.70368 -12.12122,-9.67511 -3.28895,-0.97142 -6.21093,0.58057 -12.90392,6.5835 -6.69299,6.00293 -17.14528,16.45546 -26.0051,25.01874 -8.85982,8.56328 -16.12039,15.2315 -19.6945,19.61491 -3.57411,4.3834 -3.45559,6.47614 -3.04673,9.42521 0.40885,2.94906 1.11157,6.77609 0.28092,10.94233 -0.83065,4.16624 -3.1917,8.6836 -8.29023,17.45617 -5.09852,8.77258 -12.917,21.77137 -19.08563,31.56889 -6.16863,9.79752 -10.67165,16.36908 -13.95244,21.87401 -3.28079,5.50493 -5.3444,9.95638 -7.2901,15.7775 -1.94569,5.82111 -3.77915,13.02561 -6.29306,20.19375 -2.5139,7.16814 -5.70151,14.2866 -10.97581,22.16936 -5.2743,7.88276 -12.64391,16.53657 -22.08889,24.68066 -9.44498,8.1441 -21.52636,16.15355 -29.68392,21.97143 -8.15755,5.81788 -7.86011,5.56665 -10.81399,12.03943 -2.95387,6.47279 -6.78072,17.71479 -8.53128,27.50033 -1.75057,9.78554 -1.43697,18.19493 -1.07629,30.24347 0.36069,12.04854 0.7715,27.84315 1.38072,42.54969 0.60922,14.70654 1.41776,28.36583 1.44953,39.64276 0.0318,11.27693 -0.71131,20.15096 8.02955,24.07485 8.74086,3.9239 27.00146,2.88782 44.04155,2.27877 17.04009,-0.60904 32.8991,-0.79243 42.74532,-1.27301 9.84622,-0.48058 13.67805,-1.25557 16.04349,-5.67429 2.36543,-4.41872 3.2604,-12.48438 6.09581,-21.48218 2.83541,-8.99781 7.61145,-18.92743 11.77194,-28.04601 4.1605,-9.11857 7.70969,-17.43622 9.48981,-23.5704 1.78012,-6.13417 1.79278,-10.06934 0.18486,-14.06003 -1.60793,-3.99069 -4.7815,-7.95503 -9.51781,-10.56378 -4.73631,-2.60874 -11.03616,-3.82984 -19.19921,-5.20021 -8.16304,-1.37038 -18.1756,-2.88846 -24.84128,-5.2784 -6.66568,-2.38993 -10.00256,-5.68354 -11.13726,-11.37663 -1.13469,-5.69309 -0.0754,-13.84339 2.25021,-22.87013 2.32557,-9.02673 5.9327,-18.98437 10.15379,-29.23823 4.22108,-10.25387 9.06144,-20.81886 14.16863,-31.41623 5.10719,-10.59737 10.4718,-21.20831 14.33951,-29.10504 3.8677,-7.89673 6.24514,-13.09481 7.97029,-22.04849 1.72516,-8.95367 2.80327,-21.67563 4.53523,-31.44897 1.73196,-9.77333 4.11123,-16.57752 6.30072,-22.26154 2.18949,-5.68402 4.18227,-10.22981 6.02583,-12.70873 1.84356,-2.47893 3.56,-2.89175 5.65283,0.63494 2.09284,3.52669 4.59082,11.03158 6.03251,16.59843 1.44169,5.56684 1.94346,10.22243 3.03036,16.8688 1.0869,6.64636 2.82136,15.83057 4.1391,24.92297 1.31775,9.0924 2.22346,18.11743 3.13452,25.90718 0.91106,7.78974 1.82744,14.34484 2.28545,17.62114 0.45801,3.2763 0.45238,3.27625 1.51955,-2.90065 z"
       id="path1891-4"
       inkscape:path-effect="#path-effect1893-4"
       inkscape:original-d="m 563.66584,502.22224 c 2.13695,-12.35335 4.2716,-24.70901 6.40396,-37.06696 0.61735,-13.10831 1.23137,-26.21842 1.84361,-39.33107 3.10748,-14.04633 6.21236,-28.09441 9.31517,-42.14507 5.40372,-5.18373 10.80513,-10.36957 16.20418,-15.55779 10.2879,-3.0166 20.70254,-6.03535 31.05018,-9.0565 9.71645,3.84061 19.53802,7.80816 29.30365,11.70879 4.44422,4.84328 8.88597,9.68411 13.32563,14.52275 -6.91938,-9.22693 -13.97026,-18.54198 -20.9588,-27.81642 -7.67413,-10.12178 -15.28557,-20.24543 -22.93187,-30.3716 -6.86549,-6.89803 -13.73303,-13.79809 -20.60308,-20.70058 -3.64185,-3.55571 -7.2211,-7.02728 -10.83515,-10.54436 -2.96266,1.57644 -5.88436,3.12896 -8.82996,4.68997 -10.45568,10.42826 -20.89182,20.89694 -31.34122,31.34198 -7.27533,6.67618 -14.53092,13.34983 -21.79987,20.02132 0.10007,2.09397 0.23922,4.18554 0.35537,6.27487 0.70311,3.80824 1.40392,7.63562 2.10244,11.44998 -2.35892,4.51987 -4.71994,9.03724 -7.08335,13.55242 -7.85741,13.01589 -15.65216,26.02895 -23.48169,39.03999 -4.51511,6.57917 -9.01077,13.15578 -13.5197,19.73022 -2.07855,4.42282 -4.1162,8.8863 -6.1777,13.32601 -1.81979,7.20452 -3.66338,14.40644 -5.49852,21.60619 -3.21055,7.12905 -6.38024,14.25553 -9.57375,21.37982 -7.3723,8.62769 -14.72499,17.2959 -22.09091,25.94041 -11.52321,7.64655 -23.60612,15.6537 -35.41266,23.47711 -3.24427,5.3086 -4.2108,3.56093 -6.31964,5.33794 -3.77915,11.17353 -7.62508,22.40903 -11.44108,33.61011 0.31534,8.36894 0.62784,16.77837 0.93842,25.16413 0.41254,15.7113 0.82125,31.50596 1.2291,47.25552 0.82219,13.66278 1.61952,27.32273 2.4258,40.98064 -0.73073,8.89727 -1.48557,17.77031 -2.23173,26.65199 18.22308,-1.07587 36.48619,-2.06775 54.72593,-3.10508 15.84033,-0.18099 31.69934,-0.36422 47.5455,-0.54982 3.84051,-0.80628 7.67862,-1.55025 11.51444,-2.3288 0.88603,-8.06248 1.79196,-16.12692 2.68455,-24.1938 4.77844,-9.92772 9.55452,-19.85732 14.3284,-29.78942 3.5601,-8.29965 7.0963,-16.62284 10.64108,-24.93772 0.0202,-3.95462 0.0285,-7.8898 0.0381,-11.83815 -3.23228,-4.03006 -6.40187,-7.99759 -9.60622,-11.99985 -6.27251,-1.19447 -12.56873,-2.43432 -18.85646,-3.65493 -10.03535,-1.53948 -20.05086,-3.03811 -30.07983,-4.56063 -3.29686,-3.26457 -6.63899,-6.55286 -9.96197,-9.83275 1.05893,-8.10561 2.1154,-16.25628 3.16977,-24.38785 3.54936,-9.9385 7.20416,-19.87887 10.80286,-29.82176 4.8216,-10.5746 9.68388,-21.12955 14.52234,-31.69775 5.39305,-10.61774 10.74055,-21.23734 16.10731,-31.85947 2.34185,-5.18372 4.74602,-10.36957 7.11563,-15.55776 1.08049,-12.7202 2.15858,-25.44216 3.23438,-38.1667 2.38503,-6.82255 4.76768,-13.62555 7.14803,-20.4418 2.00766,-4.54759 3.99142,-9.09733 5.98363,-13.64944 1.68422,-0.43977 3.40921,-0.81704 5.11029,-1.22908 2.48211,7.46327 4.98336,14.96708 7.47147,22.44716 0.16385,3.67888 0.89748,8.30948 1.34297,12.46074 1.72173,9.14256 3.46265,18.32555 5.19058,27.48489 0.89746,9.02663 1.81359,18.05061 2.71687,27.07248 0.9184,6.5576 1.83511,13.11265 2.74915,19.66553 z" />
    <path
       style="fill:#053863;fill-opacity:1;stroke:#000000;stroke-width:2.29569px;stroke-linecap:butt;stroke-linejoin:miter;stroke-opacity:1"
       d="m 661.85674,721.77365 c -0.10217,-0.55387 -0.307,-1.66439 -0.47441,-4.70503 -0.1674,-3.04063 -0.29636,-7.98929 2.31261,-14.77721 2.60896,-6.78792 7.95638,-15.40219 11.50012,-20.84426 3.54374,-5.44206 5.27551,-7.70096 5.89585,-5.67264 0.62034,2.02832 0.12362,8.36688 0.4402,15.44398 0.31659,7.0771 1.4521,14.95008 2.10444,20.91222 0.65235,5.96213 0.82433,10.0159 -2.73717,11.4226 -3.5615,1.4067 -10.90832,0.14902 -14.9238,-0.53839 -4.01548,-0.6874 -4.01568,-0.6874 -4.11784,-1.24127 z"
       id="path1895-3"
       inkscape:path-effect="#path-effect1897-4"
       inkscape:original-d="m 661.9589,722.32752 c -0.20191,-1.10819 -0.4068,-2.2187 -0.6145,-3.3315 -0.1268,-4.9681 -0.25722,-9.91672 -0.38774,-14.87855 5.34997,-8.61229 10.69736,-17.22658 16.04259,-25.84334 1.74891,-2.26187 3.4739,-4.52596 5.20735,-6.79238 -0.50399,6.3204 -0.98959,12.65983 -1.48786,18.98631 1.11278,7.82986 2.26641,15.70023 3.39615,23.54688 0.17519,4.07781 0.3468,8.13159 0.51733,12.19395 -7.41538,-0.54763 -14.876,-1.14056 -22.67312,-3.88137 z" />
    <path
       style="fill:#012754;fill-opacity:1;stroke:#000000;stroke-width:2.29569px;stroke-linecap:butt;stroke-linejoin:miter;stroke-opacity:1"
       d="m 664.54236,377.84188 c -3.04445,-2.247 -9.13589,-6.7429 -15.8247,-9.96548 -6.68881,-3.22258 -14.00041,-5.17743 -21.6371,-4.88428 -7.63669,0.29316 -15.57675,2.82155 -22.19901,5.79708 -6.62225,2.97553 -11.94401,6.41527 -16.08995,11.79069 -4.14595,5.37542 -7.13229,12.69598 -9.71437,21.42402 -2.58209,8.72805 -4.75989,18.86252 -6.253,30.76567 -1.49311,11.90316 -2.3017,25.57389 -3.53632,36.41477 -1.23461,10.84087 -2.89494,18.85171 -3.15013,28.83509 -0.25518,9.98339 0.90278,22.02749 2.61106,35.24667 1.70829,13.21918 3.9737,27.67502 5.38555,38.44625 1.41184,10.77123 1.97322,17.88602 3.63398,25.2177 1.66075,7.33167 4.42071,14.88936 7.15395,20.50416 2.73323,5.6148 5.46143,9.31744 7.6551,13.08033 2.19367,3.7629 3.86474,7.60108 3.56832,11.98629 -0.29642,4.38522 -2.56234,9.32716 -5.76981,15.54267 -3.20747,6.21552 -7.35818,13.70853 -10.46641,21.12967 -3.10823,7.42114 -5.18258,14.80041 -6.99144,21.04204 -1.80887,6.24164 -3.34459,11.32145 -4.31445,14.51666 -0.96986,3.19521 -1.36971,4.49199 0.9485,5.84436 2.31822,1.35236 7.35585,2.76551 17.13973,3.58968 9.78388,0.82416 24.38166,1.06189 37.93671,0.54111 13.55506,-0.52078 25.15684,-1.70318 31.036,-4.55391 5.87916,-2.85072 5.57057,-7.25832 6.5557,-12.14326 0.98512,-4.88494 3.27464,-10.2308 6.4786,-15.80555 3.20396,-5.57475 7.34032,-11.40685 10.62197,-16.5742 3.28164,-5.16736 5.7206,-9.68926 9.36603,-15.61849 3.64543,-5.92923 8.51594,-13.29458 11.18342,-19.72421 2.66747,-6.42963 3.14387,-11.98365 2.5082,-18.13968 -0.63568,-6.15602 -2.38225,-12.93745 -3.47146,-20.42008 -1.08922,-7.48263 -1.52044,-15.66564 -2.14,-31.32036 -0.61956,-15.65472 -1.42893,-38.8245 -2.63486,-54.11529 -1.20593,-15.29079 -2.7934,-22.64919 -3.33743,-29.59196 -0.54403,-6.94278 -0.0389,-13.39178 -0.72113,-18.78913 -0.68226,-5.39735 -2.56158,-9.7393 -3.27689,-13.82151 -0.71531,-4.08222 -0.25644,-8.01546 0.0456,-12.50068 0.30208,-4.48521 0.4526,-9.55215 -0.008,-15.60004 -0.46088,-6.04789 -1.54406,-13.13211 -3.2883,-19.43475 -1.74425,-6.30264 -4.16317,-11.87485 -6.93344,-16.16081 -2.77028,-4.28596 -5.89678,-7.29396 -7.46122,-8.79909 -1.56443,-1.50514 -1.56433,-1.50514 -4.60877,-3.75215 z"
       id="path1899-1"
       inkscape:path-effect="#path-effect1901-5"
       inkscape:original-d="m 667.5868,380.08889 c -6.08919,-4.4936 -12.18059,-8.98955 -18.27435,-13.48771 -7.28599,-1.93844 -14.59562,-3.90065 -21.89683,-5.85439 -7.97597,2.52524 -15.91094,5.06963 -23.86984,7.601 -5.29139,3.40934 -10.6065,6.85936 -15.91323,10.28558 -2.98409,7.32309 -5.97048,14.64362 -8.95915,21.96202 -2.17562,10.13714 -4.35343,20.2716 -6.53353,30.40397 -0.806,13.67354 -1.61485,27.34426 -2.42582,41.01299 -1.65801,8.01344 -3.31839,16.02427 -4.98109,24.03298 1.13441,11.95896 2.30959,24.00141 3.46104,35.99867 2.27717,14.43909 4.53035,28.89685 6.7922,43.34184 0.57354,7.09668 1.12354,14.21237 1.68183,21.3151 2.76239,7.56032 5.52231,15.11802 8.28007,22.6736 2.68684,3.68967 5.436,7.37686 8.15067,11.06186 1.67334,3.84061 3.3445,7.67875 5.01328,11.51469 -2.25099,4.94035 -4.52587,9.87818 -6.79228,14.81384 -4.14852,7.49564 -8.29922,14.98866 -12.4524,22.47953 -2.04615,7.35546 -4.13765,14.72991 -6.20999,22.09139 -1.53949,5.12363 -3.08119,10.20164 -4.62516,15.29901 -0.38585,1.29611 -0.79552,2.58987 -1.19679,3.88136 5.03729,1.40392 10.07212,2.82705 15.10473,4.23715 14.53571,0.22863 29.13332,0.47674 43.69653,0.7116 12.59509,-0.80628 24.14898,-2.45862 36.22009,-3.69138 -0.31917,-4.47076 -0.61926,-8.87896 -0.93272,-13.32192 2.28804,-5.32388 4.57361,-10.67143 6.85699,-16.01059 4.11002,-5.81986 8.26073,-11.64178 12.38769,-17.4661 2.42809,-4.51528 4.87544,-9.03265 7.30971,-13.55242 4.85399,-7.34008 9.72706,-14.70374 14.58705,-22.05905 0.4554,-5.50718 0.9508,-11.05957 1.42326,-16.59279 -1.74432,-6.77943 -3.49083,-13.56087 -5.23984,-20.34478 -0.42873,-8.18105 -0.85934,-16.36409 -1.29369,-24.54957 -0.78505,-23.12459 -1.61485,-46.29366 -2.42582,-69.44396 -1.6257,-7.42634 -3.18893,-14.78997 -4.78682,-22.18841 0.48779,-6.48833 1.01568,-12.93555 1.52016,-19.40678 -1.85219,-4.33198 -3.74961,-8.66609 -5.62788,-13.00258 0.46588,-3.8252 0.90794,-7.76041 1.35847,-11.64405 0.16384,-5.0867 0.30485,-10.15392 0.45254,-15.23432 -1.06513,-7.01663 -2.15401,-14.09998 -3.23437,-21.1534 -2.41286,-5.55032 -4.8278,-11.12426 -7.24513,-16.68982 -3.12434,-3.00585 -6.25087,-6.01383 -9.37968,-9.02416 z" />
  </g>
</svg>
