<?xml version="1.0" encoding="UTF-8" standalone="no"?>
<!-- Created with Inkscape (http://www.inkscape.org/) -->

<svg
   width="800"
   height="800"
   viewBox="0 0 800 800"
   version="1.1"
   id="svg26728"
   inkscape:version="1.2.2 (732a01da63, 2022-12-09)"
   sodipodi:docname="ENTJ_Color.svg"
   inkscape:export-filename="ISFJ_Color.svg"
   inkscape:export-xdpi="300"
   inkscape:export-ydpi="300"
   xmlns:inkscape="http://www.inkscape.org/namespaces/inkscape"
   xmlns:sodipodi="http://sodipodi.sourceforge.net/DTD/sodipodi-0.dtd"
   xmlns="http://www.w3.org/2000/svg"
   xmlns:svg="http://www.w3.org/2000/svg">
  <sodipodi:namedview
     id="namedview26730"
     pagecolor="#ffffff"
     bordercolor="#000000"
     borderopacity="0.25"
     inkscape:showpageshadow="2"
     inkscape:pageopacity="0.0"
     inkscape:pagecheckerboard="0"
     inkscape:deskcolor="#d1d1d1"
     inkscape:document-units="mm"
     showgrid="false"
     inkscape:zoom="0.50646226"
     inkscape:cx="409.70477"
     inkscape:cy="541.99498"
     inkscape:window-width="1198"
     inkscape:window-height="1251"
     inkscape:window-x="3592"
     inkscape:window-y="0"
     inkscape:window-maximized="0"
     inkscape:current-layer="layer1" />
  <defs
     id="defs26725">
    <inkscape:path-effect
       effect="bspline"
       id="path-effect949-0"
       is_visible="true"
       lpeversion="1"
       weight="33.333333"
       steps="2"
       helper_size="0"
       apply_no_weight="true"
       apply_with_weight="true"
       only_selected="false" />
    <inkscape:path-effect
       effect="bspline"
       id="path-effect953-9"
       is_visible="true"
       lpeversion="1"
       weight="33.333333"
       steps="2"
       helper_size="0"
       apply_no_weight="true"
       apply_with_weight="true"
       only_selected="false" />
    <inkscape:path-effect
       effect="bspline"
       id="path-effect961-5"
       is_visible="true"
       lpeversion="1"
       weight="33.333333"
       steps="2"
       helper_size="0"
       apply_no_weight="true"
       apply_with_weight="true"
       only_selected="false" />
    <inkscape:path-effect
       effect="bspline"
       id="path-effect965-0"
       is_visible="true"
       lpeversion="1"
       weight="33.333333"
       steps="2"
       helper_size="0"
       apply_no_weight="true"
       apply_with_weight="true"
       only_selected="false" />
    <inkscape:path-effect
       effect="bspline"
       id="path-effect969-5"
       is_visible="true"
       lpeversion="1"
       weight="33.333333"
       steps="2"
       helper_size="0"
       apply_no_weight="true"
       apply_with_weight="true"
       only_selected="false" />
    <inkscape:path-effect
       effect="bspline"
       id="path-effect973-7"
       is_visible="true"
       lpeversion="1"
       weight="33.333333"
       steps="2"
       helper_size="0"
       apply_no_weight="true"
       apply_with_weight="true"
       only_selected="false" />
    <inkscape:path-effect
       effect="bspline"
       id="path-effect977-4"
       is_visible="true"
       lpeversion="1"
       weight="33.333333"
       steps="2"
       helper_size="0"
       apply_no_weight="true"
       apply_with_weight="true"
       only_selected="false" />
    <inkscape:path-effect
       effect="bspline"
       id="path-effect981-6"
       is_visible="true"
       lpeversion="1"
       weight="33.333333"
       steps="2"
       helper_size="0"
       apply_no_weight="true"
       apply_with_weight="true"
       only_selected="false" />
    <inkscape:path-effect
       effect="bspline"
       id="path-effect985-5"
       is_visible="true"
       lpeversion="1"
       weight="33.333333"
       steps="2"
       helper_size="0"
       apply_no_weight="true"
       apply_with_weight="true"
       only_selected="false" />
    <inkscape:path-effect
       effect="bspline"
       id="path-effect989-8"
       is_visible="true"
       lpeversion="1"
       weight="33.333333"
       steps="2"
       helper_size="0"
       apply_no_weight="true"
       apply_with_weight="true"
       only_selected="false" />
    <inkscape:path-effect
       effect="bspline"
       id="path-effect993-5"
       is_visible="true"
       lpeversion="1"
       weight="33.333333"
       steps="2"
       helper_size="0"
       apply_no_weight="true"
       apply_with_weight="true"
       only_selected="false" />
    <inkscape:path-effect
       effect="bspline"
       id="path-effect997-4"
       is_visible="true"
       lpeversion="1"
       weight="33.333333"
       steps="2"
       helper_size="0"
       apply_no_weight="true"
       apply_with_weight="true"
       only_selected="false" />
    <inkscape:path-effect
       effect="bspline"
       id="path-effect1001-6"
       is_visible="true"
       lpeversion="1"
       weight="33.333333"
       steps="2"
       helper_size="0"
       apply_no_weight="true"
       apply_with_weight="true"
       only_selected="false" />
  </defs>
  <g
     inkscape:label="Layer 1"
     inkscape:groupmode="layer"
     id="layer1">
    <path
       style="fill:#030408;fill-opacity:1;stroke:#000000;stroke-width:2.62093px;stroke-linecap:butt;stroke-linejoin:miter;stroke-opacity:1"
       d="m 359.94836,465.24774 c -3.80336,3.55724 -11.41028,10.67193 -20.26245,17.3802 -8.85217,6.70827 -18.98968,13.03516 -29.50132,18.85737 -10.51164,5.8222 -21.41702,11.15188 -31.50384,15.15233 -10.08681,4.00045 -19.35515,6.67145 -27.02921,7.77347 -7.67406,1.10201 -13.75449,0.6343 -17.11434,2.909 -3.35986,2.2747 -4.00393,7.3531 -1.2882,10.09697 2.71572,2.74387 8.78375,3.18705 12.45733,4.69018 3.67359,1.50314 4.95378,4.06351 7.20582,5.87555 2.25204,1.81203 5.50403,2.88785 8.15723,2.16715 2.65321,-0.72069 4.76559,-3.28047 6.83729,-4.86581 2.0717,-1.58533 4.15847,-2.2312 6.83513,-0.31645 2.67665,1.91474 5.96467,6.38505 9.27449,8.88641 3.30983,2.50137 6.69802,3.04746 10.12315,2.34703 3.42514,-0.70043 6.97362,-2.67323 9.91659,-5.6196 2.94297,-2.94637 5.3272,-6.91193 8.5347,-4.71349 3.20751,2.19845 7.24466,10.54377 10.93169,16.41501 3.68703,5.87124 7.02264,9.2685 8.72622,13.6137 1.70359,4.3452 1.77758,9.63789 3.47728,14.95571 1.6997,5.31783 5.02302,10.65979 7.63205,16.21125 2.60904,5.55145 4.50455,11.31203 3.24394,13.46503 -1.26061,2.15299 -5.67945,0.70056 -16.8622,-2.29687 -11.18276,-2.99743 -29.12861,-7.53942 -41.0376,-9.98922 -11.90899,-2.44979 -17.78019,-2.80667 -22.59842,-2.85606 -4.81823,-0.0494 -8.58634,0.20926 -10.76018,3.00472 -2.17385,2.79545 -2.75234,8.12517 -4.65962,10.53061 -1.90729,2.40544 -5.14248,1.88881 -7.14584,-0.006 -2.00337,-1.8953 -2.78701,-5.2414 -6.22817,-7.39097 -3.44117,-2.14958 -9.5424,-3.13365 -14.63915,-2.67258 -5.09675,0.46107 -9.1833,2.36897 -12.51157,4.01481 -3.32826,1.64584 -5.87885,3.01926 -7.39238,8.03072 -1.51352,5.01147 -1.98326,13.72601 -1.87874,18.93722 0.10452,5.21121 0.78311,6.9632 3.40567,7.91567 2.62257,0.95248 7.18899,1.11262 31.22866,5.05465 24.03967,3.94202 67.62425,11.67829 91.38029,16.73181 23.75603,5.05353 27.71945,7.42941 27.46648,11.06154 -0.25297,3.63214 -4.73526,8.53996 -0.69639,12.31911 4.03887,3.77914 16.58765,6.43789 31.9089,6.48132 15.32124,0.0434 33.43921,-2.53079 47.18575,-5.83857 13.74654,-3.30778 23.16655,-7.3644 28.2862,-11.62832 5.11965,-4.26393 5.95657,-8.74409 4.73614,-14.54607 -1.22043,-5.80199 -4.51366,-12.95598 -9.71451,-30.74287 -5.20086,-17.78688 -12.31522,-46.22038 -16.4744,-63.26267 -4.15919,-17.0423 -5.3679,-22.71607 -4.42144,-26.61892 0.94647,-3.90284 4.05074,-6.0463 5.95552,-7.99011 1.90478,-1.94382 2.62381,-3.71665 3.09745,-6.08056 0.47363,-2.36391 0.70822,-5.35296 1.10912,-8.07796 0.40091,-2.725 0.96504,-5.17778 2.74491,-6.45851 1.77986,-1.28072 4.8206,-1.37994 6.65419,0.85383 1.83359,2.23378 2.48474,6.77968 2.75548,12.27555 0.27075,5.49587 0.15992,11.95786 0.87401,24.58686 0.71409,12.62899 2.25273,31.43783 2.94169,44.94692 0.68897,13.50909 0.52907,21.69453 1.33691,28.8294 0.80783,7.13487 2.60251,13.27411 4.65774,26.67192 2.05522,13.39781 4.38171,34.09044 4.58549,46.07041 0.20377,11.97997 -1.71856,15.2579 -2.16709,18.53336 -0.44854,3.27546 0.57309,6.54954 2.03655,9.67323 1.46347,3.1237 3.37478,6.10799 7.06207,8.99389 3.68729,2.8859 9.15198,5.67977 23.46838,5.90212 14.31641,0.22234 37.55211,-2.13206 56.82179,-3.89083 19.26968,-1.75876 34.6799,-2.93089 46.22699,-4.79653 11.54709,-1.86563 19.26088,-4.42467 24.96871,-7.04433 5.70783,-2.61967 9.41851,-5.30724 10.79151,-9.11895 1.37301,-3.8117 0.41199,-8.76473 -1.28788,-11.66938 -1.69988,-2.90466 -4.1566,-3.7688 -7.38456,-3.0261 -3.22796,0.74271 -7.26133,3.10835 -12.57819,4.78867 -5.31685,1.68031 -11.9326,2.68357 -20.02505,2.83055 -8.09246,0.14698 -17.5538,-0.55489 -25.66044,-2.17103 -8.10665,-1.61614 -14.63206,-4.10532 -19.92806,-5.69664 -5.29601,-1.59131 -9.32085,-2.26826 -16.38045,-1.81935 -7.05959,0.44891 -17.15261,2.02449 -22.43959,1.4232 -5.28698,-0.6013 -5.75563,-3.32194 -6.04515,-6.88576 -0.28952,-3.56381 -0.39419,-7.93955 -1.57936,-22.91 -1.18517,-14.97045 -3.44896,-40.51241 -5.14092,-59.90553 -1.69195,-19.39312 -2.81304,-32.64952 -3.84772,-42.82904 -1.03468,-10.17952 -1.98084,-17.2697 -2.76861,-23.95305 -0.78777,-6.68335 -1.41561,-12.94961 -1.41153,-18.23696 0.004,-5.28736 0.64775,-9.64449 1.44153,-13.09739 0.79379,-3.45291 1.74164,-6.02569 1.4892,-10.09586 -0.25245,-4.07017 -1.70335,-9.62803 -3.66519,-15.77303 -1.96183,-6.14501 -4.43835,-12.88479 -6.56259,-17.57987 -2.12425,-4.69507 -3.91846,-7.38028 -9.98554,-9.11112 -6.06707,-1.73083 -16.42038,-2.51871 -26.50247,-2.29112 -10.08209,0.22758 -19.89044,1.47055 -30.88805,1.51888 -10.9976,0.0483 -23.13404,-1.09411 -30.94593,-2.39566 -7.81188,-1.30156 -11.24174,-2.747 -14.72606,-2.78482 -3.48432,-0.0378 -7.00457,1.34078 -8.76542,2.03037 -1.76085,0.68959 -1.76106,0.68949 -5.56442,4.24674 z"
       id="path947-9"
       inkscape:path-effect="#path-effect949-0"
       inkscape:original-d="m 363.75172,461.69049 c -7.60428,7.1171 -15.2111,14.23189 -22.82051,21.34382 -10.10313,6.29284 -20.2331,12.63181 -30.35355,18.94386 -10.90315,5.33253 -21.80854,10.6622 -32.71672,15.9893 -9.26608,2.6738 -18.53442,5.34483 -27.80556,8.01317 -6.07805,-0.46558 -12.15849,-0.93313 -18.24171,-1.40317 -0.6746,5.01249 -1.27747,10.09611 -1.92015,15.14007 6.07103,0.44577 12.13908,0.88858 18.20476,1.32958 1.28271,2.56275 2.56286,5.12314 3.84033,7.68065 3.22752,1.06121 6.47706,2.14442 9.71164,3.21277 2.04584,-2.53314 4.18762,-5.06866 6.27745,-7.60703 2.04598,-0.64984 4.1384,-1.27747 6.20368,-1.92007 3.30143,4.45844 6.57553,8.93898 9.85932,13.40446 3.3384,0.51907 6.72325,1.0859 10.08086,1.62477 3.48608,-1.95444 7.04329,-3.91154 10.56095,-5.87142 2.36594,-3.93641 4.75385,-7.89976 7.12682,-11.85371 4.04002,8.34842 8.07717,16.69374 12.11184,25.03678 3.35066,3.38782 6.674,6.79713 10.00702,10.19197 0.0791,5.2956 0.1507,10.58832 0.22199,15.87865 3.32613,5.34493 6.64945,10.68689 9.9702,16.02626 1.89816,5.76347 3.79367,11.52405 5.68659,17.28193 -4.41625,-1.44962 -8.83507,-2.90211 -13.25659,-4.35731 -17.94391,-4.53946 -35.88975,-9.08151 -53.83865,-13.62624 -5.86874,-0.35464 -11.73995,-0.71125 -17.61386,-1.07063 -3.76395,0.23589 -7.53037,0.51905 -11.29946,0.77562 -0.57553,5.33255 -1.15444,10.66222 -1.7355,15.98961 -3.23468,-0.52699 -6.47182,-1.03141 -9.71167,-1.55086 -0.77265,-3.27174 -1.54829,-6.61972 -2.32639,-9.93355 -6.10261,-1.00673 -12.20772,-1.9668 -18.31552,-2.95413 -4.08389,1.91045 -8.17037,3.81851 -12.25953,5.72362 -2.56998,1.38129 -5.11777,2.7599 -7.68062,4.13581 -0.46459,8.6439 -0.93313,17.35851 -1.40328,26.0338 0.66766,1.75047 1.35662,3.49845 2.03102,5.24368 4.56928,0.1625 9.13569,0.32293 13.69965,0.48045 43.5151,7.72609 87.09969,15.46231 130.64561,23.18959 3.96603,2.37852 7.92948,4.75435 11.89024,7.1276 -4.46358,4.89271 -8.9458,9.8006 -13.42267,14.69698 12.55144,2.66143 25.10025,5.32005 37.64635,7.97624 18.09698,-2.56991 36.21517,-5.14257 54.3187,-7.71769 9.38216,-4.05954 18.81051,-8.09677 28.2118,-12.14908 0.84001,-4.47808 1.67656,-8.95831 2.51094,-13.44142 -3.27151,-7.12451 -6.57019,-14.27599 -9.85933,-21.41776 -7.11194,-28.4319 -14.22636,-56.86538 -21.34346,-85.30203 -1.20366,-5.64736 -2.4099,-11.32166 -3.61872,-16.98655 3.09212,-2.15155 6.20624,-4.28074 9.30542,-6.42527 0.74096,-1.73294 1.4304,-3.51777 2.14175,-5.28064 0.26052,-2.96404 0.47053,-5.95502 0.70133,-8.93628 0.55672,-2.47155 1.13503,-4.92107 1.69866,-7.38556 2.99366,-0.0792 6.03389,-0.19422 9.04697,-0.2952 0.62999,4.56931 1.30737,9.11145 1.9571,13.66322 -0.12082,6.44011 -0.21884,12.90232 -0.33186,19.34987 1.5289,18.81121 3.07976,37.61905 4.61576,56.42478 -0.15752,8.2127 -0.31698,16.39815 -0.48042,24.59329 1.7874,6.07113 3.57215,12.21327 5.35433,18.31609 2.31667,20.69441 4.65536,41.38567 6.97908,62.07452 -1.92984,3.26469 -3.83773,6.55108 -5.76055,9.82279 1.02437,3.27688 2.04595,6.55098 3.06497,9.82248 1.89816,2.98158 3.81834,5.96019 5.72352,8.93661 5.45558,2.82141 10.93284,5.59069 16.39537,8.38227 23.1682,-2.37305 46.40675,-4.69936 69.60614,-7.05299 15.33968,-1.16681 30.7501,-2.3363 46.12108,-3.50807 7.72035,-2.57009 15.43786,-5.1179 23.15287,-7.68094 3.70768,-2.66834 7.41247,-5.36405 11.11481,-8.05023 -0.99436,-4.93333 -1.91751,-9.89371 -2.88025,-14.84468 -2.43456,-0.87073 -4.89628,-1.72065 -7.34829,-2.58475 -4.0016,2.35117 -8.03498,4.7168 -12.05646,7.07134 -6.61359,1.00594 -13.22933,2.00921 -19.84795,3.00991 -9.56692,-0.70729 -19.02826,-1.40912 -28.63647,-2.12432 -6.60544,-2.51809 -13.13086,-5.00725 -19.70016,-7.51483 -4.02248,-0.67457 -8.04735,-1.35135 -12.07499,-2.03091 -10.09073,1.57831 -20.18377,3.15375 -30.27956,4.72681 -0.47646,-2.7789 -0.94503,-5.49956 -1.4217,-8.25341 -0.10196,-4.37345 -0.20706,-8.74918 -0.31402,-13.12768 -2.24991,-25.56374 -4.52698,-51.10452 -6.79446,-76.66074 -1.11746,-13.22993 -2.23752,-26.48641 -3.36027,-39.73367 -0.94501,-7.11211 -1.89292,-14.20206 -2.84338,-21.30718 -0.61316,-6.2627 -1.2528,-12.52778 -1.88322,-18.79575 0.63894,-4.30609 1.28282,-8.66319 1.92026,-12.9985 0.94998,-2.56991 1.89818,-5.14256 2.84329,-7.71761 -1.42526,-5.57373 -2.90221,-11.12479 -4.3573,-16.69114 -2.48381,-6.71826 -4.94552,-13.46348 -7.4222,-20.19931 -1.76987,-2.65605 -3.56691,-5.33937 -5.35434,-8.01327 -10.34928,-0.76078 -20.70075,-1.57285 -31.05507,-2.36325 -9.80775,1.25826 -19.61765,2.48905 -29.43032,3.72957 -12.18337,-1.14194 -24.31958,-2.28677 -36.48324,-3.43427 -3.46854,-1.43755 -6.89033,-2.90213 -10.33938,-4.3573 -3.51777,1.38126 -7.03802,2.75987 -10.56095,4.13591 z"
       sodipodi:nodetypes="scccccccccccccccccccccccccccccccccccccccccccccccccccccccccccccccccccccccccccccccccccccss" />
    <path
       style="fill:#122e55;fill-opacity:1;stroke:#000000;stroke-width:2.62093px;stroke-linecap:butt;stroke-linejoin:miter;stroke-opacity:1"
       d="m 346.69168,672.21259 c 3.78495,2.06178 7.57307,4.1253 8.57439,7.33773 1.00133,3.21244 -0.7772,7.57578 -3.72063,9.82468 -2.94342,2.2489 -7.05454,2.38428 -20.7601,1.76243 -13.70555,-0.62184 -36.98179,-1.99973 -53.77171,-3.18086 -16.78993,-1.18112 -27.10315,-2.16693 -34.81632,-3.00333 -7.71318,-0.83641 -12.85475,-1.52691 -15.69392,-3.105 -2.83916,-1.57809 -3.37905,-4.03224 -6.97311,-4.39248 -3.59406,-0.36024 -10.26445,1.39064 -14.20443,3.40396 -3.93999,2.01331 -5.15846,4.29041 -6.80124,6.12389 -1.64277,1.83348 -3.71046,3.22417 -6.78014,4.09814 -3.06968,0.87397 -7.14489,1.23103 -11.67388,1.78387 -4.529,0.55284 -9.5402,1.30581 -12.06458,4.18153 -2.52437,2.87572 -2.57356,7.87304 -1.5058,11.96897 1.06776,4.09593 3.24241,7.27805 1.01995,9.82268 -2.22245,2.54462 -8.86805,4.45568 -14.86791,4.65942 -5.99986,0.20375 -11.36643,-1.29793 -14.29742,-5.76523 -2.93098,-4.4673 -3.42334,-11.90176 -3.06648,-19.93466 0.35685,-8.03291 1.56284,-16.65954 2.9746,-23.29555 1.41176,-6.63601 3.01923,-11.24996 3.49962,-17.38544 0.4804,-6.13547 -0.17195,-13.77924 0.25555,-20.04179 0.4275,-6.26255 1.94739,-11.18062 2.8217,-16.45442 0.87431,-5.27379 1.1076,-10.89943 2.81309,-14.37212 1.70548,-3.47269 4.88107,-4.77736 14.90748,-5.00473 10.02641,-0.22736 26.90141,0.62189 43.92458,1.02203 17.02317,0.40013 34.19355,0.3513 41.59883,3.52883 7.40527,3.17753 5.03592,9.6132 2.60971,12.1152 -2.42622,2.50199 -4.91861,1.08639 -7.80547,-1.63659 -2.88685,-2.72299 -6.16699,-6.75409 -12.41791,-7.93304 -6.25092,-1.17894 -15.44368,0.49257 -21.02795,3.7022 -5.58427,3.20964 -7.53944,7.94401 -8.89124,13.65624 -1.35181,5.71223 -2.10671,12.46932 -0.6409,17.09887 1.4658,4.62954 5.17197,7.18689 15.76153,8.99719 10.58957,1.8103 28.15785,2.88989 51.14506,6.17056 22.98721,3.28066 51.42929,8.76369 79.87489,14.24739 0,0 1.6e-4,-5.7e-4 1.6e-4,-5.7e-4 z"
       id="path951-1"
       inkscape:path-effect="#path-effect953-9"
       inkscape:original-d="m 346.69168,672.21259 c 0,0 7.57257,4.12621 11.35484,6.18535 -1.77595,4.36611 -3.55444,8.72947 -5.33583,13.09066 -4.10856,0.13864 -8.2197,0.27339 -12.33342,0.40614 -23.29838,-1.36397 -46.57386,-2.75466 -69.86473,-4.13581 -10.28777,-0.99468 -20.60228,-1.96704 -30.90738,-2.95435 -5.11787,-0.71124 -10.2629,-1.37604 -15.39833,-2.06797 -0.57553,-2.45922 -1.08053,-4.92104 -1.62475,-7.38553 -6.6442,1.75078 -13.31542,3.49847 -19.97713,5.2437 -1.21596,2.27993 -2.43448,4.557 -3.65568,6.83179 -2.06538,1.39357 -4.13314,2.78416 -6.20365,4.17247 -4.07162,0.3477 -8.14582,0.7162 -12.2226,1.07092 -4.98256,0.74096 -9.99219,1.50441 -14.99217,2.25269 -0.0495,5.00022 -0.0991,9.99753 -0.14756,14.99259 2.19367,3.19067 4.35998,6.37849 6.53601,9.56403 -6.61972,1.91066 -13.26626,3.81844 -19.90333,5.72354 -5.36414,-1.49886 -10.73066,-3.0007 -16.09993,-4.5051 -0.48936,-7.43221 -0.9817,-14.86667 -1.47709,-22.30381 1.22131,-8.62637 2.41517,-17.2547 3.61883,-25.88601 1.59049,-4.65033 3.22753,-9.25398 4.83733,-13.8847 -0.6498,-7.64152 -1.30213,-15.28529 -1.9571,-22.93184 1.52897,-4.87175 3.03061,-9.79546 4.54195,-14.6969 0.22383,-5.64754 0.47054,-11.27262 0.70134,-16.91284 3.1784,-1.30211 6.35396,-2.60684 9.52699,-3.91411 16.87838,0.85191 33.75338,1.70125 50.62609,2.54779 17.17376,-0.0495 34.34414,-0.0991 51.51234,-0.14651 -2.35452,6.40504 -4.72392,12.84069 -7.08984,19.25756 -2.49005,-1.41319 -4.98248,-2.82873 -7.47766,-4.24707 -3.27777,-4.02872 -6.55792,-8.05982 -9.84083,-12.09381 -9.21683,1.68924 -18.41139,3.35087 -27.62101,5.02229 -1.96681,4.74177 -3.91154,9.48045 -5.87121,14.21695 -0.74791,6.68658 -1.49907,13.44409 -2.25251,20.16207 3.65835,2.57533 7.38792,5.09876 11.07785,7.64398 17.48948,1.07715 35.05776,2.15682 52.5832,3.2313 28.44873,5.48648 85.33681,16.45111 85.33681,16.45111 z"
       sodipodi:nodetypes="scccccccccccccccccccccccccccccccccss" />
    <path
       style="fill:#224986;fill-opacity:1;stroke:#000000;stroke-width:2.62093px;stroke-linecap:butt;stroke-linejoin:miter;stroke-opacity:1"
       d="m 374.14279,452.18919 c 0.0149,-3.51901 0.0444,-10.53084 2.72741,-13.67136 2.68298,-3.14051 7.97234,-2.35601 15.81442,-1.40428 7.84209,0.95174 18.29554,2.07625 30.99153,2.32791 12.69598,0.25165 27.62729,-0.36284 40.55214,-1.31156 12.92484,-0.94872 23.79201,-2.22726 33.18411,-1.919 9.39211,0.30826 17.29419,2.20388 25.02319,5.7263 7.72899,3.52243 15.31293,8.68945 20.80563,14.20612 5.49271,5.51666 8.91979,11.40938 10.11881,17.34806 1.19902,5.93868 0.17744,11.93294 -1.0584,16.33662 -1.23584,4.40367 -2.69086,7.22752 -3.89154,10.14688 -1.20068,2.91936 -2.14734,5.93138 -2.49775,10.20325 -0.3504,4.27186 -0.10408,9.79866 1.77694,13.84695 1.88102,4.0483 5.4334,6.64761 8.68064,12.47899 3.24724,5.83139 6.19166,14.84885 7.07125,24.6821 0.8796,9.83324 -0.31463,20.45836 -2.74599,27.73818 -2.43137,7.27983 -6.12317,11.2433 -8.70342,15.4883 -2.58026,4.245 -4.07916,8.84101 -4.35066,16.41807 -0.2715,7.57706 0.67842,18.21161 0.43614,25.63897 -0.24228,7.42736 -1.66628,11.65042 -2.503,16.63618 -0.83671,4.98577 -1.08271,10.72167 1.7083,14.26609 2.79101,3.54442 8.61028,4.8978 13.43098,8.12687 4.8207,3.22907 8.63195,8.31899 16.62693,11.46879 7.99498,3.14979 20.16814,4.3561 30.13137,4.75598 9.96324,0.39988 17.71896,-0.006 19.58853,1.30612 1.86957,1.31254 -2.16719,4.36179 -9.45935,6.63281 -7.29217,2.27102 -17.85281,3.77269 -28.74699,2.64463 -10.89417,-1.12805 -22.16633,-4.9019 -30.5918,-7.44391 -8.42548,-2.542 -14.02583,-3.85909 -20.7559,-3.33891 -6.73007,0.52018 -14.70093,2.91271 -19.51979,3.37532 -4.81886,0.4626 -6.54099,-0.98891 -9.07795,-21.736 -2.53695,-20.74709 -5.88487,-60.78762 -8.30972,-89.33265 -2.42484,-28.54504 -3.92648,-45.5926 -3.62016,-58.42105 0.30631,-12.82846 2.42554,-21.45335 1.26729,-31.84094 -1.15824,-10.38759 -5.58535,-22.52555 -10.37889,-28.7309 -4.79354,-6.20536 -9.95079,-6.46389 -24.06403,-7.41657 -14.11325,-0.95268 -37.25129,-2.60447 -55.09607,-4.23841 -17.84478,-1.63395 -30.43021,-3.2526 -35.31747,-4.49625 -4.88726,-1.24366 -2.07447,-2.11147 -0.66904,-2.54508 1.40544,-0.43361 1.40747,-0.43361 1.42231,-3.95262 z"
       id="path959-3"
       inkscape:path-effect="#path-effect961-5"
       inkscape:original-d="m 374.12795,455.7082 c 0.0296,-7.03802 0.0692,-14.04981 0.0891,-21.12232 5.33583,0.79346 10.62517,1.57809 15.93374,2.36324 10.37919,1.08578 20.82912,2.243 31.23974,3.36056 14.98276,-0.5884 29.91302,-1.22851 44.86559,-1.84644 10.89609,-1.28985 21.76454,-2.55751 32.64291,-3.84051 7.90501,1.89837 15.80713,3.79385 23.70668,5.68695 7.5604,5.1477 15.14245,10.3175 22.70977,15.47243 3.42457,5.87431 6.84636,11.7701 10.26558,17.65122 -1.01913,5.99722 -2.04071,11.99148 -3.06487,17.98347 -1.43756,2.82149 -2.90235,5.6403 -4.35731,8.45647 -0.9579,3.01832 -1.89302,6.03397 -2.8434,9.04695 0.24873,5.52967 0.49531,11.05646 0.73898,16.58058 3.52303,2.56275 7.06787,5.17237 10.59783,7.75454 2.98147,9.0747 5.91083,18.09708 8.8624,27.14167 -1.16671,10.62546 -2.38534,21.24784 -3.58187,31.86816 -3.65319,3.95374 -7.3581,7.90501 -11.04101,11.8535 -1.46211,4.54491 -2.97612,9.136 -4.46806,13.70015 0.95098,10.5885 1.89818,21.22329 2.84329,31.83121 -1.42516,4.24935 -2.85299,8.47112 -4.28339,12.70294 -0.24375,5.73877 -0.48936,11.47469 -0.73801,17.20801 5.82477,1.36892 11.64676,2.71057 17.46618,4.06211 3.83071,5.09858 7.634,10.19447 11.44717,15.28768 12.17621,1.20901 24.34938,2.41517 36.52017,3.61901 7.75731,-0.37938 15.51174,-0.81028 23.2636,-1.2187 -4.0224,3.01853 -8.04735,6.0834 -12.07491,9.12103 -10.5586,1.50442 -21.11926,3.00595 -31.68281,4.50513 -11.22329,-3.76385 -22.49787,-7.53047 -33.75078,-11.29956 -5.59793,-1.31471 -11.19831,-2.63171 -16.80148,-3.95138 -7.85054,2.37822 -15.82647,4.75386 -23.74366,7.1269 -1.73293,-1.43734 -3.44377,-2.90224 -5.16969,-4.3573 -3.34541,-40.03953 -6.69332,-80.08006 -10.04397,-120.12436 -1.49907,-17.04578 -3.00071,-34.09334 -4.50502,-51.14415 2.13205,-8.60159 4.23684,-17.23003 6.35136,-25.84894 -4.42862,-12.159 -8.85973,-24.2955 -13.29351,-36.44728 -5.15483,-0.25659 -10.31213,-0.5141 -15.47212,-0.77562 -23.0646,-1.67131 -46.20457,-3.29608 -69.31087,-4.94801 -12.58337,-1.61614 -25.16881,-3.23476 -37.75722,-4.85607 2.81525,-0.86477 5.62793,-1.73293 8.43784,-2.60327 z"
       sodipodi:nodetypes="sccccccccccccccccccccccccccccccccccccss" />
    <path
       style="fill:#0d0d6d;fill-opacity:1;stroke:#000000;stroke-width:2.62093px;stroke-linecap:butt;stroke-linejoin:miter;stroke-opacity:1"
       d="m 235.55568,519.39543 c -0.24611,-5.11914 -0.73848,-15.36047 -0.62219,-25.1034 0.11629,-9.74293 0.84344,-19.01149 1.16339,-26.36582 0.31995,-7.35433 0.23419,-12.75821 -2.16485,-15.45559 -2.39905,-2.69737 -7.16229,-2.66058 -9.09625,-3.31282 -1.93397,-0.65224 -1.06008,-1.99384 7.16639,-5.82516 8.22647,-3.83133 23.77814,-10.14077 36.55408,-17.7322 12.77593,-7.59143 22.76456,-16.46009 29.88248,-22.03623 7.11793,-5.57615 11.36459,-7.85957 20.71429,-5.22731 9.3497,2.63226 23.79991,10.17758 34.45131,16.56639 10.65141,6.38881 17.53554,11.6445 20.3926,17.94819 2.85706,6.30369 1.70613,13.66714 -2.67404,20.30931 -4.38017,6.64218 -6.50615,8.29685 -15.34533,15.36923 -8.83918,7.07238 -21.72972,17.49316 -32.69685,25.64767 -10.96712,8.1545 -20.05071,14.07498 -28.12209,17.99301 -8.07137,3.91803 -15.16649,5.84299 -22.73633,7.57249 -7.56984,1.72949 -15.63199,3.26815 -21.81686,4.03108 -6.18486,0.76294 -10.49289,0.74974 -12.64826,0.74313 -2.15538,-0.007 -2.15538,-0.003 -2.40149,-5.12197 z"
       id="path963-9"
       inkscape:path-effect="#path-effect965-0"
       inkscape:original-d="m 235.80179,524.51457 c -0.48935,-10.23842 -0.98167,-20.47975 -1.47708,-30.72344 0.7291,-9.24171 1.45509,-18.51036 2.1786,-27.76928 -0.0694,-5.45024 -0.16931,-10.8539 -0.25842,-16.285 -4.71173,0.0595 -9.4751,0.0791 -14.21666,0.10982 0.87668,-1.33909 1.75047,-2.68075 2.6218,-4.02498 15.57991,-6.31718 31.13157,-12.62664 46.69343,-18.94393 9.99119,-8.86597 19.97981,-17.73464 29.96573,-26.60585 4.24914,-2.28074 8.49581,-4.56415 12.73958,-6.85003 14.45341,7.5483 28.90373,15.09342 43.35158,22.63647 6.88342,5.19703 13.73929,10.48975 20.60496,15.73086 -1.14839,7.36642 -2.29935,14.72986 -3.4529,22.09105 -8.26279,5.08359 -9.73342,7.58027 -14.60406,11.3665 -12.81111,10.35424 -25.69817,20.77932 -38.55118,31.16496 -9.08152,5.92363 -18.16513,11.84409 -27.25173,17.76206 -7.06269,1.89837 -14.15245,3.8431 -21.23259,5.76058 -8.05982,1.54134 -16.12195,3.08014 -24.18683,4.61604 -4.30549,0 -8.61347,-0.0296 -12.92423,-0.0396 z"
       sodipodi:nodetypes="ccccccccccccccccccc" />
    <path
       style="fill:#0c0811;fill-opacity:1;stroke:#000000;stroke-width:2.62093px;stroke-linecap:butt;stroke-linejoin:miter;stroke-opacity:1"
       d="m 402.78452,178.08177 c -1.0524,-0.6462 -2.1017,-1.2905 3.34759,-3.58129 5.44928,-2.29079 17.40018,-6.22322 25.37668,-5.19361 7.9765,1.02962 11.97544,7.01584 18.65306,16.37077 6.67762,9.35493 16.01872,22.05782 24.25241,34.07939 8.23369,12.02157 15.33559,23.32608 20.40246,33.08096 5.06686,9.75487 8.09487,17.9528 8.18945,27.10997 0.0946,9.15716 -2.74265,19.27542 -6.6813,27.91382 -3.93864,8.63839 -8.96708,15.78161 -11.84714,32.40565 -2.88007,16.62404 -3.60629,42.71994 -4.1174,59.58317 -0.51111,16.86324 -0.80618,24.47067 -2.36916,29.20827 -1.56298,4.7376 -4.39382,6.59614 -13.26749,7.7716 -8.87366,1.17547 -23.81671,1.66817 -38.95035,1.55663 -15.13364,-0.11154 -30.39633,-0.82366 -40.32323,-1.92489 -9.92689,-1.10124 -14.48103,-2.59068 -22.09159,-7.82958 -7.61055,-5.23889 -18.2382,-14.19579 -27.04158,-20.4565 -8.80338,-6.26071 -15.85082,-9.85263 -21.93226,-10.61682 -6.08143,-0.76419 -11.23872,1.27917 -18.05489,5.92922 -6.81617,4.65006 -15.30398,11.91844 -24.80917,18.61978 -9.50519,6.70134 -19.99839,12.82037 -29.29493,17.22206 -9.29653,4.40169 -17.3635,7.07028 -23.38775,5.92176 -6.02426,-1.14851 -10.00106,-6.1227 -11.14542,-10.39116 -1.14436,-4.26847 0.58761,-7.91926 8.64487,-12.23443 8.05727,-4.31518 22.45823,-9.33723 34.02193,-15.5982 11.56371,-6.26097 20.33933,-13.80251 28.90311,-21.86788 8.56378,-8.06538 16.95217,-16.68797 23.4828,-21.80885 6.53064,-5.12089 11.2079,-6.74566 13.96426,-16.4439 2.75637,-9.69825 3.59333,-27.47208 3.77297,-39.3868 0.17965,-11.91473 -0.3024,-18.02082 19.07383,-30.72922 19.37623,-12.70841 58.57627,-32.02585 76.50394,-46.7643 17.92766,-14.73844 14.56744,-24.89317 9.96168,-32.67592 -4.60577,-7.78275 -10.45855,-13.19258 -14.53879,-16.00939 -4.08024,-2.81682 -6.39107,-3.03866 -8.69898,-3.26023 0,0 3.9e-4,-8e-5 3.9e-4,-8e-5 z"
       id="path967-0"
       inkscape:path-effect="#path-effect969-5"
       inkscape:original-d="m 402.78452,178.08177 c 0,0 -2.10215,-1.28976 -3.1572,-1.9386 11.9551,-3.93035 23.90599,-7.8628 35.85547,-11.79822 4.00316,5.9911 8.00208,11.97734 12.0011,17.96505 9.35601,12.72225 18.69707,25.42517 28.05093,38.14622 7.11382,11.32194 14.21574,22.62645 21.31966,33.93574 3.03051,8.20038 6.05855,16.3983 9.0839,24.59347 -2.83457,10.12055 -5.67171,20.23883 -8.51154,30.35423 -5.03181,7.16671 -10.06597,14.3059 -15.10293,21.45469 -0.67458,26.09856 -1.44983,52.19309 -2.1786,78.28582 -0.28034,7.63428 -0.5884,15.24121 -0.88659,22.85796 -2.82851,1.86141 -5.65941,3.71987 -8.49311,5.57601 -14.9159,0.48244 -29.85854,0.98762 -44.79168,1.47687 -15.33444,-0.71124 -30.59704,-1.42526 -45.89947,-2.14154 -4.55178,-1.48688 -9.10592,-2.97633 -13.66281,-4.46846 -10.65696,-8.99526 -21.29153,-17.94394 -31.94128,-26.91986 -6.93966,-3.57941 -14.00484,-7.13652 -21.0111,-10.70888 -5.15483,2.04588 -10.31215,4.08916 -15.47212,6.13016 -8.46606,7.26489 -16.95899,14.52729 -25.44231,21.78705 -10.53393,6.13244 -21.02081,12.26231 -31.53512,18.3895 -8.0844,2.66151 -16.1465,5.34482 -24.22368,8.01328 -3.98555,-4.9581 -7.9489,-9.94304 -11.9273,-14.91868 1.67667,-3.56712 3.42447,-7.2104 5.13284,-10.81943 14.40417,-5.01962 28.80516,-10.04159 43.20379,-15.06647 8.75442,-7.46915 17.50578,-15.03893 26.25467,-22.56256 8.38505,-8.60139 16.76722,-17.23003 25.14693,-25.84906 4.68002,-1.62207 9.35721,-3.24705 14.03199,-4.87439 0.84001,-17.77206 1.67659,-35.54591 2.51096,-53.32295 -0.46459,-6.05358 -0.95792,-12.15878 -1.44012,-18.24189 39.24389,-19.31087 78.43429,-38.64787 117.64747,-57.97567 -3.35779,-10.15274 -6.71798,-20.30748 -10.08093,-30.46499 -5.85032,-5.40733 -11.70303,-10.81723 -17.55849,-16.22962 -2.30521,-0.21885 -6.92372,-0.6647 -6.92372,-0.6647 z"
       sodipodi:nodetypes="sccccccccccccccccccccccccccccccsss" />
    <path
       style="fill:#224986;fill-opacity:1;stroke:#000000;stroke-width:2.62093px;stroke-linecap:butt;stroke-linejoin:miter;stroke-opacity:1"
       d="m 301.16436,351.46454 c 2.08925,-2.53852 6.26825,-7.6162 9.40383,-15.99472 3.13557,-8.37852 5.22802,-20.05957 4.68717,-30.44186 -0.54085,-10.38228 -3.71646,-19.46618 -4.63416,-29.69559 -0.91769,-10.22941 0.42394,-21.60278 3.51444,-31.98866 3.09051,-10.38588 7.95025,-19.82192 15.27077,-28.54056 7.32053,-8.71863 17.12546,-16.74997 28.29452,-23.38303 11.16906,-6.63305 23.66588,-11.85558 35.36173,-12.49871 11.69585,-0.64312 22.61062,3.31593 30.17588,9.37166 7.56526,6.05573 11.8196,14.24397 13.56653,23.89405 1.74692,9.65007 0.9961,20.7773 -0.025,32.90862 -1.02113,12.13133 -2.31461,25.28819 -2.72744,35.73349 -0.41282,10.44529 0.0563,18.2352 4.50722,26.56843 4.45091,8.33323 12.8823,17.2326 25.27153,24.00789 12.38922,6.7753 28.73493,11.42806 42.43473,15.26236 13.6998,3.8343 24.75281,6.84994 35.94781,11.86649 11.19499,5.01655 22.53109,12.0325 31.08536,17.32375 8.55427,5.29124 14.37703,8.88886 16.17233,13.08588 1.7953,4.19702 -0.40798,9.00985 -4.76617,12.50542 -4.35819,3.49557 -10.86568,5.67298 -17.11922,7.72047 -6.25355,2.04749 -12.19724,3.9471 -16.96224,6.99355 -4.76499,3.04645 -8.34569,7.25687 -11.96407,10.47538 -3.61838,3.21851 -7.28626,5.45872 -11.01108,5.57535 -3.72482,0.11663 -7.49849,-1.88706 -10.23897,-5.07036 -2.74048,-3.1833 -4.43743,-7.53645 -3.73448,-10.60053 0.70295,-3.06409 3.82631,-4.84191 3.30741,-8.02658 -0.5189,-3.18467 -4.61219,-7.71789 -9.1861,-11.39622 -4.5739,-3.67834 -9.61756,-6.47772 -27.97153,-10.60719 -18.35397,-4.12947 -50.04608,-9.59622 -69.13665,-12.49456 -19.09057,-2.89833 -25.63984,-3.23208 -30.57878,-6.31701 -4.93894,-3.08492 -8.25711,-8.86422 -9.88275,-19.38251 -1.62564,-10.5183 -1.53934,-25.7693 -0.71104,-38.25443 0.8283,-12.48513 2.40869,-22.2763 4.08778,-32.18533 1.67909,-9.90904 3.46595,-19.98959 3.06195,-22.08773 -0.404,-2.09814 -3.00571,3.79591 -5.76903,12.56037 -2.76333,8.76445 -5.69281,20.40875 -9.87277,24.00375 -4.17996,3.595 -9.67642,-0.91122 -14.34367,-4.54928 -4.66725,-3.63807 -8.60146,-6.48023 -11.68038,-6.14246 -3.07892,0.33778 -5.33137,3.83352 -6.30962,11.37377 -0.97826,7.54024 -0.68273,19.12323 -1.53184,29.10862 -0.84911,9.98539 -2.86861,18.48484 -9.44645,26.60351 -6.57783,8.11866 -17.72755,15.91398 -21.59609,16.73624 -3.86854,0.82227 -0.4545,-5.33011 1.25272,-8.40665 1.70722,-3.07655 1.7066,-3.07655 3.79585,-5.61508 z"
       id="path971-7"
       inkscape:path-effect="#path-effect973-7"
       inkscape:original-d="m 299.07511,354.00307 c 4.18138,-5.07468 8.36039,-10.15235 12.53651,-15.2324 2.09509,-11.67884 4.18762,-23.35988 6.27748,-35.04398 -3.17307,-9.08154 -6.3487,-18.16544 -9.527,-27.25222 1.34433,-11.37117 2.68599,-22.74453 4.02495,-34.12068 4.82784,-9.40176 9.70194,-18.8304 14.54899,-28.24943 9.78833,-8.02298 19.59823,-16.04825 29.39337,-24.07647 12.54563,-5.22874 25.03874,-10.46015 37.55415,-15.69421 10.87154,3.95402 21.78923,7.905 32.67987,11.85378 4.21229,8.17593 8.49568,16.34908 12.73958,24.51959 -0.74791,11.13035 -1.49897,22.25756 -2.25251,33.38238 -1.30213,13.1366 -2.58217,26.29479 -3.87726,39.43823 0.49528,7.74513 0.93809,15.53662 1.40325,23.30085 8.43428,8.90235 16.8657,17.80168 25.29452,26.69848 16.34908,4.65556 32.6948,9.30827 49.03825,13.9586 11.05618,3.01822 22.10919,6.03389 33.15989,9.04715 11.33929,7.01892 22.67539,14.03488 34.00923,21.04845 5.78781,3.5477 11.59753,7.16642 17.39229,10.74591 -2.20069,4.81537 -4.40388,9.62824 -6.60981,14.43845 -6.50889,2.19367 -13.02013,4.35987 -19.53404,6.53611 -5.99188,1.92293 -11.9369,3.81841 -17.90927,5.72383 -3.55473,4.18771 -7.1365,8.39722 -10.70867,12.59197 -3.66549,2.243 -7.33343,4.48311 -11.00405,6.72087 -3.77635,-2.01597 -7.55503,-4.01022 -11.33641,-6.01924 -1.70838,-4.35492 -3.39467,-8.71223 -5.09581,-13.0721 3.10442,-1.77 6.23083,-3.54246 9.34235,-5.31769 -4.13324,-4.61337 -8.24428,-9.13056 -12.37037,-13.69987 -5.01943,-2.79158 -10.06599,-5.58574 -15.10293,-8.38256 -31.66847,-5.4748 -63.36297,-10.92768 -95.04848,-16.39545 -6.49659,-0.3051 -13.04469,-0.66171 -19.57097,-0.99732 -3.38237,-5.81952 -6.66876,-11.61706 -10.00705,-17.42943 0.0396,-15.22399 0.17534,-30.47471 0.25869,-45.71592 1.61515,-9.72184 3.15372,-19.51976 4.72659,-29.28322 1.7874,-10.05419 3.57215,-20.13512 5.35434,-30.20654 -2.59457,5.87399 -5.19168,11.77007 -7.79149,17.65122 -2.92691,11.64714 -5.85638,23.29144 -8.78852,34.93313 -5.45021,-4.42891 -10.9276,-8.95838 -16.39524,-13.44149 -3.85013,-2.81614 -7.80119,-5.63498 -11.7057,-8.45647 -2.24994,3.49847 -4.50234,6.99425 -6.7575,10.48746 0.28529,11.58556 0.59335,23.16823 0.88656,34.74831 -2.01605,8.38544 -4.01001,16.89096 -6.01901,25.33215 -11.1477,7.79844 -22.29748,15.59367 -33.45013,23.38663 3.41662,-6.14966 6.83071,-12.30201 10.24198,-18.45686 z"
       sodipodi:nodetypes="sccccccccccccccccccccccccccccccccccccccccss" />
    <path
       style="fill:#0f1d1b;fill-opacity:1;stroke:#000000;stroke-width:2.62093px;stroke-linecap:butt;stroke-linejoin:miter;stroke-opacity:1"
       d="m 548.13137,420.15358 c 0.15403,1.43547 0.46176,4.30336 -0.28516,6.33227 -0.74692,2.02891 -2.5145,3.1992 -3.75993,5.00044 -1.24543,1.80124 -1.96832,4.28164 -2.35575,7.02086 -0.38744,2.73922 -0.44886,5.76713 0.85688,9.71256 1.30574,3.94543 3.97659,8.80727 7.19322,12.06708 3.21662,3.25981 6.98885,4.92413 9.4549,4.54238 2.46605,-0.38175 3.63539,-2.80659 6.66155,-4.85397 3.02617,-2.04738 7.86919,-3.70265 11.00409,-5.53824 3.13489,-1.83558 4.55615,-3.86242 7.10452,-4.76084 2.54837,-0.89842 6.20637,-0.67746 7.87335,-2.81813 1.66698,-2.14066 1.33376,-6.67003 2.34084,-10.64413 1.00707,-3.9741 3.36196,-7.41401 5.71993,-12.05023 2.35797,-4.63622 4.71948,-10.4664 5.42781,-15.60453 0.70833,-5.13813 -0.23947,-9.58174 -2.54631,-11.9461 -2.30684,-2.36437 -5.9994,-2.64862 -9.29988,-1.2272 -3.30049,1.42142 -6.24173,4.57285 -11.08157,7.66293 -4.83984,3.09008 -11.52958,6.1042 -16.20009,7.71156 -4.6705,1.60735 -7.24319,1.7902 -9.94599,2.87949 -2.7028,1.08929 -5.50912,3.08331 -6.91254,4.08052 -1.40343,0.9972 -1.4039,0.9978 -1.24987,2.43328 z"
       id="path975-54"
       inkscape:path-effect="#path-effect977-4"
       inkscape:original-d="m 547.97734,418.7181 c 0.31006,2.87074 0.61812,5.73859 0.92323,8.60406 -1.80675,1.18435 -3.56691,2.36584 -5.35434,3.54503 -0.72314,2.41516 -1.42516,4.90165 -2.14167,7.3486 -0.0595,3.03062 -0.12083,6.05853 -0.18425,9.0839 2.67369,4.86498 5.34461,9.72679 8.01296,14.58624 3.75692,1.67667 7.53563,3.32631 11.29945,4.98534 1.17208,-2.4223 2.34136,-4.84716 3.5081,-7.2747 4.86469,-1.72064 9.7265,-3.32096 14.58582,-4.98523 1.41824,-2.00378 2.8337,-4.03469 4.24657,-6.05598 3.68302,0.18635 7.3387,0.44577 11.00407,0.66469 -0.32987,-4.50282 -0.66173,-9.03229 -0.99703,-13.55236 2.34136,-3.43159 4.70461,-6.86577 7.05299,-10.30263 2.37821,-5.83211 4.72917,-11.66657 7.08984,-17.50363 -0.945,-4.44091 -1.89292,-8.8845 -2.84337,-13.33065 -3.66538,-0.28034 -7.35801,-0.56364 -11.04093,-0.84992 -2.91461,3.12937 -5.85635,6.28034 -8.78849,9.41655 -6.75504,3.0308 -13.43856,6.05874 -20.16178,9.08408 -2.61923,0.18635 -5.19168,0.37246 -7.79149,0.55375 -2.80385,1.99692 -5.61019,3.9909 -8.41921,5.98226 z" />
    <path
       style="fill:#0d0d6d;fill-opacity:1;stroke:#000000;stroke-width:2.62093px;stroke-linecap:butt;stroke-linejoin:miter;stroke-opacity:1"
       d="m 257.23116,363.90054 c 1.67376,-5.48295 5.02172,-16.45029 9.22253,-28.05772 4.20081,-11.60743 9.26493,-23.87987 13.74391,-35.62538 4.47897,-11.7455 8.4084,-23.06451 11.82701,-32.8779 3.4186,-9.8134 6.35453,-18.20198 11.71466,-28.1815 5.36013,-9.97951 13.17706,-21.60653 21.63477,-30.75344 8.4577,-9.14692 17.5639,-15.82903 26.59616,-21.15159 9.03226,-5.32255 17.99861,-9.28856 27.65001,-10.9671 9.6514,-1.67854 19.99148,-1.07278 21.03284,-0.26002 1.04136,0.81275 -7.19709,1.83062 -16.10844,4.36176 -8.91135,2.53115 -18.5145,6.58702 -27.13198,11.64072 -8.61748,5.05371 -16.2595,11.10841 -22.34377,17.48077 -6.08426,6.37237 -10.6195,13.07682 -14.7031,20.46956 -4.08359,7.39273 -7.70845,15.45353 -9.13587,24.48308 -1.42742,9.02955 -0.65195,19.01219 1.05641,28.25316 1.70837,9.24097 4.36062,17.77779 3.57201,27.45194 -0.78862,9.67415 -5.01034,20.50566 -8.09461,28.59262 -3.08427,8.08696 -4.81004,12.82271 -7.88082,17.11273 -3.07077,4.29003 -7.40095,7.85296 -12.61162,9.82649 -5.21067,1.97354 -11.3158,2.36741 -16.75016,2.71821 -5.43437,0.35081 -10.19773,0.65854 -12.58071,0.81249 -2.38298,0.15395 -2.38298,0.15406 -0.70923,-5.32888 z"
       id="path979-5"
       inkscape:path-effect="#path-effect981-6"
       inkscape:original-d="m 255.55741,369.38348 c 3.35058,-10.96495 6.69859,-21.93228 10.0439,-32.90215 5.02477,-12.25767 10.12045,-24.51709 15.17681,-36.77961 3.91691,-11.22337 7.83101,-22.5477 11.74255,-33.82527 2.90759,-8.35554 5.86162,-16.73779 8.78852,-25.11066 7.81883,-11.56802 15.61011,-23.21228 23.4113,-34.82229 9.12363,-6.66895 18.21964,-13.36494 27.32553,-20.05142 8.95125,-3.97336 17.92421,-7.92442 26.88241,-11.89066 10.34305,0.60822 20.68313,1.21397 31.02081,1.81733 -8.25765,0.99703 -16.49292,2.04064 -24.74333,3.05706 -9.57386,4.04012 -19.17445,8.10205 -28.76563,12.14911 -7.65361,6.04645 -15.2849,12.1147 -22.93138,18.1683 -4.52698,6.68648 -9.05656,13.39476 -13.58881,20.08837 -3.66546,8.07746 -7.25963,16.15206 -10.89332,24.22407 0.7786,9.98545 1.55356,19.96812 2.32642,29.94812 2.6613,8.49597 5.29539,17.03844 7.93908,25.55354 -4.21932,10.83498 -8.44112,21.66646 -12.6657,32.49591 -2.07764,5.29567 -3.66973,10.08014 -5.50847,15.116 -4.31569,3.53124 -8.63386,7.10877 -12.95473,10.65932 -6.10262,0.39626 -12.20772,0.7905 -18.31549,1.1816 -4.76099,0.31006 -9.52433,0.61812 -14.29047,0.92322 z" />
    <path
       style="fill:#122e55;fill-opacity:1;stroke:#000000;stroke-width:2.62093px;stroke-linecap:butt;stroke-linejoin:miter;stroke-opacity:1"
       d="m 298.0144,358.27113 c -11.71401,2.95702 -35.14374,8.87149 -50.11269,12.58064 -14.96894,3.70916 -21.45888,5.20875 -26.27093,8.09708 -4.81206,2.88833 -7.96671,7.20599 -9.48045,12.19843 -1.51374,4.99243 -1.40279,10.67922 -0.97169,16.15086 0.4311,5.47164 1.18194,10.72735 3.24023,12.53376 2.05829,1.80641 5.46304,0.1473 12.73518,-2.90436 7.27213,-3.05166 18.44121,-7.50952 27.59832,-13.153 9.15712,-5.64348 16.30838,-12.47489 25.137,-20.74977 8.82861,-8.27489 19.33407,-17.99276 24.58681,-22.85171 5.25274,-4.85895 5.25224,-4.85895 -6.46178,-1.90193 z"
       id="path983-9"
       inkscape:path-effect="#path-effect985-5"
       inkscape:original-d="m 309.72842,355.31411 c -23.42726,5.91711 -46.85698,11.83161 -70.28937,17.74345 -6.50888,1.49212 -12.99546,3.00624 -19.49719,4.5051 -3.12384,4.27401 -6.27481,8.59436 -9.41626,12.88769 0.10117,5.68955 0.22383,11.37611 0.33283,17.06043 0.75386,5.25864 1.50431,10.5144 2.25262,15.7678 3.36295,-1.64676 6.77247,-3.29608 10.15473,-4.9483 11.16167,-4.45121 22.33076,-8.90905 33.49223,-13.3676 7.15405,-6.82893 14.3053,-13.66035 21.45419,-20.49462 10.50827,-9.71549 21.01379,-19.43329 31.51672,-29.15395 z"
       sodipodi:nodetypes="cccccccccc" />
    <path
       style="fill:#122e55;fill-opacity:1;stroke:#000000;stroke-width:2.62094px;stroke-linecap:butt;stroke-linejoin:miter;stroke-opacity:1"
       d="m 475.53476,220.45616 c -2.71373,2.69126 -2.31981,3.71297 1.76819,9.22064 4.08799,5.50767 11.88987,15.52839 17.3156,22.71629 5.42574,7.18789 8.47073,11.53456 12.78876,12.61067 4.31803,1.07612 9.91028,-1.12882 21.91762,-6.11413 12.00735,-4.9853 30.43319,-12.75227 41.85918,-18.08266 11.42599,-5.33039 15.8866,-8.24657 22.85421,-15.36004 6.96762,-7.11348 16.50448,-18.48892 23.34288,-26.52695 6.8384,-8.03804 11.02174,-12.78923 10.42181,-16.82854 -0.59993,-4.03931 -5.95751,-7.36947 -13.70831,-13.50204 -7.7508,-6.13256 -17.93564,-15.10664 -25.18066,-17.65591 -7.24501,-2.54928 -11.57272,1.30668 -19.53936,6.85039 -7.96664,5.54371 -19.61182,12.79982 -28.64646,18.42817 -9.03465,5.62836 -15.4656,9.63323 -23.52224,14.84723 -8.05664,5.214 -17.67541,11.59602 -25.40552,16.97217 -7.7301,5.37614 -13.55198,9.73344 -16.2657,12.42471 z"
       id="path987-0"
       inkscape:path-effect="#path-effect989-8"
       inkscape:original-d="m 472.42594,222.12269 c 0.39624,1.02429 0.7905,2.04587 1.18168,3.06489 7.78198,9.99793 15.58555,20.01734 23.37444,30.02211 3.04291,4.38482 6.10778,8.71757 9.15771,13.07249 5.59101,-2.18851 11.179,-4.40424 16.76455,-6.61 18.42932,-7.76462 36.85517,-15.53156 55.27886,-23.30145 4.42151,-2.90242 8.88955,-5.80723 13.33039,-8.7149 9.49289,-11.32194 19.032,-22.69549 28.54413,-34.04707 4.15078,-4.73661 8.348,-9.47558 12.51798,-14.21714 -5.37643,-3.33333 -10.73055,-6.66905 -16.09985,-10.00733 -10.13207,-8.9273 -20.31692,-17.90136 -30.47925,-26.85589 -4.32512,3.85854 -8.65281,7.71452 -12.98307,11.56782 -11.60359,7.23438 -23.24874,14.49054 -34.87699,21.73185 -6.44101,4.01545 -12.87202,8.02022 -19.33098,12.03835 -9.65418,6.40991 -19.27299,12.79187 -28.91342,19.18396 -5.81953,4.36019 -11.64141,8.71749 -17.46618,13.07231 z"
       sodipodi:nodetypes="cccccccccccccccc" />
    <path
       style="fill:#1ebef1;fill-opacity:1;stroke:#000000;stroke-width:2.62093px;stroke-linecap:butt;stroke-linejoin:miter;stroke-opacity:1"
       d="m 475.53482,220.45672 c -8.14854,-10.13832 -16.2992,-20.27927 -22.17646,-28.35051 -5.87727,-8.07124 -9.48687,-14.08335 -10.86737,-19.37857 -1.3805,-5.29522 -0.52957,-9.89534 6.27108,-16.93401 6.80064,-7.03867 19.60245,-16.56011 30.7501,-24.34911 11.14764,-7.789 20.68316,-13.87511 29.39385,-18.01761 8.71068,-4.1425 16.59722,-6.34489 25.82389,-8.10436 9.22666,-1.75947 19.81029,-3.07784 27.78976,-4.78074 7.97947,-1.702899 13.39524,-3.802677 14.59039,-0.577085 1.19515,3.225595 -1.81749,11.743845 -1.79537,19.207285 0.0221,7.46345 3.09156,13.87362 6.27391,18.79695 3.18236,4.92334 6.48109,8.36982 6.22758,10.72357 -0.25351,2.35376 -4.08022,3.62527 -11.13844,6.83433 -7.05822,3.20905 -17.33826,8.34922 -26.96875,13.94897 -9.63048,5.59976 -18.60646,11.65773 -28.65865,17.72724 -10.05218,6.0695 -21.17484,12.14773 -28.66616,17.37995 -7.49133,5.23222 -12.44534,10.86568 -16.84936,15.8737 0,0 0,0 0,0 0,0 0,0 0,0"
       id="path991-8"
       inkscape:path-effect="#path-effect993-5"
       inkscape:original-d="m 475.53482,220.45672 c -8.1482,-10.13859 -16.29886,-20.27954 -24.45233,-30.4233 -3.59157,-6.00435 -7.2103,-12.01098 -10.8193,-18.0205 0.80237,-4.58881 1.70112,-9.18009 2.54789,-13.77385 12.76702,-9.46342 25.55564,-19.0026 38.32958,-28.50789 9.51748,-6.07827 19.05656,-12.15881 28.58098,-18.242 7.89274,-2.21309 15.78249,-4.40398 23.66986,-6.61003 10.56375,-1.32668 21.14908,-2.63139 31.71966,-3.95124 5.38922,-2.085789 10.80496,-4.185657 16.21806,-6.287987 -3.02092,8.551487 -6.0335,17.069757 -9.05431,25.601107 3.04301,6.40347 6.13246,12.80406 9.19466,19.202 3.30154,3.44912 6.60019,6.89568 9.89628,10.33956 -3.80088,1.27063 -7.62883,2.5384 -11.44714,3.80358 -10.30007,5.14799 -20.57773,10.29291 -30.87045,15.43566 -8.98297,6.03418 -17.94364,12.11483 -26.91937,18.16811 -11.13701,6.07114 -22.25164,12.16405 -33.38139,18.242 -4.44101,3.86766 -8.80584,10.01924 -13.21268,15.02478 0,0 0.003,0.003 0,0 0,0 0.003,0.003 0,0"
       sodipodi:nodetypes="ccccccccccccccccccc" />
    <path
       style="fill:#0981df;fill-opacity:1;stroke:#000000;stroke-width:2.62093px;stroke-linecap:butt;stroke-linejoin:miter;stroke-opacity:1"
       d="m 581.32913,94.639998 c -2.83884,-1.92076 -3.30655,-0.788282 -4.26531,0.985915 -0.95875,1.774198 -2.38913,4.158179 -2.57959,9.063597 -0.19047,4.90543 0.86833,12.31706 2.62807,19.09738 1.75974,6.78033 4.22318,12.93908 7.4763,17.86551 3.25312,4.92642 7.30934,8.63752 13.10078,13.09937 5.79144,4.46184 13.32431,9.68082 19.1614,14.18929 5.83709,4.50846 9.99175,8.31801 12.66677,8.27622 2.67502,-0.0418 3.8824,-3.93497 2.35704,-10.37808 -1.52537,-6.44311 -5.78408,-15.44075 -12.46044,-25.92911 -6.67636,-10.48836 -15.74951,-22.43867 -22.89461,-30.90762 -7.14511,-8.46895 -12.35157,-13.441712 -15.19041,-15.362472 z"
       id="path995-5"
       inkscape:path-effect="#path-effect997-4"
       inkscape:original-d="m 578.95863,91.585249 c -0.46558,1.135127 -0.93316,2.267659 -1.40317,3.397518 -1.47451,2.402874 -2.87768,4.803179 -4.32045,7.200813 1.04892,7.41276 2.11976,14.82267 3.17571,22.23022 2.45212,6.1571 4.92612,12.31163 7.38524,18.46349 4.04004,3.70779 8.10184,7.41279 12.1488,11.11513 7.53571,5.22169 15.06857,10.4407 22.59891,15.65715 4.13851,3.80615 8.29877,7.6096 12.4442,11.4105 1.19664,-3.88708 2.41514,-7.77681 3.61883,-11.66895 -4.25637,-8.99555 -8.51513,-17.99317 -12.77654,-26.99377 -9.0938,-11.97453 -18.16515,-23.92621 -27.25172,-35.89342 -5.20405,-4.97037 -10.41059,-9.943045 -15.61981,-14.918681 z" />
    <path
       style="fill:none;stroke:#000000;stroke-width:2.62093px;stroke-linecap:butt;stroke-linejoin:miter;stroke-opacity:1"
       d="m 496.72521,120.16712 c 3.63735,9.43261 7.26341,18.83595 12.70437,29.15721 5.44095,10.32126 12.69058,21.54679 20.26466,32.56052 7.57408,11.01372 15.48054,21.82679 24.51578,30.22107 9.03524,8.39428 19.20202,14.37633 29.36604,20.35675"
       id="path999-6"
       inkscape:path-effect="#path-effect1001-6"
       inkscape:original-d="m 496.72521,120.16712 c 3.60911,9.4435 7.26489,18.83538 10.89332,28.24926 7.2526,11.22882 14.50234,22.45428 21.74959,33.67768 7.89271,10.80999 15.80713,21.61724 23.70678,32.42199 10.16989,5.98496 20.33671,11.96693 30.50116,17.94662" />
  </g>
</svg>
