<?xml version="1.0" encoding="UTF-8" standalone="no"?>
<!-- Created with Inkscape (http://www.inkscape.org/) -->

<svg
   width="55.134369mm"
   height="55.095322mm"
   viewBox="0 0 55.134369 55.095322"
   version="1.1"
   id="svg5"
   xml:space="preserve"
   xmlns="http://www.w3.org/2000/svg"
   xmlns:svg="http://www.w3.org/2000/svg"><defs
     id="defs2" /><g
     id="layer1"
     transform="translate(-73.512804,-163.15153)"><path
       style="fill:#ff3119;fill-opacity:1;stroke:#ff3119;stroke-width:0.597009;stroke-opacity:0;paint-order:markers stroke fill"
       id="path1580-5"
       d="m 76.979775,195.16869 a 17.212601,17.212601 0 0 1 -15.502507,18.76359 17.212601,17.212601 0 0 1 -18.767441,-15.49784 17.212601,17.212601 0 0 1 15.493172,-18.7713 17.212601,17.212601 0 0 1 18.775147,15.48851"
       transform="rotate(-9.3557193)" /><path
       style="fill:#08dc15;fill-opacity:1;stroke:#ff3119;stroke-width:0.599161;stroke-opacity:0;paint-order:markers stroke fill"
       id="path1580-5-8"
       d="M 86.7621,213.20067 A 17.27475,17.27475 0 0 1 71.203619,232.032 17.27475,17.27475 0 0 1 52.368415,216.47821 17.27475,17.27475 0 0 1 67.917528,197.63913 17.27475,17.27475 0 0 1 86.760466,213.18356"
       transform="rotate(-9.3557193)" /><text
       xml:space="preserve"
       style="font-size:4.23333px;font-family:Arial;-inkscape-font-specification:'Arial, Normal';text-align:center;text-anchor:middle;white-space:pre;inline-size:60.8791;display:inline;fill:#ffffff;stroke:#ff3119;stroke-width:0.264999;stroke-opacity:0;paint-order:markers stroke fill"
       x="101.20312"
       y="184.01772"
       id="text902-1-7"
       transform="matrix(1.3947613,0.03325951,-0.00559331,2.4668187,-37.301846,-247.76382)"><tspan
         x="101.20312"
         y="184.01772"
         id="tspan1157"><tspan
           style="font-family:Shizuru;-inkscape-font-specification:'Shizuru, Normal'"
           id="tspan1155">Corporation</tspan></tspan></text><path
       style="fill:#2b38e5;fill-opacity:1;stroke:#ff3119;stroke-width:0.600243;stroke-opacity:0;paint-order:markers stroke fill"
       id="path1580-5-88"
       d="M 97.403432,194.76999 A 17.305824,17.305824 0 0 1 81.816964,213.6352 17.305824,17.305824 0 0 1 62.947878,198.05343 17.305824,17.305824 0 0 1 78.524962,179.18047 17.305824,17.305824 0 0 1 97.401795,194.75286"
       transform="rotate(-9.3557193)" /><text
       xml:space="preserve"
       style="font-size:4.23333px;font-family:Arial;-inkscape-font-specification:'Arial, Normal';text-align:center;text-anchor:middle;white-space:pre;inline-size:60.8791;display:inline;fill:#ffffff;stroke:#ff3119;stroke-width:0.264999;stroke-opacity:0;paint-order:markers stroke fill"
       x="101.20312"
       y="184.01772"
       id="text902-1"
       transform="matrix(1.5075945,0.77589352,-1.5595399,3.2400982,249.83306,-493.16487)"><tspan
         x="101.20312"
         y="184.01772"
         id="tspan1161"><tspan
           style="font-family:Shizuru;-inkscape-font-specification:'Shizuru, Normal'"
           id="tspan1159">Comedy</tspan></tspan></text><path
       style="fill:#ff48ff;fill-opacity:1;stroke:#ff3119;stroke-width:1.18555;stroke-opacity:0;paint-order:markers stroke fill"
       d="m 98.420902,168.90751 c -1.994589,2.19896 -3.377723,4.54163 -4.145336,7.57811 -0.824923,2.72611 -0.79415,6.01357 0.183097,9.26312 2.195311,-1.23129 3.618235,-1.81716 6.382687,-2.40385 2.93745,-0.40026 4.32564,-0.22366 6.69996,0.22988 -0.30384,-3.31813 -1.12507,-5.91778 -3.07075,-9.086 -1.72452,-2.30788 -3.51627,-4.23166 -6.049658,-5.58126 z"
       id="path8429-5" /><path
       style="fill:#fff21c;fill-opacity:1;stroke:#ff3119;stroke-width:1.18555;stroke-opacity:0;paint-order:markers stroke fill"
       d="m 86.290827,200.98503 c 2.829039,0.59613 5.521598,0.53883 8.542632,-0.28754 2.779045,-0.62377 5.663521,-2.42077 8.022271,-4.67887 -2.15235,-1.30494 -3.415636,-2.20751 -5.287003,-4.32514 -1.794228,-2.35999 -2.323765,-3.6553 -3.097622,-5.94534 -2.738822,1.89768 -4.544612,3.84442 -6.344835,7.09748 -1.160151,2.63711 -1.907585,5.26988 -1.835443,8.13941 z"
       id="path8429-5-0" /><path
       style="fill:#0be9ff;fill-opacity:1;stroke:#ff3119;stroke-width:1.18555;stroke-opacity:0;paint-order:markers stroke fill"
       d="m 120.0385,195.53031 c -0.88841,-2.75129 -2.21886,-5.08822 -4.43708,-7.2993 -1.92217,-2.10179 -4.92973,-3.7777 -8.06138,-4.70264 -0.063,2.51624 -0.20825,4.12341 -1.11612,6.79963 -1.15651,2.72971 -1.98815,3.87337 -3.59098,5.6828 3.06729,1.52035 5.15431,2.20452 9.35081,2.03183 3.01308,-0.27986 5.38723,-0.95776 7.86383,-2.50583 z"
       id="path8429-5-0-3" /><path
       style="fill:#ffffff;fill-opacity:1;stroke:#ff3119;stroke-width:1.01333;stroke-opacity:0;paint-order:markers stroke fill"
       d="m 94.462405,185.75208 c 1.873552,-1.0774 3.895802,-2.04818 6.632485,-2.50664 1.83734,-0.22291 3.83858,-0.29762 6.44343,0.28422 -0.0516,3.29365 -0.44611,5.06328 -0.96044,6.52543 -0.98743,2.57686 -2.28827,4.59588 -3.73041,5.96718 -1.96006,-0.91856 -3.542656,-2.07664 -5.292429,-4.31102 -1.697207,-2.1964 -2.500038,-4.01108 -3.092636,-5.95917 z"
       id="path12939" /><text
       xml:space="preserve"
       style="font-size:4.23333px;font-family:Arial;-inkscape-font-specification:'Arial, Normal';text-align:center;text-anchor:middle;white-space:pre;inline-size:60.8791;display:inline;fill:#ffffff;stroke:#ff3119;stroke-width:0.264999;stroke-opacity:0;paint-order:markers stroke fill"
       x="101.20312"
       y="184.01772"
       id="text902"
       transform="matrix(0.85126477,-1.3146484,2.7323959,1.7692886,-501.95224,-12.3808)"><tspan
         x="101.20312"
         y="184.01772"
         id="tspan1165"><tspan
           style="font-family:Shizuru;-inkscape-font-specification:'Shizuru, Normal';stroke-width:0.265"
           id="tspan1163">Custom</tspan></tspan></text></g></svg>
