<?xml version="1.0" encoding="UTF-8" standalone="no"?>
<!-- Created with Inkscape (http://www.inkscape.org/) -->

<svg
   width="63.999985mm"
   height="63.999985mm"
   viewBox="0 0 63.999985 63.999985"
   version="1.1"
   id="svg5"
   xml:space="preserve"
   inkscape:version="1.2.2 (732a01da63, 2022-12-09)"
   sodipodi:docname="elite_dealer.svg"
   xmlns:inkscape="http://www.inkscape.org/namespaces/inkscape"
   xmlns:sodipodi="http://sodipodi.sourceforge.net/DTD/sodipodi-0.dtd"
   xmlns:xlink="http://www.w3.org/1999/xlink"
   xmlns="http://www.w3.org/2000/svg"
   xmlns:svg="http://www.w3.org/2000/svg"><sodipodi:namedview
     id="namedview7"
     pagecolor="#ffffff"
     bordercolor="#000000"
     borderopacity="0.25"
     inkscape:showpageshadow="2"
     inkscape:pageopacity="0.0"
     inkscape:pagecheckerboard="0"
     inkscape:deskcolor="#d1d1d1"
     inkscape:document-units="mm"
     showgrid="false"
     inkscape:zoom="1.4142136"
     inkscape:cx="591.14127"
     inkscape:cy="746.35121"
     inkscape:window-width="1920"
     inkscape:window-height="991"
     inkscape:window-x="-9"
     inkscape:window-y="-9"
     inkscape:window-maximized="1"
     inkscape:current-layer="layer1" /><defs
     id="defs2"><linearGradient
       inkscape:collect="always"
       id="linearGradient102762"><stop
         style="stop-color:#ffffff;stop-opacity:1;"
         offset="0.69882351"
         id="stop102758" /><stop
         style="stop-color:#ffffff;stop-opacity:0;"
         offset="1"
         id="stop102760" /></linearGradient><radialGradient
       inkscape:collect="always"
       xlink:href="#linearGradient102762"
       id="radialGradient100232-3-6-9"
       cx="-188.39828"
       cy="34.424316"
       fx="-188.39828"
       fy="34.424316"
       r="16.999479"
       gradientTransform="matrix(1.8824107,0,0,1.8824107,105.55495,189.17331)"
       gradientUnits="userSpaceOnUse" /></defs><g
     inkscape:label="Layer 1"
     inkscape:groupmode="layer"
     id="layer1"
     transform="translate(-217.08797,-221.97404)"><circle
       style="mix-blend-mode:screen;fill:url(#radialGradient100232-3-6-9);fill-opacity:1;stroke-width:0.616029"
       id="path94520-3-6-3-7"
       cx="-249.08798"
       cy="253.97403"
       inkscape:export-filename="..\..\..\$\portraitstone_partners\src\assets\portlogo.svg"
       inkscape:export-xdpi="25.4"
       inkscape:export-ydpi="25.4"
       transform="scale(-1,1)"
       r="32" /><path
       style="fill:#2279b9;fill-opacity:1;stroke-width:0.095724"
       d="m 217.98309,253.49864 c 0.0426,0.67593 0.29952,1.38764 0.76071,1.88527 0.3828,0.41324 0.95153,0.75299 1.51599,0.75203 13.63643,-0.0231 27.23727,-0.23488 40.14316,-0.25678 0.56477,-6.7e-4 1.17121,-0.27601 1.5414,-0.70099 0.48758,-0.55977 0.6589,-1.39191 0.63136,-2.13251 -0.0228,-0.60984 -0.23476,-1.26285 -0.64841,-1.71299 -0.38314,-0.41687 -0.96596,-0.73676 -1.53336,-0.7358 -12.98687,0.0221 -40.18743,0.0681 -40.18743,0.0681 -0.68021,9.9e-4 -1.34435,0.49885 -1.75307,1.04057 -0.37265,0.4938 -0.50954,1.1765 -0.47035,1.79299 z"
       id="path340-4-6-3-7-8-6"
       sodipodi:nodetypes="sssssssssss"
       inkscape:export-filename="AGI+Logo.png"
       inkscape:export-xdpi="96"
       inkscape:export-ydpi="96" /><path
       style="fill:#ed9c51;fill-opacity:1;stroke-width:0.095724"
       d="m 265.8282,253.2576 c 0,0.97746 -0.3243,2.56255 -0.91202,3.34529 -0.75251,1.00238 -1.86405,1.41055 -3.12052,1.41269 -11.50235,0.0192 -24.46741,-0.2253 -35.95111,-0.20578 -0.74593,9.9e-4 -1.30204,0.58941 -1.72189,1.2035 -0.29002,0.42421 -0.54479,1.15876 -0.48249,1.66831 0.0721,0.59426 0.392,1.1657 0.80609,1.59941 0.35413,0.37085 0.89352,0.79888 1.40732,0.79802 l 35.88371,-0.061 c 1.08827,-9.9e-4 2.46456,-0.25449 3.44662,-0.72168 0.93874,-0.44661 1.71385,-0.94271 2.5008,-1.62052 1.12466,-0.96861 1.87044,-2.13651 2.37604,-3.43167 0.49546,-1.26901 0.57169,-2.68444 0.56383,-4.046 0,-1.2272 -0.18591,-2.59691 -0.54987,-3.64062 -0.36415,-1.04369 -0.79171,-1.71894 -1.46912,-2.55902 -0.67744,-0.84007 -1.50733,-1.72095 -2.61508,-2.36337 -1.10778,-0.6424 -2.40589,-1.29652 -3.95204,-1.29389 l -38.49488,0.0654 c -0.61265,6.7e-4 -1.19301,0.46882 -1.59665,0.92816 -0.44051,0.50127 -0.79825,1.21111 -0.80859,1.87729 -0.0166,0.60715 0.25445,1.20208 0.64727,1.66637 0.41478,0.49037 1.05695,1.0654 1.70061,1.06432 l 38.29386,-0.065 c 1.11072,-9.9e-4 2.33275,0.44503 3.08183,1.26208 0.73609,0.80307 0.96366,2.06992 0.96628,3.11772 z"
       id="path342-0-5-7-2-6-9"
       sodipodi:nodetypes="sssssssssssasczzsssssssas" /><path
       style="fill:#409224;fill-opacity:1;stroke-width:0.095724"
       d="m 232.64596,267.2867 c 0.0167,0.57487 0.12612,1.20336 0.47183,1.6597 0.35201,0.46468 0.93646,0.9555 1.52077,0.95449 l 27.7881,-0.0473 c 1.47518,-0.003 2.86627,-0.28475 4.21308,-0.75456 1.38483,-0.48315 2.8295,-1.35197 3.87187,-2.08639 1.04234,-0.73447 1.62337,-1.3298 2.4162,-2.17758 1.02696,-1.09795 1.90914,-2.31438 2.6341,-3.62982 0.67841,-1.23055 1.11631,-2.68657 1.42845,-4.05559 0.37462,-1.64293 0.36118,-2.14991 0.42854,-3.83337 0.0574,-1.44694 -0.2559,-3.52796 -0.68545,-5.08788 -0.3164,-1.14875 -0.79741,-2.25809 -1.3786,-3.29912 -0.68741,-1.2314 -1.42681,-2.38633 -2.36703,-3.4389 -0.79463,-0.88954 -1.6724,-1.83997 -2.65524,-2.51755 -0.99253,-0.68414 -2.15226,-1.416 -3.27415,-1.85908 -1.31384,-0.51888 -2.70802,-0.84385 -4.12123,-0.84144 l -20.22617,0.0343 c -0.63989,9.9e-4 -1.31483,0.33317 -1.74765,0.80271 -0.43315,0.46984 -0.70692,1.206 -0.69135,1.84375 0.0165,0.58911 0.14256,1.15039 0.50478,1.6166 0.29805,0.38396 0.88694,0.91558 1.37403,0.91477 l 19.89581,-0.0339 c 0.96629,-9.9e-4 1.93503,0.23841 2.84132,0.57223 0.84826,0.31242 1.73094,0.68119 2.48736,1.17487 0.84746,0.55313 1.61912,1.22891 2.29934,1.97696 0.70859,0.77935 1.31055,1.69617 1.77962,2.63812 0.39082,0.78462 0.74823,1.705 0.95137,2.59239 0.20295,0.8874 0.28493,1.78782 0.26493,2.68786 -0.0262,1.1514 -0.2292,2.36266 -0.49136,3.4202 -0.26181,1.05753 -0.53725,2.00391 -1.03644,2.90232 -0.52233,0.94019 -1.24481,1.83813 -2.00752,2.52834 -0.58001,0.52477 -1.25267,1.04088 -1.93847,1.41821 0,0 -1.3045,0.62056 -1.98684,0.85064 -1.12646,0.37979 -1.93125,0.40415 -2.93426,0.40586 l -27.5986,0.047 c -0.71645,10e-4 -1.2765,0.50311 -1.66751,1.10116 -0.2518,0.38506 -0.37459,0.99918 -0.36363,1.51988 z"
       id="path354-5-0-7-7-5-8"
       sodipodi:nodetypes="asssazsssssssssssssssssssszazassssssa"
       inkscape:export-filename="..\..\..\$\portraitstone_partners\src\assets\portlogo.svg"
       inkscape:export-xdpi="40.602467"
       inkscape:export-ydpi="40.602467" /></g></svg>
