<?xml version="1.0" encoding="UTF-8" standalone="no"?>
<!-- Created with Inkscape (http://www.inkscape.org/) -->

<svg
   width="750"
   height="750"
   viewBox="0 0 750 750"
   version="1.1"
   id="svg5"
   xml:space="preserve"
   xmlns="http://www.w3.org/2000/svg"
   xmlns:svg="http://www.w3.org/2000/svg"><defs
     id="defs2" /><g
     id="layer1"><path
       style="fill:#ff00ff;stroke-width:1.33297;paint-order:markers stroke fill"
       id="path236"
       d="M 750,375 A 375,375 0 0 1 383.97607,749.89256 375,375 0 0 1 0.42970591,392.947 375,375 0 0 1 348.09236,0.96660746 375,375 0 0 1 748.28216,339.14713" /><path
       style="fill:#0000ff;fill-opacity:1;paint-order:markers stroke fill"
       id="path5254-9-4-8-2-5-3-8-6"
       d="m 159.16324,249.91421 c -14.85533,0.5502 11.4727,-26.54989 -3.08264,-29.57079 -14.55533,-3.02091 -1.18631,32.31815 -14.59574,25.90171 -13.40944,-6.41644 22.49691,-18.17714 11.01269,-27.61621 -11.48423,-9.43908 -16.06943,28.06499 -24.96102,16.15184 -8.89159,-11.91315 28.36736,-5.64021 22.58515,-19.33509 -5.78222,-13.69487 -27.27123,17.38249 -29.60802,2.70179 -2.3368,-14.6807 27.73919,8.18881 28.98361,-6.62453 1.24443,-14.81334 -32.22551,2.71786 -27.47218,-11.36722 4.75333,-14.08508 20.75631,20.14187 28.74229,7.60363 7.98599,-12.53825 -29.79732,-12.5694 -19.0428,-22.83214 10.75453,-10.26273 9.0184,27.48069 21.91646,20.08989 12.89805,-7.39079 -20.54293,-24.97715 -6.25094,-29.06648 14.29199,-4.08932 -4.78552,28.524 10.06982,27.9738 14.85533,-0.5502 -6.5824,-31.66295 7.97293,-28.64205 14.55534,3.02091 -17.49312,23.0328 -4.08369,29.44925 13.40944,6.41644 8.88608,-31.09515 20.37031,-21.65607 11.48422,9.43908 -26.19327,12.26508 -17.30168,24.17823 8.8916,11.91315 22.31887,-23.40382 28.10109,-9.70894 5.78222,13.69487 -28.89285,-1.31244 -26.55605,13.36826 2.3368,14.68071 30.63867,-10.35095 29.39424,4.46239 -1.24442,14.81334 -24.97343,-14.58928 -29.72676,-0.5042 -4.75333,14.08508 31.93953,5.07319 23.95354,17.61143 -7.98599,12.53825 -15.3329,-24.5239 -26.08743,-14.26116 -10.75453,10.26274 25.92342,19.33512 13.02537,26.72591 -12.89806,7.3908 -2.17979,-28.84038 -16.47178,-24.75106 -14.29199,4.08932 13.96857,29.16761 -0.88677,29.71781 z"
       transform="translate(101.92032,-152.18239)" /><path
       style="fill:#0000ff;fill-opacity:1;paint-order:markers stroke fill"
       id="path5254-9-4-8-2-5-3-8-6-6"
       d="m 159.16324,249.91421 c -14.83434,0.54942 11.64255,-26.77759 -2.94213,-29.5429 -14.58468,-2.7653 0.0516,32.35691 -13.55205,26.41554 -13.60367,-5.94137 22.10792,-19.07426 10.16741,-27.89377 -11.94052,-8.81951 -13.99264,29.17496 -23.67125,17.91956 -9.67862,-11.2554 28.19456,-7.59305 21.26317,-20.71995 -6.93139,-13.1269 -25.26547,20.21456 -29.10207,5.8744 -3.83659,-14.34016 28.69693,5.39207 28.14751,-9.44228 -0.54942,-14.83435 -31.53417,7.25041 -28.76886,-7.33427 2.76531,-14.58467 23.51551,17.30922 29.45688,3.70555 5.94137,-13.60367 -31.55714,-7.14977 -22.73763,-19.09029 8.81951,-11.94052 13.67656,25.79806 24.93196,16.11944 11.2554,-9.67862 -25.32983,-20.13385 -12.20293,-27.06524 13.1269,-6.93139 1.12879,29.17728 15.46895,25.34069 14.34016,-3.8366 -14.08564,-29.13018 0.74871,-29.6796 14.83434,-0.54942 -11.64255,26.77759 2.94213,29.5429 14.58467,2.76531 -0.0516,-32.35691 13.55205,-26.41554 13.60367,5.94137 -22.10793,19.07426 -10.16741,27.89377 11.94052,8.81951 13.99264,-29.17496 23.67125,-17.91956 9.67862,11.2554 -28.19456,7.59305 -21.26317,20.71995 6.93139,13.1269 25.26547,-20.21456 29.10206,-5.8744 3.8366,14.34016 -28.69692,-5.39206 -28.1475,9.44228 0.54942,14.83435 31.53417,-7.25041 28.76886,7.33427 -2.76531,14.58468 -23.51551,-17.30921 -29.45688,-3.70554 -5.94137,13.60366 31.55714,7.14977 22.73763,19.09028 -8.81951,11.94052 -13.67656,-25.79806 -24.93196,-16.11944 -11.2554,9.67862 25.32983,20.13385 12.20293,27.06524 -13.1269,6.93139 -1.12879,-29.17728 -15.46895,-25.34068 -14.34016,3.83659 14.08564,29.13017 -0.74871,29.67959 z"
       transform="translate(513.66658,76.50777)" /><path
       style="fill:#0000ff;fill-opacity:1;paint-order:markers stroke fill"
       id="path5254-9-4-8-2-5-3-8-6-6-9"
       d="m 159.16324,249.91421 c -14.81737,0.54879 11.7877,-26.97678 -2.81998,-29.52068 -14.60768,-2.54391 1.12627,32.35494 -12.63329,26.82951 -13.75956,-5.52542 21.74103,-19.85002 9.43095,-28.11547 -12.31007,-8.26545 -12.13104,30.0158 -22.45363,19.37156 -10.32259,-10.64424 27.93516,-9.29103 20.0512,-21.84885 -7.88395,-12.55783 -23.29078,22.48666 -28.39153,8.56408 -5.10076,-13.92257 29.29903,2.87448 27.20441,-11.80435 -2.09462,-14.67884 -30.42334,11.06937 -29.42029,-3.7242 1.00305,-14.79357 25.59685,14.54296 29.65373,0.28121 4.05689,-14.26174 -32.29542,-2.26191 -25.362,-15.36853 6.93342,-13.10662 17.46873,23.69683 26.97566,12.31816 9.50692,-11.37867 -28.58334,-15.20209 -16.9184,-24.35551 11.66493,-9.15341 6.32011,28.7533 19.63324,22.22519 13.31313,-6.52812 -19.92893,-25.51369 -5.54945,-29.1312 14.37948,-3.6175 -5.92132,28.83807 8.89606,28.28928 14.81737,-0.54879 -7.82863,-31.41374 6.77905,-28.86984 14.60768,2.54391 -17.13889,23.93647 -3.37933,29.46189 13.75956,5.52543 5.62531,-31.88206 17.93539,-23.61661 12.31008,8.26545 -25.39299,14.89604 -15.0704,25.54028 10.32259,10.64424 18.10658,-26.8377 25.99054,-14.27988 7.88395,12.55783 -29.25642,3.27995 -24.15567,17.20252 5.10075,13.92258 27.45706,-17.15284 29.55169,-2.474 2.09462,14.67884 -28.06115,-8.90328 -29.0642,5.89029 -1.00305,14.79356 32.05997,-4.50211 28.00308,9.75963 -4.05689,14.26175 -22.01384,-19.54704 -28.94726,-6.44042 -6.93342,13.10661 31.11941,8.92708 21.61249,20.30575 -9.50693,11.37866 -12.16015,-26.81095 -23.82508,-17.65754 -11.66494,9.15342 24.79802,20.8127 11.48489,27.34082 -13.31313,6.52811 -0.20385,-29.439 -14.58333,-25.82149 -14.37948,3.6175 14.18884,29.09961 -0.62854,29.6484 z"
       transform="translate(-83.77013,-164.74791)" /><path
       style="fill:#0000ff;fill-opacity:1;paint-order:markers stroke fill"
       id="path5254-9-4-8-2-5-3-8-6-6-9-6"
       d="m 159.16324,249.91421 c -14.80345,0.54828 11.91313,-27.15248 -2.71284,-29.50274 -14.62597,-2.35027 2.06714,32.32605 -11.81928,27.16755 -13.88643,-5.15849 21.3971,-20.52666 8.78387,-28.29514 -12.61323,-7.76848 -10.46085,30.65644 -21.31617,20.5765 -10.85531,-10.07993 27.62356,-10.77584 18.94332,-22.77986 -8.68023,-12.00401 -21.39627,24.31966 -27.56785,10.85287 -6.17158,-13.46679 29.64457,0.61549 26.21882,-13.79655 -3.42575,-14.41205 -29.07432,14.28043 -29.62259,-0.52302 -0.54828,-14.80345 27.15247,11.91313 29.50274,-2.71284 2.35027,-14.62598 -32.32605,2.06714 -27.16755,-11.81928 5.15849,-13.88643 20.52665,21.39709 28.29514,8.78386 7.76848,-12.61322 -30.65644,-10.46085 -20.57651,-21.31616 10.07993,-10.85531 10.77585,27.62355 22.77986,18.94332 12.00402,-8.68023 -24.31966,-21.39628 -10.85287,-27.56786 13.4668,-6.17157 -0.61549,29.64458 13.79656,26.21882 14.41204,-3.42575 -14.28044,-29.07431 0.52302,-29.62259 14.80345,-0.54827 -11.91313,27.15248 2.71284,29.50275 14.62597,2.35027 -2.06714,-32.32605 11.81928,-27.16756 13.88643,5.1585 -21.3971,20.52666 -8.78387,28.29514 12.61323,7.76849 10.46085,-30.65643 21.31617,-20.5765 10.85531,10.07993 -27.62356,10.77584 -18.94332,22.77986 8.68023,12.00402 21.39627,-24.31966 27.56785,-10.85287 6.17158,13.46679 -29.64457,-0.61549 -26.21882,13.79655 3.42575,14.41205 29.07432,-14.28043 29.62259,0.52302 0.54828,14.80346 -27.15247,-11.91313 -29.50274,2.71285 -2.35027,14.62597 32.32605,-2.06715 27.16755,11.81928 -5.15849,13.88642 -20.52665,-21.3971 -28.29514,-8.78387 -7.76848,12.61323 30.65644,10.46085 20.57651,21.31616 -10.07994,10.85532 -10.77585,-27.62355 -22.77986,-18.94332 -12.00402,8.68024 24.31966,21.39628 10.85287,27.56786 -13.4668,6.17158 0.61549,-29.64457 -13.79656,-26.21882 -14.41204,3.42575 14.28044,29.07431 -0.52302,29.62259 z"
       transform="translate(-8.270192,94.74319)" /><path
       style="fill:#0000ff;fill-opacity:1;paint-order:markers stroke fill"
       id="path5254-9-4-8-2-5-3-8-6-6-9-6-4"
       d="m 159.16324,249.91421 c -14.79189,0.54785 12.02259,-27.3086 -2.61812,-29.48808 -14.6407,-2.17949 2.89722,32.27947 -11.09372,27.44687 -13.99094,-4.8326 21.07573,-21.12145 8.21099,-28.44259 -12.86473,-7.32115 -8.95911,31.1463 -20.25954,21.58593 -11.30043,-9.56038 27.28248,-12.08174 17.93118,-23.55578 -9.35131,-11.47403 -19.60547,25.80666 -26.6892,12.80969 -7.08373,-12.99697 29.80458,-1.41031 25.22965,-15.48761 -4.57493,-14.07731 -27.604,16.98167 -29.51433,2.30342 -1.91034,-14.67825 28.30141,9.45158 29.12072,-5.32777 0.81931,-14.77934 -31.87445,5.86323 -28.35339,-8.51392 3.52106,-14.37715 22.97597,19.03698 29.07888,5.55162 6.1029,-13.48536 -31.84009,-6.04708 -23.36317,-18.18142 8.47692,-12.13435 14.54751,26.05133 25.10977,15.68123 10.56226,-10.3701 -27.50553,-17.1407 -15.21761,-25.39342 12.28792,-8.25272 4.15432,29.54731 17.74944,23.69301 13.59513,-5.8543 -19.45621,-25.91937 -5.01684,-29.1759 14.43938,-3.25652 -6.79993,29.05277 7.99197,28.50492 14.7919,-0.54785 -8.77922,-31.19749 5.86148,-29.01801 14.64071,2.17949 -16.83582,24.63448 -2.84488,29.46707 13.99094,4.8326 3.08346,-32.26221 15.94819,-24.94107 12.86473,7.32114 -24.59793,16.88917 -13.29751,26.44954 11.30043,9.56037 14.5297,-28.96975 23.881,-17.49571 9.3513,11.47404 -29.03796,6.86288 -21.95423,19.85985 7.08373,12.99697 24.01361,-21.76475 28.58854,-7.68745 4.57493,14.0773 -29.55625,-4.09028 -27.64591,10.58797 1.91033,14.67825 30.25436,-11.62031 29.43505,3.15904 -0.81932,14.77935 -26.0828,-14.49102 -29.60386,-0.11387 -3.52106,14.37716 32.40909,0.0935 26.30619,13.57888 -6.10291,13.48537 -19.08673,-22.93466 -27.56365,-10.80032 -8.47692,12.13434 30.1868,11.79472 19.62453,22.16482 -10.56226,10.3701 -9.51288,-28.28086 -21.80081,-20.02814 -12.28792,8.25272 23.88761,21.90298 10.29248,27.75728 -13.59513,5.8543 1.34572,-29.80757 -13.09365,-26.55104 -14.43937,3.25652 14.36226,29.05311 -0.42964,29.60096 z"
       transform="translate(177.31343,46.07357)" /><path
       style="fill:#0000ff;fill-opacity:1;paint-order:markers stroke fill"
       id="path5254-9-4-8-2-5-3-8-6-6-9-6-4-2"
       d="m 159.16324,249.91421 c -14.7822,0.54749 12.11892,-27.44824 -2.53378,-29.47597 -14.6527,-2.02773 3.63458,32.22145 -10.4434,27.68011 -14.07798,-4.54134 20.77591,-21.648 7.7004,-28.56496 -13.07551,-6.91696 -7.605,31.52136 -19.28074,22.43894 -11.67574,-9.08241 26.92702,-13.23668 17.0058,-24.20859 -9.92122,-10.9719 -17.9273,27.01933 -25.79254,14.49131 -7.86524,-12.52802 29.83033,-3.22884 24.26005,-16.93231 -5.57028,-13.70347 -26.0873,19.25836 -29.19338,4.79581 -3.10607,-14.46256 29.13567,7.16846 28.58818,-7.61374 -0.54749,-14.7822 -31.10079,9.17456 -29.07306,-5.47814 2.02773,-14.6527 24.92681,16.70114 29.46815,2.62316 4.54134,-14.07798 -32.36307,-2.01583 -25.44611,-15.09134 6.91696,-13.07551 17.71142,24.21941 26.79383,12.54366 9.08242,-11.67574 -29.72188,-12.96308 -18.74997,-22.8843 10.9719,-9.92121 8.35976,28.81646 20.88778,20.95122 12.52801,-7.86524 -23.4958,-22.3468 -9.79233,-27.91708 13.70348,-5.57028 -2.0002,29.93782 12.46236,26.83175 14.46255,-3.10608 -14.43578,-29.03516 0.34643,-29.58265 14.7822,-0.54749 -12.11892,27.44824 2.53378,29.47597 14.6527,2.02773 -3.63458,-32.22144 10.4434,-27.6801 14.07798,4.54133 -20.77591,21.64799 -7.7004,28.56495 13.07551,6.91696 7.60499,-31.52135 19.28074,-22.43894 11.67574,9.08242 -26.92702,13.23669 -17.0058,24.20859 9.92122,10.97191 17.9273,-27.01932 25.79254,-14.49131 7.86524,12.52802 -29.83033,3.22884 -24.26005,16.93231 5.57028,13.70348 26.0873,-19.25836 29.19338,-4.79581 3.10607,14.46256 -29.13567,-7.16846 -28.58818,7.61374 0.54749,14.78221 31.10079,-9.17456 29.07306,5.47814 -2.02773,14.6527 -24.92681,-16.70113 -29.46815,-2.62316 -4.54134,14.07798 32.36307,2.01584 25.44611,15.09134 -6.91696,13.07551 -17.71142,-24.2194 -26.79384,-12.54366 -9.08241,11.67574 29.72189,12.96308 18.74998,22.8843 -10.9719,9.92122 -8.35976,-28.81646 -20.88778,-20.95122 -12.52802,7.86524 23.4958,22.3468 9.79233,27.91708 -13.70348,5.57028 2.0002,-29.93782 -12.46236,-26.83175 -14.46255,3.10608 14.43578,29.03516 -0.34643,29.58265 z"
       transform="translate(456.4531,-82.51513)" /><path
       style="fill:#0000ff;fill-opacity:1;paint-order:markers stroke fill"
       id="path5254-5"
       d="m 159.16324,249.91421 c -15.39742,0.57027 8.34292,-23.15598 -5.27678,-30.36082 -13.6197,-7.20484 -19.87489,25.77108 -28.06748,12.72166 -8.19258,-13.04943 24.22513,-4.35281 23.65485,-19.75024 -0.57027,-15.39743 -32.25586,-4.32662 -25.05102,-17.94632 7.20484,-13.6197 15.88221,18.80317 28.93164,10.61058 13.04942,-8.19259 -12.38097,-30.0977 3.01646,-30.66798 15.39742,-0.57027 -8.34292,23.15598 5.27678,30.36082 13.6197,7.20484 19.87489,-25.77108 28.06748,-12.72166 8.19258,13.04943 -24.22513,4.35282 -23.65485,19.75024 0.57027,15.39743 32.25586,4.32662 25.05102,17.94632 -7.20484,13.6197 -15.88221,-18.80316 -28.93164,-10.61058 -13.04942,8.19259 12.38097,30.0977 -3.01646,30.66798 z"
       transform="translate(22.84746,-87.578787)" /><path
       style="fill:#0000ff;fill-opacity:1;paint-order:markers stroke fill"
       id="path5254-5-8"
       d="m 159.16324,249.91421 c -15.21902,0.56367 9.2387,-23.9959 -4.71773,-30.09133 -13.95643,-6.09544 -15.3507,28.53703 -25.28029,16.98976 -9.9296,-11.54727 24.52098,-7.73809 20.58489,-22.45011 -3.93609,-14.71202 -31.88216,5.79089 -29.04514,-9.17199 2.83702,-14.96287 21.33847,14.34666 30.38668,2.0965 9.04821,-12.25015 -24.4057,-21.31591 -10.9384,-28.42704 13.4673,-7.11113 2.08765,25.62808 17.30667,25.06441 15.21902,-0.56367 1.44874,-32.3714 15.40517,-26.27596 13.95643,6.09544 -18.7352,17.61103 -8.80561,29.1583 9.9296,11.54727 26.21226,-19.05056 30.14834,-4.33854 3.93609,14.71203 -25.45007,-3.66747 -28.28708,11.29541 -2.83702,14.96287 31.2374,8.61573 22.18919,20.86588 -9.04821,12.25015 -13.00051,-22.1843 -26.46781,-15.07317 -13.4673,7.11114 12.74015,29.79421 -2.47888,30.35788 z"
       transform="translate(175.91726,-89.3548)" /><text
       xml:space="preserve"
       style="font-size:96.3427px;font-family:Monoton;-inkscape-font-specification:Monoton;text-align:center;text-anchor:middle;fill:#00ffff;fill-opacity:1;stroke-width:2.89029;paint-order:markers stroke fill"
       x="571.37738"
       y="424.65768"
       id="text4036-8-9"><tspan
         id="tspan4034-4-1"
         x="571.37738"
         y="424.65768"
         style="fill:#00ffff;fill-opacity:1;stroke-width:2.89029">o</tspan></text><text
       xml:space="preserve"
       style="font-size:96.3427px;font-family:Monoton;-inkscape-font-specification:Monoton;text-align:center;text-anchor:middle;fill:#00ffff;fill-opacity:1;stroke-width:2.89029;paint-order:markers stroke fill"
       x="640.64917"
       y="425.83176"
       id="text4036-8-7"><tspan
         id="tspan4034-4-4"
         x="640.64917"
         y="425.83176"
         style="fill:#00ffff;fill-opacity:1;stroke-width:2.89029">n</tspan></text><text
       xml:space="preserve"
       style="font-size:96.3427px;font-family:Monoton;-inkscape-font-specification:Monoton;text-align:center;text-anchor:middle;fill:#00ffff;fill-opacity:1;stroke-width:2.89029;paint-order:markers stroke fill"
       x="705.22461"
       y="415.26489"
       id="text4036-8-96"><tspan
         id="tspan4034-4-2"
         x="705.22461"
         y="415.26489"
         style="fill:#00ffff;fill-opacity:1;stroke-width:2.89029">e</tspan></text><path
       style="fill:#ffff00;fill-opacity:0.5;stroke-width:2.27164;paint-order:markers stroke fill"
       id="path674"
       d="M 304.23518,697.98676 A 205.55922,291.33136 0 0 1 103.59627,989.23465 205.55922,291.33136 0 0 1 -106.64771,711.92949 205.55922,291.33136 0 0 1 83.926327,407.40634 205.55922,291.33136 0 0 1 303.29354,670.13325"
       transform="matrix(0.73381867,-0.67934539,0.62436028,0.7811365,0,0)" /><text
       xml:space="preserve"
       style="font-size:125.185px;font-family:Monoton;-inkscape-font-specification:Monoton;text-align:center;text-anchor:middle;fill:#00ffff;fill-opacity:1;stroke-width:3.75556;paint-order:markers stroke fill"
       x="72.58947"
       y="424.83609"
       id="text4036"><tspan
         id="tspan4034"
         x="72.58947"
         y="424.83609"
         style="fill:#00ffff;fill-opacity:1;stroke-width:3.75556">P</tspan></text><text
       xml:space="preserve"
       style="font-size:96.3427px;font-family:Monoton;-inkscape-font-specification:Monoton;text-align:center;text-anchor:middle;fill:#00ffff;fill-opacity:1;stroke-width:2.89029;paint-order:markers stroke fill"
       x="126.90192"
       y="424.80179"
       id="text4036-8"><tspan
         id="tspan4034-4"
         x="126.90192"
         y="424.80179"
         style="fill:#00ffff;fill-opacity:1;stroke-width:2.89029">o</tspan></text><text
       xml:space="preserve"
       style="font-size:80.022px;font-family:Monoton;-inkscape-font-specification:Monoton;text-align:center;text-anchor:middle;fill:#00ffff;fill-opacity:1;stroke-width:2.40066;paint-order:markers stroke fill"
       x="183.6479"
       y="409.69861"
       id="text4036-9"><tspan
         id="tspan4034-7"
         x="183.6479"
         y="409.69861"
         style="fill:#00ffff;fill-opacity:1;stroke-width:2.40066">r</tspan></text><text
       xml:space="preserve"
       style="font-size:125.185px;font-family:Monoton;-inkscape-font-specification:Monoton;text-align:center;text-anchor:middle;fill:#00ffff;fill-opacity:1;stroke-width:3.75556;paint-order:markers stroke fill"
       x="223.8566"
       y="416.74316"
       id="text4036-96"><tspan
         id="tspan4034-43"
         x="223.8566"
         y="416.74316"
         style="fill:#00ffff;fill-opacity:1;stroke-width:3.75556">t</tspan></text><text
       xml:space="preserve"
       style="font-size:98.71px;font-family:Monoton;-inkscape-font-specification:Monoton;text-align:center;text-anchor:middle;fill:#00ffff;fill-opacity:1;stroke-width:2.96131;paint-order:markers stroke fill"
       x="280.97495"
       y="426.13599"
       id="text4036-81"><tspan
         id="tspan4034-1"
         x="280.97495"
         y="426.13599"
         style="fill:#00ffff;fill-opacity:1;stroke-width:2.96131">r</tspan></text><text
       xml:space="preserve"
       style="font-size:87.2437px;font-family:Monoton;-inkscape-font-specification:Monoton;text-align:center;text-anchor:middle;fill:#00ffff;fill-opacity:1;stroke-width:2.61731;paint-order:markers stroke fill"
       x="334.71985"
       y="409.24704"
       id="text4036-961"><tspan
         id="tspan4034-9"
         x="334.71985"
         y="409.24704"
         style="fill:#00ffff;fill-opacity:1;stroke-width:2.61731">a</tspan></text><text
       xml:space="preserve"
       style="font-size:96.5597px;font-family:Monoton;-inkscape-font-specification:Monoton;text-align:center;text-anchor:middle;fill:#00ffff;fill-opacity:1;stroke-width:2.89679;paint-order:markers stroke fill"
       x="378.82373"
       y="420.2655"
       id="text4036-2"><tspan
         id="tspan4034-3"
         x="378.82373"
         y="420.2655"
         style="fill:#00ffff;fill-opacity:1;stroke-width:2.89679">i</tspan></text><text
       xml:space="preserve"
       style="font-size:125.185px;font-family:Monoton;-inkscape-font-specification:Monoton;text-align:center;text-anchor:middle;fill:#00ffff;fill-opacity:1;stroke-width:3.75556;paint-order:markers stroke fill"
       x="410.53839"
       y="413.22089"
       id="text4036-4"><tspan
         id="tspan4034-8"
         x="410.53839"
         y="413.22089"
         style="fill:#00ffff;fill-opacity:1;stroke-width:3.75556">t</tspan></text><text
       xml:space="preserve"
       style="font-size:125.185px;font-family:Monoton;-inkscape-font-specification:Monoton;text-align:center;text-anchor:middle;fill:#00ffff;fill-opacity:1;stroke-width:3.75556;paint-order:markers stroke fill"
       x="513.69354"
       y="417.18619"
       id="text4036-4-3"><tspan
         id="tspan4034-8-3"
         x="513.69354"
         y="417.18619"
         style="fill:#00ffff;fill-opacity:1;stroke-width:3.75556">t</tspan></text><text
       xml:space="preserve"
       style="font-size:104.512px;font-family:Monoton;-inkscape-font-specification:Monoton;text-align:center;text-anchor:middle;fill:#00ffff;fill-opacity:1;stroke-width:3.13534;paint-order:markers stroke fill"
       x="461.45209"
       y="430.0116"
       id="text4036-49"><tspan
         id="tspan4034-99"
         x="461.45209"
         y="430.0116"
         style="fill:#00ffff;fill-opacity:1;stroke-width:3.13534">s</tspan></text><path
       style="fill:#0000ff;fill-opacity:1;paint-order:markers stroke fill"
       id="path5254"
       d="m 159.16324,249.91421 c -17.15504,0.63537 0.70302,-18.74492 -8.42475,-33.28393 -9.12776,-14.53902 -34.34295,-6.8774 -26.31568,-22.05179 8.02728,-15.17439 15.88207,9.98129 33.03711,9.34592 17.15504,-0.63537 23.12748,-26.30317 32.25525,-11.76416 9.12777,14.53902 -16.58509,8.76363 -24.61236,23.93802 -8.02727,15.17438 11.21547,33.18057 -5.93957,33.81594 z" /><path
       style="fill:#0000ff;fill-opacity:1;paint-order:markers stroke fill"
       id="path5254-4"
       d="m 159.16324,249.91421 c -16.184,0.59941 4.82448,-20.59519 -7.04318,-31.61516 -11.86766,-11.01997 -31.45014,11.49877 -32.04954,-4.68523 -0.59941,-16.184 20.59518,4.82448 31.61515,-7.04318 11.01997,-11.86767 -11.49876,-31.45014 4.68524,-32.04955 16.184,-0.5994 -4.82448,20.59519 7.04318,31.61516 11.86766,11.01997 31.45014,-11.49877 32.04954,4.68523 0.59941,16.184 -20.59518,-4.82447 -31.61515,7.04319 -11.01998,11.86766 11.49876,31.45013 -4.68524,32.04954 z"
       transform="translate(112.20226,-30.335868)" /><path
       style="fill:#0000ff;fill-opacity:1;paint-order:markers stroke fill"
       id="path5254-9"
       d="m 159.16324,249.91421 c -15.68413,0.58089 7.00785,-22.05769 -6.02232,-30.80664 -13.03016,-8.74895 -25.39484,20.82378 -30.79396,6.08679 -5.39913,-14.73698 23.14366,-0.15134 27.43785,-15.24734 4.2942,-15.096 -27.65203,-17.71702 -15.30474,-27.40588 12.34729,-9.68885 7.29572,21.96416 22.97985,21.38327 15.68413,-0.5809 8.30494,-31.77351 21.33511,-23.02456 13.03017,8.74894 -18.63466,13.72594 -13.23553,28.46292 5.39913,14.73699 32.78477,-1.92008 28.49057,13.17592 -4.2942,15.096 -18.81257,-13.48106 -31.15985,-3.79221 -12.34729,9.68886 11.95715,30.58684 -3.72698,31.16773 z"
       transform="translate(63.336357,46.453414)" /><path
       style="fill:#0000ff;fill-opacity:1;paint-order:markers stroke fill"
       id="path5254-9-4"
       d="m 159.16324,249.91421 c -15.21902,0.56367 9.2387,-23.9959 -4.71773,-30.09133 -13.95643,-6.09544 -15.3507,28.53703 -25.28029,16.98976 -9.9296,-11.54727 24.52098,-7.73809 20.58489,-22.45011 -3.93609,-14.71202 -31.88216,5.79089 -29.04514,-9.17199 2.83702,-14.96287 21.33847,14.34666 30.38668,2.0965 9.04821,-12.25015 -24.4057,-21.31591 -10.9384,-28.42704 13.4673,-7.11113 2.08765,25.62808 17.30667,25.06441 15.21902,-0.56367 1.44874,-32.3714 15.40517,-26.27596 13.95643,6.09544 -18.7352,17.61103 -8.80561,29.1583 9.9296,11.54727 26.21226,-19.05056 30.14834,-4.33854 3.93609,14.71203 -25.45007,-3.66747 -28.28708,11.29541 -2.83702,14.96287 31.2374,8.61573 22.18919,20.86588 -9.04821,12.25015 -13.00051,-22.1843 -26.46781,-15.07317 -13.4673,7.11114 12.74015,29.79421 -2.47888,30.35788 z"
       transform="translate(267.74396,-44.306513)" /><path
       style="fill:#0000ff;fill-opacity:1;paint-order:markers stroke fill"
       id="path5254-9-4-8"
       d="m 159.16324,249.91421 c -15.1009,0.55929 9.87937,-24.65491 -4.28608,-29.91706 -14.16545,-5.26214 -11.7049,30.14571 -22.77834,19.86323 -11.07343,-10.28247 24.41943,-10.44788 18.12384,-24.18527 -6.29559,-13.73738 -29.59285,13.03962 -30.15214,-2.06129 -0.5593,-15.10091 24.65491,9.87937 29.91705,-4.28608 5.26215,-14.16545 -30.1457,-11.70491 -19.86323,-22.77834 10.28248,-11.07343 10.44789,24.41942 24.18527,18.12384 13.73739,-6.29559 -13.03961,-29.59285 2.0613,-30.15215 15.1009,-0.55929 -9.87938,24.65491 4.28608,29.91706 14.16545,5.26215 11.7049,-30.14571 22.77834,-19.86323 11.07343,10.28247 -24.41943,10.44788 -18.12384,24.18527 6.29558,13.73738 29.59285,-13.03961 30.15214,2.06129 0.5593,15.10091 -24.65491,-9.87937 -29.91705,4.28608 -5.26215,14.16545 30.1457,11.70491 19.86323,22.77834 -10.28248,11.07344 -10.44789,-24.41942 -24.18527,-18.12384 -13.73739,6.29559 13.03961,29.59286 -2.0613,30.15215 z"
       transform="translate(366.02673,-23.519258)" /><path
       style="fill:#0000ff;fill-opacity:1;paint-order:markers stroke fill"
       id="path5254-9-4-8-2"
       d="m 159.16324,249.91421 c -15.01884,0.55625 10.35936,-25.18437 -3.94399,-29.79841 -14.30334,-4.61403 -8.75088,31.10434 -20.61353,21.87653 -11.86265,-9.22781 24.12392,-12.63348 16.13277,-25.36205 -7.99115,-12.72857 -26.69704,18.20235 -29.85284,3.50827 -3.15579,-14.69408 26.60065,5.82875 28.66084,-9.05851 2.06019,-14.88727 -32.15137,-3.21673 -25.12368,-16.50155 7.02769,-13.28482 16.63063,21.56365 27.77817,11.48361 11.14755,-10.08004 -22.5617,-23.13066 -8.63886,-28.79011 13.92285,-5.65945 -1.12104,27.20867 13.8978,26.65242 15.01884,-0.55626 -2.41518,-32.22149 11.88817,-27.60745 14.30334,4.61404 -18.34817,20.12245 -6.48552,29.35026 11.86266,9.22781 18.86145,-26.23554 26.8526,-13.50697 7.99115,12.72858 -26.98998,3.62073 -23.83418,18.3148 3.15579,14.69408 31.31258,-7.97368 29.25239,6.91358 -2.06019,14.88727 -23.00288,-14.57519 -30.03057,-1.29036 -7.02769,13.28482 29.11222,14.01914 17.96467,24.09918 -11.14754,10.08004 -8.25247,-25.95121 -22.17532,-20.29175 -13.92284,5.65945 13.28992,29.45226 -1.72892,30.00851 z"
       transform="translate(265.27206,-156.3709)" /><path
       style="fill:#0000ff;fill-opacity:1;paint-order:markers stroke fill"
       id="path5254-9-4-8-2-5"
       d="m 159.16324,249.91421 c -14.95958,0.55406 10.73183,-25.61847 -3.66679,-29.7143 -14.39863,-4.09582 -6.3291,31.68033 -18.75733,23.33555 -12.42823,-8.34479 23.74039,-14.41777 14.49912,-26.19467 -9.24127,-11.77689 -23.74158,21.90977 -28.89128,7.85357 -5.14971,-14.0562 27.68093,2.29004 27.12687,-12.66955 -0.55406,-14.95959 -32.08558,3.77043 -27.98975,-10.6282 4.09582,-14.39863 21.0483,18.12312 29.39308,5.69489 8.34478,-12.42823 -28.17398,-15.80909 -16.39709,-25.05036 11.77689,-9.24126 6.37593,27.03379 20.43213,21.88409 14.0562,-5.14971 -13.50088,-29.35008 1.45871,-29.90414 14.95958,-0.55406 -10.73183,25.61848 3.66679,29.7143 14.39863,4.09583 6.3291,-31.68032 18.75733,-23.33554 12.42823,8.34478 -23.74039,14.41777 -14.49912,26.19466 9.24126,11.77689 23.74157,-21.90977 28.89128,-7.85357 5.14971,14.0562 -27.68093,-2.29003 -27.12687,12.66955 0.55406,14.95959 32.08558,-3.77042 27.98975,10.6282 -4.09582,14.39863 -21.0483,-18.12312 -29.39308,-5.69489 -8.34478,12.42823 28.17398,15.80909 16.39709,25.05036 -11.77689,9.24127 -6.37593,-27.03379 -20.43213,-21.88408 -14.0562,5.14971 13.50088,29.35007 -1.45871,29.90413 z"
       transform="translate(-78.36466,38.41995)" /><path
       style="fill:#0000ff;fill-opacity:1;paint-order:markers stroke fill"
       id="path5254-9-4-8-2-5-3"
       d="m 159.16324,249.91421 c -14.91544,0.55242 11.02897,-25.98059 -3.43793,-29.65271 -14.4669,-3.67212 -4.31767,32.02251 -17.164,24.42334 -12.84634,-7.59917 23.32433,-15.89355 13.1393,-26.80414 -10.18504,-10.91058 -20.94494,24.60475 -27.64354,11.26667 -6.6986,-13.33808 28.21438,-0.76043 25.54489,-15.44544 -2.66949,-14.68501 -30.92233,9.37515 -29.34644,-5.4671 1.57588,-14.84225 24.14656,14.61414 29.84016,0.81708 5.6936,-13.79705 -31.0821,-8.831 -21.73206,-20.4651 9.35005,-11.6341 12.41238,25.34881 24.66139,16.82018 12.24901,-8.52862 -21.37353,-24.23336 -7.2179,-28.96558 14.15563,-4.73221 -3.26264,28.03542 11.65281,27.483 14.91544,-0.55243 -4.87901,-31.94181 9.58789,-28.26969 14.4669,3.67212 -17.9018,21.82098 -5.05547,29.42015 12.84634,7.59917 13.16456,-29.50895 23.3496,-18.59837 10.18503,10.91058 -26.85727,8.67853 -20.15866,22.01661 6.6986,13.33809 27.02847,-17.70721 29.69796,-3.0222 2.66949,14.68501 -27.28573,-7.21928 -28.86162,7.62296 -1.57589,14.84225 32.31104,-0.28355 26.61744,13.5135 -5.6936,13.79705 -19.05118,-20.82504 -28.40123,-9.19093 -9.35004,11.6341 27.33508,17.23012 15.08608,25.75875 -12.24901,8.52863 -4.76801,-27.81898 -18.92364,-23.08677 -14.15563,4.73222 13.68042,29.27337 -1.23503,29.82579 z"
       transform="translate(459.33952,6.980844)" /><path
       style="fill:#0000ff;fill-opacity:1;paint-order:markers stroke fill"
       id="path5254-9-4-8-2-5-3-8"
       d="m 159.16324,249.91421 c -14.8817,0.55117 11.27135,-26.28713 -3.24592,-29.6064 -14.51728,-3.31928 -2.62589,32.21762 -15.78941,25.2541 -13.16351,-6.96352 22.90484,-17.12965 11.99215,-27.26286 -10.91269,-10.13321 -18.3829,26.58834 -26.30108,13.976 -7.91818,-12.61234 28.401,-3.38229 24.01694,-17.61426 -4.38407,-14.23196 -29.21423,13.83473 -29.7654,-1.04697 -0.55118,-14.8817 26.28712,11.27135 29.6064,-3.24593 3.31927,-14.51727 -32.21763,-2.62588 -25.25411,-15.7894 6.96352,-13.16352 17.12965,22.90484 27.26286,11.99215 10.13322,-10.91269 -26.58834,-18.3829 -13.97599,-26.30108 12.61234,-7.91818 3.38229,28.40099 17.61425,24.01693 14.23197,-4.38406 -13.83472,-29.21422 1.04698,-29.7654 14.8817,-0.55117 -11.27135,26.28713 3.24592,29.60641 14.51728,3.31927 2.62589,-32.21763 15.78941,-25.25411 13.16351,6.96352 -22.90484,17.12965 -11.99215,27.26286 10.91269,10.13321 18.3829,-26.58834 26.30108,-13.976 7.91818,12.61235 -28.401,3.3823 -24.01694,17.61426 4.38406,14.23196 29.21423,-13.83473 29.7654,1.04697 0.55118,14.8817 -26.28713,-11.27134 -29.6064,3.24593 -3.31927,14.51727 32.21763,2.62589 25.25411,15.7894 -6.96352,13.16352 -17.12965,-22.90483 -27.26286,-11.99214 -10.13322,10.91269 26.58833,18.38289 13.97599,26.30107 -12.61234,7.91818 -3.38229,-28.40099 -17.61426,-24.01693 -14.23196,4.38406 13.83473,29.21423 -1.04697,29.7654 z"
       transform="translate(367.3387,-119.09607)" /><path
       style="fill:#9a9bff;fill-opacity:1;stroke-width:1.39617;paint-order:markers stroke fill"
       d="M 337.38298,747.60599 C 291.15833,742.34891 250.8637,730.64463 210.1234,710.64119 127.07543,669.86475 61.972,599.54962 27.23208,513.10891 21.810493,499.6188 12.565519,471.29225 12.565519,468.17068 c 0,-0.63373 43.036902,-1.15223 95.637561,-1.15223 h 95.63756 v -29.27573 c 0,-25.44925 0.27373,-29.17068 2.09425,-28.47208 1.15184,0.44201 2.09426,2.30711 2.09426,4.14469 0,2.33166 0.78799,3.34105 2.60823,3.34105 2.41039,0 2.65499,-1.66803 3.22439,-21.98966 0.33887,-12.09431 0.35083,-26.54466 0.0265,-32.11188 -0.5115,-8.7814 -0.93861,-10.12223 -3.22439,-10.12223 -1.68999,0 -2.63478,0.98557 -2.63478,2.74853 0,1.86951 -0.66976,2.4915 -2.09426,1.94488 -1.15183,-0.44202 -2.09425,-1.99298 -2.09425,-3.44661 0,-2.50044 1.43053,-2.64297 26.52721,-2.64297 25.59642,0 26.5272,-0.098 26.5272,-2.79233 0,-2.69436 -0.93078,-2.79234 -26.5272,-2.79234 -16.75403,0 -26.52721,-0.51438 -26.52721,-1.39617 0,-0.88179 9.77318,-1.39617 26.52721,-1.39617 25.59642,0 26.5272,-0.098 26.5272,-2.79234 0,-2.69435 -0.93078,-2.79233 -26.5272,-2.79233 -16.75403,0 -26.52721,-0.51438 -26.52721,-1.39617 0,-0.88179 9.77318,-1.39617 26.52721,-1.39617 h 26.5272 v -3.49042 -3.49042 h -26.5272 -26.52721 v -30.04757 -30.04756 l 3.49042,-1.59033 c 2.61549,-1.1917 4.37239,-1.18851 7.00888,0.0126 5.3608,2.44256 6.31603,6.77012 3.80807,17.25204 -2.61515,10.92991 -1.88053,13.70495 3.62805,13.70495 6.88975,0 7.90275,-2.85366 4.54383,-12.79998 -3.59774,-10.65351 -3.67294,-14.02089 -0.37966,-17.00126 3.96814,-3.59111 9.56042,-2.76066 18.47888,2.74413 8.84438,5.45906 11.8925,5.43491 13.283,-0.10527 1.67983,-6.69301 0.18335,-7.74184 -11.04622,-7.74184 -8.33327,0 -11.03695,-0.55861 -14.0055,-2.89367 -5.68094,-4.46864 -4.8559,-9.03516 2.92265,-16.17666 3.63077,-3.33339 7.04394,-6.06071 7.58486,-6.06071 0.5409,0 1.39657,-1.30158 1.90148,-2.89239 1.75666,-5.53479 -6.6387,-10.9302 -10.16353,-6.53175 -0.76921,0.95987 -2.40224,5.24721 -3.62894,9.52744 -2.5106,8.7601 -5.75305,12.46222 -10.91483,12.46222 -4.67966,0 -7.81731,-3.74496 -12.56394,-14.99573 l -3.94747,-9.35648 v -40.89005 c 0,-40.56405 0.0223,-40.8761 2.79717,-39.14318 3.92422,2.45072 7.6741,-0.17121 7.6741,-5.36578 0,-3.5035 -0.69115,-4.20708 -5.23564,-5.3297 l -5.23563,-1.29336 v -9.52695 c 0,-8.40995 0.30925,-9.52695 2.63767,-9.52695 1.4507,0 4.08924,-1.17541 5.86338,-2.61203 3.1595,-2.5584 3.17447,-2.69026 0.72938,-6.42193 -1.87498,-2.86159 -3.33442,-3.6497 -5.86339,-3.16626 l -3.36704,0.64366 V 71.933188 41.635191 l 3.83946,-1.797718 c 10.39061,-4.865101 35.49144,-15.40452 36.68763,-15.40452 0.74688,0 1.35797,1.354318 1.35797,3.009594 0,1.655277 1.57069,5.068875 3.49042,7.585773 1.98263,2.599354 3.49043,6.439684 3.49043,8.890027 v 4.313847 l -3.65513,-2.394932 c -2.01032,-1.317211 -4.82096,-5.114697 -6.24586,-8.438854 -2.85166,-6.652661 -5.78708,-8.607357 -8.96507,-5.969855 -4.01735,3.334104 -2.5007,7.746874 3.60958,10.502221 5.21026,2.349506 9.6718,6.658002 9.6718,9.340042 0,2.664405 -7.63111,0.694525 -12.51559,-3.230749 -6.61989,-5.319891 -10.36144,-4.976709 -10.94508,1.003904 -0.48855,5.006191 2.31466,6.415294 10.21265,5.133626 3.41487,-0.554157 5.66042,-0.0068 8.21453,2.002242 l 3.51496,2.764873 -3.44446,1.569401 c -2.10828,0.960598 -6.68818,1.230366 -11.80625,0.695422 l -8.3618,-0.87398 v 4.431217 c 0,5.948232 3.22984,6.940401 10.33801,3.17571 3.14487,-1.665615 7.78916,-3.026645 10.32066,-3.024513 l 4.60273,0.0039 -2.50848,3.493462 c -1.46511,2.040417 -4.95894,4.137427 -8.39997,5.041706 -6.89107,1.810923 -9.33787,4.224772 -8.13239,8.022879 1.57816,4.972364 5.32408,4.947116 9.47258,-0.06385 7.27073,-8.782347 8.04961,-9.513387 10.13599,-9.513387 3.83455,0 2.26849,6.264194 -2.79234,11.169351 -5.77827,5.60052 -6.20924,9.23041 -1.35829,11.440643 4.70652,2.144442 6.12024,0.495721 7.16918,-8.360934 0.51223,-4.324952 1.87063,-8.101307 3.41783,-9.50149 2.42097,-2.190947 2.64604,-2.117718 3.93836,1.281312 0.99741,2.623421 0.77894,5.341613 -0.80236,9.982471 -2.57829,7.566893 -1.79916,10.515854 2.77836,10.515854 5.80009,0 7.07756,-3.171487 4.04378,-10.039206 -1.6608,-3.759617 -2.43027,-7.956316 -2.05118,-11.187023 l 0.60666,-5.170288 3.47983,4.135523 c 1.91389,2.274539 3.81489,6.633755 4.22444,9.687148 0.95578,7.125907 3.44598,9.346151 8.10278,7.224371 4.81343,-2.193145 4.31441,-4.853747 -1.92222,-10.24863 -5.72201,-4.949725 -9.36681,-13.457721 -5.0567,-11.803775 1.25365,0.48107 3.0869,0.874673 4.0739,0.874673 0.98699,0 3.45762,2.513104 5.49029,5.584675 3.73231,5.639893 7.28592,6.981114 10.35776,3.909273 4.3609,-4.360908 -0.30262,-9.493948 -8.62555,-9.493948 -1.72607,0 -4.90066,-1.839494 -7.05464,-4.087764 l -3.91632,-4.087763 4.70224,-0.449785 c 2.70256,-0.258508 6.48344,0.587034 8.89074,1.988292 2.30368,1.340942 5.91627,2.440425 8.02797,2.443295 3.45817,0.0047 3.83947,-0.48006 3.83947,-4.881372 0,-5.513336 -1.89703,-6.096354 -11.00737,-3.382912 -3.62651,1.080125 -6.17417,1.073094 -9.04459,-0.02496 l -3.99602,-1.528641 3.51815,-2.767374 c 2.31577,-1.821579 5.65098,-2.767374 9.75878,-2.767374 7.72377,0 10.52982,-2.637416 8.21391,-7.720275 -2.11616,-4.644451 -4.81209,-4.34297 -11.05149,1.235865 -4.6286,4.138579 -13.00284,7.550763 -12.8691,5.243674 0.16965,-2.926905 4.43978,-7.801934 9.13647,-10.43074 6.88475,-3.85349 7.99812,-8.498838 2.62388,-10.947512 -3.2361,-1.474462 -3.9973,-1.349822 -5.66226,0.927139 -1.05795,1.446835 -2.30112,4.643263 -2.7626,7.103172 -0.50124,2.671804 -2.47584,5.682691 -4.90435,7.478165 l -4.06529,3.005601 v -4.866387 c 0,-2.888452 1.41867,-6.95692 3.49042,-10.009809 4.42985,-6.527743 4.39491,-8.667493 -0.16983,-10.403005 -5.86827,-2.231112 -7.83621,0.450772 -6.74421,9.190901 0.6659,5.329694 0.32742,8.341557 -1.2686,11.287956 -1.34338,2.480019 -2.19823,3.148641 -2.23273,1.746323 -0.0307,-1.249789 -0.89375,-2.967698 -1.91779,-3.817577 -1.29768,-1.076978 -1.66884,-3.87325 -1.22481,-9.227649 0.58248,-7.02387 0.36194,-7.784201 -2.5727,-8.869795 -2.98382,-1.103784 -3.02045,-1.245283 -0.5204,-2.009867 C 298.81534,6.9891537 323.00586,2.6037457 363.00388,1.1692321 451.86488,-2.0177335 538.62939,26.931734 609.42767,83.389932 l 11.16935,8.907015 -0.48704,8.302113 c -0.53669,9.14837 -2.62969,13.50935 -4.70438,9.80208 -0.75256,-1.34476 -0.4062,-4.54223 0.9129,-8.42755 2.61271,-7.69555 1.69868,-10.524536 -3.40041,-10.524536 -5.22582,0 -6.16001,3.183257 -3.01842,10.285336 2.91285,6.58501 2.19267,12.61481 -1.04129,8.71813 -1.00868,-1.21538 -1.94834,-5.08545 -2.08815,-8.60016 -0.14546,-3.656738 -1.07121,-6.895322 -2.16412,-7.570773 -2.66913,-1.649616 -7.5458,0.436771 -8.41445,3.599952 -0.45407,1.653549 -1.97511,2.642611 -4.06394,2.642611 -1.83604,0 -4.03501,1.13755 -4.88659,2.52789 -1.276,2.08326 -0.8593,3.12696 2.36898,5.93372 2.15453,1.8732 4.8026,3.40583 5.8846,3.40583 1.72576,0 4.85786,3.99161 4.85786,6.19097 0,2.67137 -5.34,-0.0528 -9.39901,-4.79481 -2.62914,-3.07157 -5.68719,-5.58467 -6.79566,-5.58467 -3.06594,0 -5.56807,6.40452 -3.48345,8.91634 1.35652,1.63451 1.11499,2.1959 -1.27046,2.95301 -2.3188,0.73596 -2.85423,1.87477 -2.5168,5.35305 0.46262,4.76902 2.50274,5.34603 11.59794,3.28025 4.37341,-0.99333 9.11882,0.86509 7.16826,2.80726 -0.62034,0.61767 -5.00008,1.12304 -9.73275,1.12304 h -8.60486 v 4.18851 c 0,5.60401 4.05378,6.13479 10.97614,1.43715 3.564,-2.4186 5.94607,-3.18537 7.38834,-2.37824 1.88572,1.05531 1.86408,1.45561 -0.18974,3.50943 -1.27503,1.27503 -4.03812,2.31825 -6.14018,2.31825 -7.85653,0 -11.28755,6.69459 -5.28989,10.32162 2.1639,1.30859 3.34815,0.63522 7.717,-4.3879 2.83846,-3.26355 6.18438,-5.93372 7.43536,-5.93372 3.67327,0 1.41229,5.13301 -3.08076,6.99411 -5.29249,2.19222 -8.60668,6.05726 -7.5516,8.80678 1.17291,3.05653 5.87347,4.34796 8.3487,2.29369 1.68393,-1.39753 2.02725,-1.06691 2.02725,1.95231 0,2.69016 0.88648,3.85728 3.41106,4.4909 5.16991,1.29756 6.36212,-0.27528 6.36212,-8.39329 0,-4.61862 0.73002,-8.03145 1.93121,-9.02834 3.15052,-2.6147 3.806,1.71194 1.35092,8.9172 -2.47213,7.25531 -0.92355,10.95488 4.27462,10.21218 3.73382,-0.53347 4.55641,-6.40887 1.67691,-11.97723 -1.15681,-2.23701 -1.7554,-5.3976 -1.33021,-7.02352 1.26398,-4.83345 4.66207,-0.0935 4.66207,6.50298 0,7.63437 1.14609,9.9871 4.86501,9.9871 7.38255,0 7.45023,-5.63122 0.14978,-12.45984 -4.92738,-4.60892 -4.90888,-10.68413 0.0226,-7.41419 0.85082,0.56416 2.85738,4.01006 4.45904,7.65755 3.04574,6.93615 4.21488,7.61127 8.86814,5.12091 2.09604,-1.12176 2.6049,-2.38027 1.97586,-4.88659 -0.66352,-2.64349 -0.29642,-3.3757 1.69242,-3.3757 3.20666,0 5.89051,-2.62884 5.89051,-5.76982 0,-2.51448 -1.43804,-3.17955 -9.98194,-4.61647 -6.07314,-1.0214 -9.46992,-4.17332 -5.95223,-5.52318 1.26811,-0.48662 4.3846,0.41847 6.99409,2.03124 6.621,4.092 11.03433,3.22098 11.03433,-2.17771 0,-3.73415 -0.45436,-4.18312 -4.18851,-4.13884 -2.30368,0.0273 -5.76442,0.47238 -7.69053,0.98904 -4.10948,1.10231 -7.77455,-0.70041 -6.29409,-3.09585 0.726,-1.17469 3.47304,-1.38804 9.24555,-0.71807 6.73007,0.7811 8.36269,0.56223 9.04368,-1.2124 0.61407,-1.60021 2.91562,0.27786 8.8159,7.19378 77.7538,91.13782 106.48984,213.35183 77.9906,331.69291 l -4.32728,17.96876 -3.72425,-12.45716 c -2.89643,-9.68813 -13.83206,-38.09514 -20.46038,-53.14895 -0.58327,-1.32467 2.29549,-1.74521 11.94646,-1.74521 10.2364,0 12.71489,-0.39871 12.71489,-2.04542 0,-1.63396 -2.87865,-2.13642 -14.31073,-2.49788 l -14.31073,-0.45249 14.31073,-0.29444 c 13.2033,-0.27166 14.31073,-0.5071 14.31073,-3.04247 0,-2.55227 -1.16872,-2.77954 -16.40498,-3.1902 l -16.40499,-0.44217 16.40499,-0.30023 c 15.37413,-0.28136 16.40498,-0.47569 16.40498,-3.09256 0,-2.63046 -0.93078,-2.79234 -16.05594,-2.79234 h -16.05594 v -3.49042 -3.49042 h 15.35786 c 12.72064,0 15.35785,-0.35963 15.35785,-2.09425 0,-1.73463 -2.63721,-2.09426 -15.35785,-2.09426 -9.3078,0 -15.35786,-0.55 -15.35786,-1.39617 0,-0.84616 6.05006,-1.39616 15.35786,-1.39616 12.72064,0 15.35785,-0.35963 15.35785,-2.09426 0,-1.73463 -2.63721,-2.09425 -15.35785,-2.09425 -9.3078,0 -15.35786,-0.55001 -15.35786,-1.39617 0,-0.84616 6.05006,-1.39617 15.35786,-1.39617 12.72064,0 15.35785,-0.35962 15.35785,-2.09425 0,-1.73463 -2.63721,-2.09425 -15.35785,-2.09425 h -15.35786 v -3.49043 -3.49042 h 16.05594 c 13.34117,0 16.05594,-0.35409 16.05594,-2.09425 0,-1.74016 -2.71477,-2.09425 -16.05594,-2.09425 -9.77318,0 -16.05594,-0.54633 -16.05594,-1.39617 0,-0.84985 6.28276,-1.39617 16.05594,-1.39617 13.34117,0 16.05594,-0.3541 16.05594,-2.09425 0,-1.74016 -2.71477,-2.09426 -16.05594,-2.09426 -9.77318,0 -16.05594,-0.54632 -16.05594,-1.39617 0,-0.84984 6.28276,-1.39617 16.05594,-1.39617 13.34117,0 16.05594,-0.35409 16.05594,-2.09425 0,-1.75794 -3.02118,-2.09425 -18.81369,-2.09425 h -18.8137 l -0.42071,22.68774 -0.42072,22.68774 -0.31196,-22.68774 c -0.29607,-21.53315 -0.45186,-22.68774 -3.06131,-22.68774 -2.56152,0 -2.77937,1.16856 -3.18854,17.10307 l -0.43918,17.10306 -0.30188,-17.10306 c -0.24954,-14.13778 -0.66498,-17.10307 -2.39613,-17.10307 -1.69844,0 -2.09426,2.25854 -2.09426,11.94983 0,7.61102 -0.50692,11.63654 -1.39616,11.08695 -0.7679,-0.47458 -1.39617,-5.85201 -1.39617,-11.94983 0,-8.92429 -0.40852,-11.08695 -2.09426,-11.08695 -1.58861,0 -2.09425,1.72431 -2.09425,7.14174 v 7.14173 l -9.30967,-12.37737 c -27.91589,-37.11469 -60.96891,-68.70194 -96.51054,-92.23071 -15.08766,-9.98812 -47.54238,-26.49311 -62.41813,-31.74301 -50.37469,-17.77809 -99.14826,-18.76232 -138.73515,-2.7996 -10.38346,4.18696 -12.56326,4.63416 -15.88381,3.25875 -4.82567,-1.99886 -8.0347,0.2224 -8.0347,5.56157 0,2.22663 -1.15731,4.40447 -2.92829,5.51046 -4.26366,2.6627 -4.78386,1.05391 -1.41947,-4.38979 4.06088,-6.57065 3.84601,-10.45128 -0.64105,-11.57745 -5.52279,-1.38613 -6.9731,1.06752 -5.34084,9.03569 1.68727,8.23673 -0.0701,14.34155 -2.98203,10.35921 -1.13383,-1.55061 -1.47679,-5.15151 -0.99581,-10.45578 l 0.73363,-8.09063 h -4.42624 c -7.20616,0 -7.31862,3.3651 -0.47664,14.26137 1.57655,2.51075 1.91158,4.25843 0.99251,5.1775 -2.36977,2.36977 -4.88415,-0.52973 -6.65015,-7.66878 -1.7825,-7.20579 -4.85252,-9.35828 -8.74265,-6.12975 -3.44166,2.85632 -2.264,6.3974 3.36684,10.12372 6.24406,4.13211 8.97889,10.10762 3.9144,8.55282 -1.66411,-0.5109 -3.05108,-1.00791 -3.08214,-1.1045 -0.0311,-0.0966 -1.7908,-2.53163 -3.91052,-5.41123 -4.59482,-6.24196 -8.83115,-6.8782 -10.17398,-1.52798 -1.07169,4.27 2.10515,7.4617 7.42698,7.4617 1.77297,0 4.63719,1.41362 6.36495,3.14138 l 3.14138,3.14138 -3.04388,0.43337 c -1.67414,0.23835 -5.6553,-1.29478 -8.84704,-3.40697 -6.55853,-4.34023 -10.44778,-3.43652 -10.44778,2.42768 0,3.10758 0.5306,3.34282 7.67893,3.40429 4.22341,0.0363 8.87888,0.7458 10.34547,1.57661 2.61156,1.47941 2.60952,1.54109 -0.0986,2.99044 -1.94369,1.04025 -4.48914,1.0423 -8.56819,0.007 -7.64666,-1.94092 -10.36248,-0.81081 -9.80013,4.0781 0.54505,4.73856 5.23812,5.84108 10.41759,2.44736 1.94196,-1.27241 3.73909,-2.10523 3.99363,-1.85069 1.09144,1.09144 -3.13213,4.77672 -6.98783,6.09725 -3.39039,1.16115 -4.18851,2.22382 -4.18851,5.57676 0,2.27824 -3.3011,10.53352 -7.33576,18.34508 -8.27733,16.02577 -14.5286,33.9363 -17.72397,50.78096 -1.19111,6.27867 -2.16561,11.66055 -2.16561,11.95967 0,0.29912 -6.5969,0.54385 -14.65977,0.54385 h -14.65978 v 34.90422 c 0,30.0952 0.28855,34.90422 2.09426,34.90422 1.80214,0 2.09425,-4.57634 2.09425,-32.80997 v -32.80996 h 12.64792 c 8.07642,0 12.33603,0.50463 11.78503,1.39616 -0.47458,0.7679 -5.53787,1.39617 -11.25175,1.39617 h -10.38886 v 31.4138 c 0,26.99259 0.29474,31.4138 2.09425,31.4138 1.79507,0 2.09425,-4.18851 2.09425,-29.31955 v -29.31954 l 8.72606,0.25826 8.72605,0.25827 -7.32988,0.51278 -7.32989,0.51279 v 28.54849 c 0,24.44566 0.30097,28.5485 2.09425,28.5485 1.7861,0 2.09426,-3.80068 2.09426,-25.82912 v -25.82913 l 5.23563,0.16518 c 5.07075,0.15999 5.10372,0.19337 1.04713,1.05967 l -4.18851,0.89448 -0.38125,24.76946 c -0.37032,24.05849 -0.30019,24.76946 2.44329,24.76946 2.49292,0 2.82455,-0.90159 2.82455,-7.67893 0,-12.65729 2.17208,-8.69791 4.02109,7.32989 8.79002,76.19395 47.53376,155.82766 106.36434,218.62077 26.85062,28.65913 66.17022,58.00128 98.97987,73.86347 9.94195,4.80654 18.10641,9.11134 18.14324,9.56623 0.18705,2.30995 -44.57634,13.6889 -68.3453,17.37353 -17.15116,2.65874 -74.41613,3.91492 -91.24083,2.00147 z M 221.99083,384.64449 c 0,-31.18109 -0.081,-32.11188 -2.79233,-32.11188 -2.71141,0 -2.79234,0.93079 -2.79234,32.11188 0,31.1811 0.081,32.11189 2.79234,32.11189 2.7114,0 2.79233,-0.93079 2.79233,-32.11189 z m 8.37702,0 c 0,-31.18109 -0.081,-32.11188 -2.79234,-32.11188 -2.7114,0 -2.79234,0.93079 -2.79234,32.11188 0,31.1811 0.081,32.11189 2.79234,32.11189 2.7114,0 2.79234,-0.93079 2.79234,-32.11189 z m 9.77318,0 c 0,-31.18109 -0.081,-32.11188 -2.79234,-32.11188 -2.7114,0 -2.79234,0.93079 -2.79234,32.11188 0,31.1811 0.081,32.11189 2.79234,32.11189 2.7114,0 2.79234,-0.93079 2.79234,-32.11189 z m 436.85224,-59.75764 c 0.95441,-1.78331 0.62047,-4.13489 -1.14808,-8.08509 -1.46396,-3.26986 -2.22266,-7.41857 -1.83711,-10.04556 l 0.65683,-4.47519 3.3086,3.13614 c 2.01552,1.91046 3.32549,4.77313 3.35179,7.32465 0.0825,7.9974 1.46087,10.65836 5.28235,10.19735 1.93389,-0.2333 4.1746,-1.47609 4.97934,-2.76177 1.17573,-1.87835 0.31192,-3.58659 -4.39672,-8.69487 -5.85832,-6.35552 -7.47489,-10.60814 -4.03251,-10.60814 2.50305,0 5.53441,2.6393 9.22052,8.02797 3.21919,4.70608 6.72722,5.7503 9.61537,2.86215 4.19633,-4.19633 0.91188,-7.73742 -9.49394,-10.23585 -1.91973,-0.46092 -4.61924,-2.36738 -5.99889,-4.23657 l -2.50849,-3.39854 h 4.35412 c 2.39475,0 7.14833,1.63752 10.56349,3.63893 6.96508,4.08181 10.34379,3.05105 10.34379,-3.15562 0,-4.34288 -3.01377,-5.41108 -10.45951,-3.70726 -4.8438,1.10843 -6.55536,0.94494 -8.94015,-0.85391 l -2.94947,-2.22479 2.95395,-1.84477 c 1.9935,-1.24496 5.09122,-1.55082 9.52737,-0.94069 8.12183,1.11703 11.25879,-1.40828 8.70684,-7.00918 -2.0379,-4.47272 -4.04732,-4.34807 -10.87723,0.67469 -3.70885,2.72753 -6.60681,3.86243 -8.55901,3.35192 -5.05365,-1.32156 -1.29367,-6.6429 6.08894,-8.61745 6.58613,-1.76151 8.89753,-4.75106 6.55033,-8.47214 -2.65353,-4.20673 -7.74753,-2.71995 -11.08868,3.23644 -1.69373,3.01948 -4.78225,6.38213 -6.86338,7.47253 -3.75634,1.96815 -3.77672,1.95361 -2.80204,-1.99955 0.54001,-2.19015 2.87636,-5.95171 5.19192,-8.35899 5.58078,-5.80189 5.15026,-10.98097 -0.91283,-10.98097 -4.03595,0 -4.20451,0.25389 -4.6279,6.97073 -0.39526,6.27092 -3.17882,11.87754 -5.89692,11.87754 -2.29335,0 -2.53751,-6.65976 -0.44595,-12.16382 2.82354,-7.43034 1.82849,-10.17488 -3.689,-10.17488 -5.44977,0 -6.36102,2.48622 -3.39441,9.26117 2.14068,4.88878 2.86113,11.28388 1.43216,12.71283 -0.30699,0.307 -1.8759,-0.26476 -3.48647,-1.27057 -1.90994,-1.19278 -2.93493,-3.28995 -2.94735,-6.03046 -0.0431,-9.50704 -3.11255,-13.29172 -8.4591,-10.43033 -4.00657,2.14425 -3.26938,6.12979 1.98752,10.74542 2.57331,2.25939 5.11095,5.83012 5.63924,7.93497 0.87639,3.49179 0.6806,3.7447 -2.23542,2.88757 -1.75777,-0.51668 -4.13836,-2.27401 -5.2902,-3.90518 -5.81595,-8.23623 -8.14346,-10.07734 -10.73571,-8.49217 -6.02666,3.68533 -3.268,9.59732 5.14126,11.01806 3.43746,0.58075 6.18753,2.09502 7.53239,4.14753 2.01431,3.07422 1.93795,3.26728 -1.55624,3.93524 -2.46655,0.47151 -5.39608,-0.43689 -8.91159,-2.76334 -6.8941,-4.5623 -10.18639,-3.88164 -10.77105,2.22685 l -0.45267,4.72942 8.21296,-0.74473 c 5.29602,-0.48023 9.383,-0.11853 11.5073,1.01834 l 3.29431,1.76307 -3.3757,1.8691 c -1.95604,1.08307 -6.39269,1.69361 -10.5497,1.45181 -7.88871,-0.45888 -9.62965,0.83971 -8.28867,6.18258 1.14121,4.54699 6.26075,4.51232 11.71765,-0.0793 3.90512,-3.28595 11.42397,-4.83758 11.42397,-2.35751 0,2.39251 -5.64588,7.03568 -9.61515,7.90748 -7.20496,1.58247 -9.44385,7.61751 -4.07923,10.99572 2.86787,1.80594 6.99817,-1.41645 9.47266,-7.39041 1.28129,-3.0933 6.32755,-7.06103 8.98039,-7.06103 1.91464,0 -1.88354,8.69684 -5.62657,12.88335 -5.15463,5.76536 -5.00764,8.97874 0.47368,10.35446 4.35951,1.09416 5.91873,-1.13927 5.98855,-8.57803 0.0296,-3.14801 1.13991,-6.99819 2.54483,-8.82435 l 2.4924,-3.23968 1.61358,3.54142 c 1.27159,2.79083 1.18063,4.57765 -0.42918,8.43047 -2.50342,5.99149 -2.6142,10.10013 -0.29757,11.03492 3.59116,1.44905 6.57517,0.84688 7.87939,-1.59007 z m -54.30136,-69.38873 c 1.40712,-1.69548 1.21193,-3.3597 -1.02339,-8.72606 -1.8345,-4.40409 -2.54963,-8.58792 -2.1294,-12.45791 l 0.63273,-5.82689 4.09184,4.66036 c 2.25051,2.5632 5.04069,7.85546 6.20039,11.7606 2.33753,7.8713 5.27238,9.1775 9.6793,4.3079 2.44019,-2.69639 2.43693,-2.89189 -0.0951,-5.68972 -1.44216,-1.59356 -4.36677,-3.92798 -6.49915,-5.18762 -2.13238,-1.25962 -3.87705,-3.01245 -3.87705,-3.89517 0,-0.88271 -1.25655,-3.20239 -2.79234,-5.15482 -3.7461,-4.7624 -3.52003,-5.41771 1.04713,-3.03526 2.1117,1.10158 4.84158,2.00673 6.06637,2.01146 1.2248,0.004 3.42228,1.32948 4.88329,2.94388 1.46102,1.6144 4.34542,3.80871 6.40978,4.87623 3.28502,1.69875 4.03516,1.65919 6.01132,-0.31697 1.24185,-1.24185 2.06742,-3.59322 1.83458,-5.22527 -0.36377,-2.54979 -1.50158,-3.02836 -8.0857,-3.40089 -4.2813,-0.24223 -8.68159,-1.35593 -9.97221,-2.52391 -1.27041,-1.14972 -4.10511,-2.62839 -6.29933,-3.28592 -3.89183,-1.16629 -3.90405,-1.1997 -0.49906,-1.36503 1.91973,-0.0933 4.96661,-0.98815 6.77085,-1.98875 2.44843,-1.35786 4.80303,-1.47084 9.28399,-0.44545 7.45823,1.70669 10.47237,0.64052 10.47237,-3.70432 0,-6.73545 -4.79672,-7.59215 -12.56552,-2.24423 -2.58865,1.782 -16.75403,4.54009 -16.75403,3.26214 0,-0.10094 2.0419,-2.40693 4.53755,-5.1243 2.49565,-2.71738 7.20772,-6.00596 10.47127,-7.30794 4.54187,-1.81196 5.93371,-3.1103 5.93371,-5.5351 0,-1.74233 -0.99507,-3.99373 -2.21128,-5.00309 -3.0362,-2.51982 -6.20125,-0.34387 -9.46335,6.50598 -1.42976,3.00223 -3.18073,5.67575 -3.89106,5.94118 -0.71032,0.26542 -3.09417,1.99942 -5.29742,3.85335 l -4.00595,3.37076 0.74346,-5.9476 c 0.4089,-3.27118 2.56854,-8.75512 4.79919,-12.18651 5.15188,-7.92508 4.7491,-10.51512 -1.63524,-10.51512 H 620.597 l 0.33857,7.67893 c 0.20685,4.69112 -0.50054,9.45047 -1.81805,12.23193 -1.18614,2.50417 -1.77263,5.17434 -1.30331,5.93372 0.46935,0.75939 0.188,1.38071 -0.62521,1.38071 -0.81322,0 -1.47857,-1.11675 -1.47857,-2.48168 0,-1.36493 -0.90809,-3.77816 -2.01796,-5.36272 -1.10988,-1.58457 -2.20936,-6.59351 -2.44329,-11.13096 -0.37055,-7.1871 -0.80763,-8.30447 -3.39269,-8.67328 -1.63205,-0.23284 -3.98343,0.59273 -5.22528,1.83458 -1.97616,1.97617 -2.01571,2.7263 -0.31697,6.01132 1.06753,2.06436 3.26183,4.94876 4.87623,6.40978 1.79763,1.62683 2.93528,4.35824 2.93528,7.04736 0,2.41502 0.68302,5.07398 1.51782,5.90878 1.09299,1.09299 1.09299,1.78039 0,2.45589 -0.8348,0.51594 -1.51782,0.25152 -1.51782,-0.58759 0,-0.83911 -2.226,-2.83901 -4.94665,-4.44425 -2.72065,-1.60523 -6.18894,-5.35369 -7.7073,-8.32993 -3.18383,-6.2408 -8.49629,-7.44842 -11.12868,-2.52975 -2.05326,3.83656 0.16529,6.43968 7.07383,8.29995 2.91753,0.78561 7.55641,3.68019 10.30862,6.4324 2.7522,2.7522 5.00401,5.13135 5.00401,5.287 0,1.18699 -15.70452,-2.00156 -19.76851,-4.01367 -6.49376,-3.21512 -9.55103,-2.11031 -9.55103,3.45144 0,5.16914 2.54493,6.43079 8.66698,4.29663 4.90587,-1.7102 20.65256,-0.59062 20.65256,1.46839 0,0.6687 -1.17182,1.21583 -2.60405,1.21583 -1.43223,0 -4.2015,1.25655 -6.15393,2.79234 -1.95243,1.53578 -5.53398,2.79233 -7.959,2.79233 -8.27771,0 -12.59276,5.03601 -8.13482,9.49395 2.89042,2.89042 6.4305,1.84452 10.11728,-2.98908 2.19381,-2.87624 5.70023,-5.30638 9.14615,-6.33881 3.07361,-0.92087 5.58837,-2.31445 5.58837,-3.09684 0,-0.78238 0.63934,-1.02738 1.42074,-0.54445 0.87028,0.53786 0.32933,2.26556 -1.39617,4.45918 -1.5493,1.96962 -2.81691,4.38603 -2.81691,5.36978 0,0.98375 -2.5131,3.77907 -5.58467,6.21179 -6.42735,5.09054 -7.15146,9.11918 -2.05638,11.44064 4.6209,2.10542 6.20804,0.45942 7.80635,-8.09582 0.68553,-3.66951 2.49947,-8.00563 4.03099,-9.63586 1.53151,-1.63021 2.78456,-3.70888 2.78456,-4.61925 0,-0.91037 0.69549,-1.65523 1.54554,-1.65523 0.85005,0 1.19772,0.90642 0.7726,2.01426 -0.42512,1.10784 -0.21604,3.95603 0.4646,6.32932 0.88646,3.09091 0.60299,6.02716 -0.99918,10.35006 -1.2302,3.31925 -1.84034,7.06795 -1.35587,8.33045 1.10164,2.87087 7.02444,2.99788 9.34613,0.20044 z m -92.4121,-32.36567 c 0.23858,-1.67578 -0.60662,-5.05876 -1.87821,-7.51774 -3.07268,-5.9419 -3.70119,-17.65867 -1.00279,-18.69415 2.87802,-1.1044 9.17459,4.53813 13.059,11.70253 4.5893,8.46451 7.35774,9.98044 11.20344,6.13475 4.15213,-4.15213 2.64005,-6.827 -6.06367,-10.72651 -8.26979,-3.70511 -14.40138,-9.50138 -13.24337,-12.5191 1.02758,-2.67785 11.12917,-2.76564 18.83221,-0.16366 7.64584,2.58265 8.29744,2.54692 9.95263,-0.54581 3.76087,-7.02729 -2.55249,-10.90197 -10.80776,-6.63301 -2.09496,1.08336 -6.9284,2.16157 -10.74096,2.39601 -5.46465,0.33606 -7.02291,-0.0462 -7.36182,-1.806 -0.58922,-3.05963 6.18186,-10.0162 13.15225,-13.51251 6.81225,-3.41701 8.05103,-5.79236 5.16768,-9.90892 -3.48858,-4.98065 -7.63529,-3.19333 -10.88843,4.69317 -3.14561,7.6258 -9.93449,15.29274 -12.6266,14.25968 -2.67114,-1.02502 -3.25737,-10.66663 -1.04678,-17.21611 2.7571,-8.16865 1.9533,-12.18582 -2.54286,-12.70848 -2.04752,-0.238 -4.41234,0.54723 -5.4639,1.8143 -1.56157,1.88157 -1.37757,3.38338 1.16662,9.5217 3.53863,8.5376 3.99835,17.41756 0.96201,18.5827 -2.92913,1.12401 -9.83152,-4.84593 -12.67005,-10.95844 -4.56753,-9.83572 -10.78555,-11.89349 -12.71455,-4.20771 -1.02889,4.09942 1.46444,6.49611 9.26622,8.90708 5.74153,1.77431 11.86101,8.6159 10.61376,11.86622 -0.87095,2.26963 -4.94952,2.20795 -22.80343,-0.34493 l -5.93372,-0.84844 v 5.03323 c 0,4.7579 0.24823,5.03053 4.53755,4.98376 2.49565,-0.0272 6.10824,-0.94735 8.02797,-2.04477 4.7771,-2.73084 16.20738,-2.74025 17.25346,-0.0142 1.03183,2.68887 -4.97089,8.79914 -13.0495,13.28333 -6.75598,3.75003 -8.50804,8.76748 -4.04469,11.5829 3.60812,2.27593 6.6948,0.1082 9.64454,-6.77331 3.37282,-7.86846 9.93041,-14.80179 12.49848,-13.21464 2.80931,1.73626 3.03238,9.73945 0.49138,17.63054 -2.95195,9.1673 -1.9336,12.03051 4.07297,11.45164 3.44065,-0.33157 4.65271,-1.17965 4.98092,-3.4851 z m -252.8645,-5.54541 c 0.48743,-1.27025 0.0543,-5.19697 -0.96249,-8.72606 -3.30751,-11.47959 -3.31295,-15.86385 -0.0248,-20.044 3.43728,-4.36979 8.89394,-4.94833 20.78457,-2.20364 8.27072,1.90911 11.34076,0.33644 11.34076,-5.80948 0,-6.20518 -3.17939,-7.84961 -10.9284,-5.65238 -15.41253,4.37022 -20.17347,3.67663 -23.56373,-3.43282 -1.95635,-4.10253 -2.0547,-5.88652 -0.65801,-11.93728 3.28027,-14.21089 1.49298,-18.09151 -7.31428,-15.88104 -4.35781,1.09374 -4.53492,3.36471 -1.25934,16.14716 2.24626,8.76569 2.24294,9.46019 -0.0621,12.97815 -3.96424,6.05019 -7.8894,7.09016 -18.91119,5.0105 -12.02125,-2.26825 -14.09221,-1.56741 -14.09221,4.76902 0,7.19437 2.96086,8.14657 14.71467,4.73217 11.78903,-3.42462 16.49873,-2.24403 19.47624,4.88214 1.6785,4.01722 1.65204,5.93226 -0.19379,14.02441 -1.68425,7.38378 -1.77851,9.80474 -0.44436,11.4123 2.37279,2.85903 10.97154,2.66774 12.09854,-0.26915 z m 154.90977,-13.7924 c 0.4517,-1.17714 -0.51042,-5.34472 -2.13808,-9.26128 -8.43591,-20.29909 1.62646,-25.86824 14.46095,-8.00358 5.54092,7.71258 9.64294,8.85873 12.13443,3.39051 2.14347,-4.70437 -0.0257,-7.03659 -9.07819,-9.76053 -9.63386,-2.89886 -14.05999,-6.69073 -12.95392,-11.09764 0.66196,-2.63749 2.08381,-3.5784 6.54696,-4.33244 3.13572,-0.52978 8.40555,-0.55771 11.7107,-0.0621 9.03459,1.35483 12.49518,-3.37958 7.34007,-10.04192 -1.93182,-2.49665 -2.71441,-2.27515 -10.27595,2.90839 -8.08891,5.54507 -14.88351,7.28468 -17.26145,4.41943 -2.58495,-3.11467 -0.36098,-9.57588 5.09264,-14.79539 6.42983,-6.15382 7.79069,-9.62487 5.00931,-12.77687 -4.99521,-5.66079 -10.10023,-1.90105 -10.10023,7.43867 0,9.4227 -3.32455,16.64529 -7.66181,16.64529 -3.98718,0 -6.96492,-4.74443 -8.35487,-13.31185 -1.84934,-11.39887 -2.04673,-11.81918 -5.55081,-11.81918 -2.92933,0 -7.75206,3.13931 -7.75206,5.04613 0,0.36199 2.70148,3.61556 6.00329,7.23016 9.37068,10.25839 10.96506,13.32359 8.64974,16.6292 -2.57184,3.67182 -8.97485,2.701 -17.73451,-2.68886 -8.63973,-5.31607 -11.44469,-4.78493 -12.0241,2.27688 l -0.44581,5.4335 9.52091,-0.88259 c 10.741,-0.9957 16.98506,0.19699 19.17061,3.6618 2.04029,3.23455 -3.30264,8.3613 -12.39491,11.89339 -8.03533,3.12151 -10.54776,6.0639 -8.27442,9.69043 3.17208,5.06024 7.0553,3.74472 12.11478,-4.10409 6.48606,-10.0619 10.26004,-13.30781 13.26732,-11.41086 3.47432,2.19154 4.53137,9.79907 2.2572,16.2448 -2.10702,5.97189 -2.52834,11.15089 -1.02912,12.6501 1.81217,1.81218 8.93061,0.92927 9.75133,-1.20947 z m -93.86835,-43.38461 c 2.94472,-1.12999 2.78339,-4.56058 -0.58389,-12.41614 -3.78522,-8.83056 -3.71847,-15.57383 0.16637,-16.80683 4.4345,-1.40745 8.91824,1.70541 14.44402,10.02786 5.22983,7.87666 7.47884,8.92323 11.19331,5.20877 4.28731,-4.28732 2.11575,-7.98209 -6.25734,-10.64649 -10.13719,-3.22575 -16.02526,-7.91397 -14.79756,-11.78215 1.08748,-3.42631 5.87681,-4.62262 18.50632,-4.62262 9.9058,0 11.85065,-1.66562 9.07024,-7.76796 -2.0561,-4.51263 -4.17988,-4.29594 -12.27329,1.2522 -8.13684,5.57792 -14.88206,7.28643 -17.29387,4.38038 -2.59175,-3.12286 -0.53008,-8.30548 6.41442,-16.12463 7.038,-7.924404 7.3923,-11.020372 1.49834,-13.093163 -5.14593,-1.809731 -7.87862,1.59247 -7.87862,9.808901 0,3.214972 -0.95085,8.121102 -2.11299,10.902502 -4.28635,10.25867 -11.94952,4.41191 -14.04903,-10.718977 -1.18989,-8.575367 -3.61514,-11.222247 -8.31888,-9.079082 -5.07049,2.31027 -4.46069,7.177 1.48869,11.881069 16.3497,12.92741 9.59283,25.15776 -7.9391,14.37025 -8.42399,-5.18333 -11.99926,-5.37366 -13.17197,-0.7012 -1.73843,6.92639 -0.0787,8.10381 9.91441,7.03364 11.3055,-1.21072 17.02609,-0.0466 18.21751,3.70722 1.23316,3.88537 -3.79272,8.65748 -12.50293,11.87162 -7.93246,2.92714 -10.68664,6.17081 -8.36488,9.85156 3.04032,4.81991 7.89462,2.99209 12.40622,-4.67135 5.57266,-9.46583 9.66461,-12.54937 14.01996,-10.56495 2.74104,1.2489 3.21757,2.37599 2.87337,6.79606 -0.22696,2.91437 -1.24089,8.18629 -2.25318,11.71538 -2.74006,9.55246 -0.078,13.12845 7.58435,10.18813 z M 529.9096,129.96987 c 2.65555,-1.94179 2.65445,-2.05834 -0.0822,-8.72605 -2.07574,-5.05743 -2.56541,-8.51461 -1.94591,-13.73883 0.45527,-3.83946 0.92648,-5.61282 1.04712,-3.94079 0.12063,1.67202 1.79003,4.27555 3.70976,5.78561 1.91973,1.51006 3.49393,3.59756 3.49821,4.63888 0.004,1.04133 0.67255,4.28722 1.48504,7.21311 1.27855,4.60431 1.96273,5.26153 5.08702,4.88659 1.98538,-0.23826 4.30142,-1.57871 5.14677,-2.97878 1.3038,-2.15938 0.52913,-3.43028 -5.10618,-8.37701 -3.65373,-3.20729 -6.63804,-6.80526 -6.6318,-7.9955 0.006,-1.19023 -0.74257,-2.91799 -1.66404,-3.83946 -2.08339,-2.08339 -1.3738,-2.09396 4.60845,-0.0687 2.61023,0.88369 6.51938,3.71093 8.68699,6.28276 4.0994,4.86386 7.57673,5.86337 10.43943,3.00066 4.46329,-4.46329 -0.32379,-9.49395 -9.03424,-9.49395 -1.95087,0 -5.30902,-1.48261 -7.46255,-3.294685 l -3.91552,-3.294686 4.43277,-1.360454 c 3.1338,-0.96179 5.85864,-0.84571 9.29864,0.396132 7.02712,2.536795 10.85614,2.378436 11.4676,-0.474275 1.52386,-7.109447 -3.38423,-9.426413 -11.29858,-5.333741 -2.41119,1.246871 -5.95725,1.714862 -9.44707,1.24678 l -5.58689,-0.749366 3.84344,-3.843443 c 2.49102,-2.491016 5.89912,-4.119168 9.68545,-4.627022 7.14189,-0.957929 8.91055,-2.554714 7.78721,-7.030475 -1.72526,-6.87395 -6.89361,-5.320623 -13.49432,4.055661 -1.12893,1.603642 -3.86557,3.364757 -6.08142,3.913587 -3.89436,0.964574 -4.00026,0.855138 -3.17336,-3.279321 0.48088,-2.404398 3.00906,-6.168111 5.77402,-8.595769 5.81099,-5.102119 6.297,-9.045797 1.39028,-11.281444 -4.69856,-2.140809 -6.36359,-0.322546 -7.29827,7.969961 -0.45851,4.067845 -1.92706,7.828613 -3.8798,9.935656 l -3.14204,3.390321 -1.46831,-4.211986 c -1.12248,-3.219964 -0.96069,-5.701756 0.68697,-10.537349 2.66849,-7.831609 1.78409,-10.463816 -3.51577,-10.463816 -5.26027,0 -6.3528,2.955128 -3.51301,9.502181 1.23042,2.836676 2.32365,8.456128 2.42942,12.487673 0.2032,7.744535 -1.01423,9.660477 -2.46515,3.879569 -0.47626,-1.897568 -2.11505,-4.118639 -3.64178,-4.935714 -1.54346,-0.826042 -2.77584,-2.920908 -2.77584,-4.718549 0,-1.778128 -0.68974,-5.21154 -1.53276,-7.629807 -1.80227,-5.170041 -5.22508,-5.714495 -9.07116,-1.442922 -2.6456,2.938273 -2.62557,2.984508 3.78168,8.726055 3.54275,3.174671 6.83079,7.410777 7.30678,9.413569 0.79555,3.347424 0.55729,3.587609 -2.95095,2.974748 -2.099,-0.36668 -6.0998,-3.104811 -8.8907,-6.084734 -5.9351,-6.337114 -9.00684,-6.819303 -11.30532,-1.774676 -1.42502,3.127566 -1.28417,3.918206 0.99486,5.584675 1.4602,1.067719 4.80016,1.941308 7.42213,1.941308 3.04812,0 6.26312,1.258693 8.91538,3.490421 2.28147,1.919732 5.1994,3.568803 6.48431,3.664603 1.28489,0.09579 -1.04815,0.665908 -5.18455,1.26691 -5.38534,0.78247 -9.13364,0.523652 -13.20144,-0.91155 -7.18946,-2.536591 -9.29547,-1.707603 -9.29547,3.658966 0,5.460216 3.01375,6.662048 9.24937,3.688493 5.02816,-2.397762 9.88634,-2.898033 13.74896,-1.415803 3.97383,1.524904 -2.8297,7.236078 -9.87947,8.293258 -7.63192,1.14448 -9.92239,3.59835 -7.76938,8.32368 0.86432,1.89699 2.50196,3.44907 3.63918,3.44907 2.1207,0 9.16153,-6.74995 9.16153,-8.78303 0,-0.93578 8.38376,-5.17866 10.23282,-5.17866 0.30213,0 0.25598,1.72776 -0.10248,3.83947 -0.35851,2.1117 -3.09862,6.17029 -6.08914,9.01907 -5.69909,5.42897 -6.54556,7.81345 -3.76192,10.5971 4.5402,4.5402 9.49395,0.12558 9.49395,-8.46071 0,-3.22982 1.09596,-5.76461 3.4477,-7.97395 l 3.44771,-3.23895 1.48266,3.89969 c 1.13916,2.99624 0.95745,5.48094 -0.78437,10.72506 -1.79385,5.40079 -1.91301,7.25193 -0.57091,8.86907 2.12918,2.56548 4.26674,2.58648 7.70053,0.0756 z M 428.68114,92.07806 c 1.48125,-1.784796 1.30396,-3.433808 -1.01322,-9.424139 -2.62255,-6.779795 -3.35914,-16.674773 -1.38801,-18.645901 1.46489,-1.464884 9.86811,8.279429 12.10052,14.031669 2.58398,6.658106 5.96967,9.15677 9.4407,6.967301 4.56035,-2.876596 3.00467,-7.714118 -3.54052,-11.009465 -3.29109,-1.656991 -7.02282,-4.533947 -8.29273,-6.393237 -1.26992,-1.859289 -3.14542,-3.890346 -4.16779,-4.51346 -3.13249,-1.909209 -0.5337,-3.753655 5.28882,-3.753655 3.20097,0 8.36747,1.484729 12.2734,3.527083 8.28092,4.329972 11.68017,3.514431 11.07951,-2.658175 -0.45434,-4.669005 -0.52504,-4.687328 -14.3859,-3.728421 -7.7249,0.534417 -13.94133,-0.86386 -14.4131,-3.241978 -0.26391,-1.330319 0.46102,-2.275522 1.74521,-2.275522 1.20814,0 3.3671,-1.170484 4.7977,-2.601076 1.43059,-1.430592 5.03161,-3.057047 8.00227,-3.614345 9.74516,-1.828205 13.11019,-5.812963 8.66378,-10.259371 -3.06305,-3.063061 -6.68594,-1.736507 -10.55433,3.864576 -2.10442,3.046989 -5.08276,5.948543 -6.61854,6.4479 -1.53579,0.499356 -3.90666,1.886831 -5.26863,3.083278 -1.89837,1.667669 -2.85959,1.79205 -4.11869,0.532944 -1.25911,-1.259104 -1.2514,-2.033419 0.0329,-3.317815 0.92147,-0.921471 1.70093,-3.277506 1.73214,-5.235633 0.0313,-1.958126 1.91603,-5.735464 4.1885,-8.394082 5.29035,-6.18931 5.45327,-10.837213 0.42412,-12.099451 -5.15527,-1.29389 -7.58705,2.322636 -6.58782,9.797381 0.512,3.830068 0.0327,7.133319 -1.44086,9.928259 -1.21449,2.303679 -2.21202,4.973852 -2.21676,5.933718 -0.014,2.731787 -4.19167,2.044121 -4.2415,-0.698085 -0.0244,-1.343812 -0.96685,-3.66286 -2.09425,-5.15344 -1.2081,-1.597286 -2.04982,-5.771737 -2.04982,-10.166041 0,-8.143263 -1.49955,-9.742027 -7.68205,-8.190318 -4.93021,1.237406 -4.44406,5.339661 1.39929,11.807559 2.68763,2.97488 4.88659,6.292412 4.88659,7.372295 0,1.079882 0.94916,3.318526 2.10922,4.974764 5.59325,7.985477 -9.37407,2.929729 -16.9989,-5.741982 -2.43011,-2.763783 -5.05541,-5.02506 -5.83398,-5.02506 -2.62801,0 -5.95513,4.515693 -5.52881,7.503913 0.33961,2.380364 1.80427,3.198256 7.40419,4.134619 3.83947,0.641998 7.92326,1.764291 9.0751,2.493986 1.15184,0.729695 3.82774,2.072087 5.94644,2.983091 7.91089,3.401546 0.82388,6.752054 -15.02154,7.101693 l -9.77318,0.215651 v 4.188506 c 0,5.59277 4.71108,6.293751 11.62994,1.730466 5.36264,-3.536896 16.43772,-5.850307 17.76056,-3.709903 0.42328,0.684862 -0.51902,2.628359 -2.09397,4.31888 -1.57497,1.690522 -2.86357,3.754748 -2.86357,4.587171 0,0.832423 -2.18368,2.689479 -4.85261,4.126794 -7.51674,4.048031 -9.65216,6.963687 -7.73029,10.55474 1.13719,2.124856 2.66933,2.86673 5.28582,2.559439 3.08319,-0.362101 4.03221,-1.571944 5.81532,-7.413561 1.17197,-3.839465 3.55551,-8.125927 5.29673,-9.525473 1.74123,-1.399547 3.16587,-3.421725 3.16587,-4.49373 0,-1.09809 0.85439,-1.621244 1.95683,-1.198198 2.85508,1.095602 3.43311,11.396085 1.06005,18.890391 -1.12596,3.555932 -1.65684,7.482656 -1.1797,8.726055 1.10291,2.87415 7.03394,2.935671 9.3895,0.09739 z"
       id="path2806" /><path
       style="fill:#9a9bff;fill-opacity:1;stroke-width:1.39617;paint-order:markers stroke fill"
       d="m 561.95793,743.33793 c -13.28748,-1.60445 -35.2919,-6.79195 -48.86591,-11.52003 -7.81121,-2.72078 -9.21262,-3.61899 -6.98084,-4.47423 10.67313,-4.09005 38.40329,-16.94684 48.8659,-22.65615 81.58935,-44.52226 146.20338,-121.07071 175.27718,-207.65144 l 3.28184,-9.77318 2.49865,10.47126 c 7.71679,32.33926 9.66721,75.40662 4.77382,105.41075 -12.1028,74.20888 -58.29024,125.60802 -124.24634,138.26604 -14.38422,2.76056 -40.16596,3.6704 -54.6043,1.92698 z"
       id="path6473" /><path
       style="fill:#9a9bff;fill-opacity:1;stroke-width:1.39617;paint-order:markers stroke fill"
       d="M 480.0806,717.87426 C 385.37145,670.69702 306.85028,569.90405 281.39235,462.82995 c -3.69628,-15.54627 -7.74327,-40.39984 -7.74327,-47.55329 0,-3.80991 0.40944,-4.24096 3.65573,-3.84865 2.99272,0.36165 4.14989,1.77115 6.38034,7.77166 1.93011,5.19252 3.47226,7.32989 5.28865,7.32989 1.90716,0 2.40935,-0.80481 1.96021,-3.14138 l -0.60385,-3.14138 1.646,3.14138 c 2.23117,4.25819 6.75722,4.25819 5.93869,0 l -0.60385,-3.14138 1.646,3.14138 c 2.23117,4.25819 6.75722,4.25819 5.9387,0 l -0.60385,-3.14138 1.64599,3.14138 c 0.9053,1.72776 2.80654,3.14138 4.22498,3.14138 3.18507,0 3.26344,0.76972 -0.98669,-9.68992 -1.96112,-4.82634 -3.37474,-8.8821 -3.14138,-9.0128 0.23336,-0.13068 1.45938,-1.02573 2.72448,-1.98898 1.8932,-1.44149 3.30993,-1.22507 8.00701,1.2232 7.08691,3.6939 14.45052,4.74069 24.50839,3.48404 l 7.76756,-0.97049 0.0981,-19.09687 c 0.0615,-11.96937 0.54597,-18.05466 1.29804,-16.30451 0.65995,1.53578 1.24407,10.17458 1.29804,19.19732 0.0805,13.46309 0.46642,16.40498 2.15186,16.40498 1.68237,0 2.13215,-3.34505 2.48745,-18.49923 l 0.43373,-18.49924 0.30488,18.49924 c 0.25087,15.22166 0.66914,18.49923 2.3608,18.49923 1.6942,0 2.13138,-3.50043 2.48482,-19.8954 l 0.42889,-19.89541 0.30753,19.89541 c 0.18746,12.1278 0.85261,19.8954 1.70369,19.8954 0.76789,0 1.39617,2.51311 1.39617,5.58468 0,4.65389 0.46539,5.58467 2.79233,5.58467 2.71788,0 2.79234,-0.93078 2.79234,-34.90422 0,-33.97343 -0.0745,-34.90422 -2.79234,-34.90422 -2.396,0 -2.79233,0.93079 -2.79233,6.55781 v 6.55782 l -4.23384,-5.75713 c -8.50512,-11.56517 -27.42014,-16.22086 -41.42484,-10.1962 -3.8871,1.67218 -8.78725,4.83541 -10.88922,7.02941 -3.19513,3.335 -4.38155,3.77623 -7.23587,2.69102 -1.87776,-0.71394 -8.74203,-1.29805 -15.25392,-1.29805 h -11.83981 l 0.88345,-5.23563 c 4.98631,-29.55035 20.52781,-67.30542 29.35783,-71.31917 2.25026,-1.02287 5.66207,-3.98989 7.5818,-6.59337 2.1129,-2.86543 4.71245,-4.74876 6.58681,-4.77203 4.78054,-0.0593 2.12741,5.07324 -4.55625,8.81426 -6.44915,3.60975 -7.94242,8.27694 -3.4222,10.69609 3.94424,2.1109 6.50842,-0.0606 8.40989,-7.12216 0.79948,-2.96906 2.68882,-6.05936 4.19852,-6.86733 2.37657,-1.2719 2.74492,-1.01699 2.74492,1.89956 0,1.85272 -0.98384,4.18511 -2.18631,5.18307 -1.20247,0.99796 -3.08264,3.54778 -4.17815,5.66626 -1.75102,3.3861 -1.72783,4.11579 0.19179,6.0354 5.14995,5.14995 9.72903,0.80015 8.51118,-8.08502 -0.51821,-3.78075 -0.22253,-6.64672 0.79021,-7.65947 4.25425,-4.25424 6.03698,1.10984 3.00628,9.04562 -2.53031,6.62551 -1.23726,10.27866 3.63818,10.27866 4.97855,0 6.00701,-3.52914 3.00571,-10.31408 -1.53069,-3.46039 -2.43919,-7.60665 -2.01888,-9.21393 0.72276,-2.76381 0.90604,-2.79396 3.37911,-0.55586 1.86188,1.68498 2.61491,4.29071 2.61491,9.04851 0,7.38613 1.28007,8.92529 6.36211,7.64978 4.65749,-1.16895 4.37465,-5.19297 -0.77744,-11.06088 -4.09901,-4.66851 -5.51525,-9.28841 -2.84738,-9.28841 1.85384,0 3.97288,2.62546 6.76117,8.37702 2.80904,5.79434 7.68157,7.21386 9.98543,2.90906 1.22928,-2.29694 0.9785,-3.3892 -1.3017,-5.6694 -1.55339,-1.55339 -3.76675,-2.82434 -4.91859,-2.82434 -2.35545,0 -7.67893,-4.83952 -7.67893,-6.98084 0,-3.02892 5.28321,-1.14206 9.77318,3.49042 5.45485,5.62798 9.34923,6.24285 11.05355,1.74521 1.71334,-4.52141 -0.67897,-6.6318 -7.51769,-6.6318 -4.02909,0 -6.65918,-0.84395 -8.30802,-2.66589 -2.29604,-2.5371 -2.27614,-2.70921 0.41192,-3.56236 1.56051,-0.49529 4.69912,0.0729 7.01347,1.26972 2.30392,1.19141 5.79084,2.16619 7.7487,2.16619 3.0327,0 3.55976,-0.62664 3.55976,-4.23232 0,-5.46111 -2.83128,-6.49756 -10.02751,-3.6708 -4.22522,1.65971 -6.3832,1.85322 -8.43299,0.7562 -2.71755,-1.45438 -2.71473,-1.50229 0.20849,-3.54979 1.92504,-1.34835 4.40757,-1.75827 7.08581,-1.17003 5.96662,1.31049 9.77003,-0.29042 9.77003,-4.11233 0,-7.10127 -5.74227,-7.54318 -11.7504,-0.90427 -2.64125,2.91854 -9.19213,4.07677 -9.19213,1.62521 0,-1.96455 4.13369,-5.6844 6.31679,-5.6844 1.06086,0 3.52909,-0.72912 5.48495,-1.62028 4.33966,-1.97727 4.79182,-7.39333 0.79578,-9.53195 -3.15873,-1.69049 -6.03681,0.63189 -10.08929,8.14123 -2.56004,4.74383 -6.69717,5.9572 -6.69605,1.96387 8.2e-4,-2.92958 11.16503,-12.83208 18.89529,-16.75988 7.65694,-3.89054 25.8188,-9.42538 38.34694,-11.68626 17.48254,-3.15496 47.86702,-2.25616 68.49375,2.0261 52.83516,10.96897 105.12574,40.02094 149.83413,83.24589 15.06147,14.56173 34.89524,36.8512 43.54272,48.93394 l 5.49572,7.67893 -0.40381,30.70948 c -0.26279,19.98472 -0.86482,29.98028 -1.72384,28.62146 -0.72601,-1.14842 -1.32964,-14.49648 -1.3414,-29.66236 -0.0183,-23.57023 -0.32548,-27.57433 -2.11562,-27.57433 -1.77791,0 -2.09426,3.52007 -2.09426,23.30363 0,20.5408 -0.23672,22.98232 -1.99667,20.59349 -1.09819,-1.49058 -1.41232,-2.91957 -0.69809,-3.17553 0.71911,-0.25772 1.29859,-9.44736 1.29859,-20.59349 0,-19.09245 -0.14146,-20.1281 -2.74936,-20.1281 -2.56392,0 -2.77581,1.15252 -3.14138,17.08737 l -0.39201,17.08738 -9.77319,-17.07195 c -6.61703,-11.55876 -10.56221,-17.07694 -12.21647,-17.08737 -1.34382,-0.008 -2.4433,0.32022 -2.4433,0.73047 0,0.41025 4.15531,7.98276 9.23402,16.8278 5.07871,8.84505 8.91643,16.3995 8.52825,16.78766 -0.38816,0.38816 -5.21884,-7.18434 -10.73483,-16.8278 -7.61352,-13.3105 -10.70537,-17.53356 -12.83692,-17.53356 -3.219,0 -3.18652,0.0641 21.93325,43.28123 10.86586,18.6941 14.9288,24.54109 17.2978,24.89334 2.77662,0.41287 2.92922,0.1483 1.47825,-2.56286 -0.8899,-1.6628 -1.27649,-3.36478 -0.85907,-3.7822 0.41741,-0.41741 1.51157,0.89295 2.43147,2.91191 0.92362,2.02712 2.82255,3.67085 4.24079,3.67085 2.42083,0 2.56945,-1.90302 2.5896,-33.15901 0.0141,-21.92464 0.47992,-32.44948 1.37479,-31.06476 0.74567,1.15384 1.36301,13.53593 1.3748,27.57434 0.0181,21.70868 0.33135,25.48008 2.11562,25.48008 1.77183,0 2.09426,-3.34445 2.09426,-21.72302 0,-14.12648 0.48824,-21.42126 1.39617,-20.86013 0.82998,0.51295 1.39616,9.32229 1.39616,21.72302 0,17.41117 0.33894,20.86013 2.04994,20.86013 1.6611,0 2.13384,-3.11192 2.49212,-16.40499 l 0.44217,-16.40498 0.30023,16.40498 c 0.27917,15.2545 0.49193,16.40499 3.03383,16.40499 2.43795,0 2.78507,-1.17029 3.20945,-10.82031 l 0.47584,-10.82031 0.28098,10.82031 0.28096,10.82031 5.23564,0.0154 5.23563,0.0154 7.15647,16.38967 c 3.93605,9.01432 9.77751,24.46533 12.981,34.33559 l 5.82454,17.94593 -3.76554,11.37361 c -25.11811,75.86819 -77.99193,144.57688 -146.76136,190.71404 -26.08356,17.49937 -72.58782,40.59043 -81.64001,40.53725 -1.77123,-0.01 -11.16452,-3.97611 -20.87398,-8.81266 z m 1.13101,-289.65848 c 8.18254,-4.24758 12.07484,-10.28186 12.7362,-19.74511 0.44831,-6.41458 -0.0265,-8.60038 -2.72189,-12.52845 -6.53414,-9.52264 -13.96258,-12.60013 -30.56004,-12.66058 -5.20719,-0.019 -9.86632,-0.75473 -10.8203,-1.70872 -6.54759,-6.54758 10.19165,-10.67184 24.1205,-5.94287 6.74284,2.28925 12.52213,1.17346 8.84749,-1.70816 -3.69316,-2.89616 -11.55689,-4.63525 -20.95938,-4.63525 -11.05189,0 -17.41613,2.58204 -18.66909,7.57428 -1.9672,7.83791 5.19735,11.92224 21.04101,11.99496 15.29545,0.0702 24.64162,6.84969 24.9363,18.08824 0.37287,14.22024 -16.71977,23.21442 -37.12731,19.53647 -4.81333,-0.86748 -11.68182,-3.16663 -15.2633,-5.10922 -3.58148,-1.94257 -7.22458,-3.09144 -8.09577,-2.55302 -3.3294,2.05769 4.43751,7.60076 16.00372,11.42151 8.68692,2.86962 29.30529,1.72724 36.53186,-2.02408 z m 104.77825,-2.60567 c 5.64616,-2.34997 14.04493,-9.66347 17.38259,-15.13645 l 2.55435,-4.18855 0.006,10.12222 c 0.004,9.18971 0.26246,10.12223 2.79755,10.12223 2.7044,0 2.79234,-0.93079 2.79234,-29.55225 0,-16.25372 0.38378,-29.16846 0.85284,-28.69939 0.46905,0.46906 0.75256,13.76756 0.63002,29.55223 -0.21829,28.06879 -0.16034,28.69941 2.63722,28.69941 2.76867,0 2.8604,-0.7462 2.8604,-23.26949 0,-12.7982 0.37095,-22.89852 0.82433,-22.44514 0.45338,0.45338 0.74279,10.92464 0.64314,23.26947 -0.15473,19.16864 0.12664,22.44516 1.92748,22.44516 1.75331,0 2.17433,-3.07417 2.49824,-18.24172 l 0.38957,-18.24171 10.47127,18.22134 c 7.39658,12.87101 11.22285,18.22732 13.0309,18.24172 1.40781,0.0112 2.35023,-0.5902 2.09426,-1.33644 -0.25596,-0.74626 -8.94712,-16.13007 -19.31367,-34.18627 -15.76827,-27.46476 -19.36161,-32.83268 -21.98966,-32.84931 -2.92336,-0.0184 -3.1423,0.58571 -3.15458,8.70617 l -0.0126,8.72606 -3.47833,-5.80288 c -1.91309,-3.19159 -6.36501,-7.71495 -9.89318,-10.05192 -27.10514,-17.9537 -61.71274,2.5256 -58.8149,34.80414 0.876,9.7577 4.75027,17.45567 12.14945,24.14039 10.87986,9.82929 26.63946,12.55999 40.11599,6.95098 z m 73.0018,0.4075 c 0,-0.28158 -8.70364,-15.51727 -19.34139,-33.85709 -15.518,-26.75349 -19.98239,-33.4397 -22.58397,-33.82343 -3.08066,-0.45441 -3.13885,-0.31498 -1.16547,2.79233 1.14241,1.79884 10.13192,17.24977 19.97671,34.33538 13.25775,23.00881 18.57574,31.06476 20.50687,31.06476 1.43398,0 2.60725,-0.23038 2.60725,-0.51195 z m -186.45404,-2.43208 c 12.00468,-3.33288 17.64059,-13.89575 12.60739,-23.62888 -2.99047,-5.78293 -8.70514,-8.24179 -21.22622,-9.13301 -5.97411,-0.42523 -12.29163,-1.06305 -14.03892,-1.4174 -5.04569,-1.02325 -8.69054,-5.61549 -8.69054,-10.94944 0,-3.81115 0.92841,-5.45371 4.53755,-8.02797 6.43042,-4.58655 25.3546,-4.69466 34.35565,-0.19626 5.69993,2.84863 9.97271,3.02153 9.97271,0.40355 0,-0.62925 -3.29845,-2.7154 -7.32989,-4.63584 -25.40012,-12.09985 -55.10351,0.93666 -45.3549,19.90579 3.49921,6.80888 8.17797,8.78964 23.22723,9.83329 12.1872,0.84517 14.57403,1.42952 17.65268,4.32177 2.72023,2.55552 3.46208,4.47472 3.14489,8.13594 -0.65039,7.5072 -5.88258,10.53243 -19.26726,11.14026 -9.42841,0.42817 -12.07448,-8e-5 -18.67659,-3.02262 -6.2521,-2.8623 -7.97718,-3.17771 -9.21601,-1.68499 -1.1722,1.41239 -0.4359,2.50903 3.18861,4.74909 8.64597,5.3435 24.27487,7.21589 35.11362,4.20672 z m -94.50054,-37.17738 c -0.34178,-31.61007 -0.58048,-34.57654 -2.81672,-35.00659 -2.27448,-0.4374 -2.4433,1.9489 -2.4433,34.53674 0,34.17684 0.0668,35.00658 2.81673,35.00658 2.75901,0 2.80907,-0.70769 2.44329,-34.53673 z m 5.90933,-0.36749 c 0,-30.0952 -0.28854,-34.90422 -2.09425,-34.90422 -1.80571,0 -2.09426,4.80902 -2.09426,34.90422 0,30.0952 0.28855,34.90422 2.09426,34.90422 1.80571,0 2.09425,-4.80902 2.09425,-34.90422 z m 6.98084,0 c 0,-30.0952 -0.28854,-34.90422 -2.09425,-34.90422 -1.80571,0 -2.09425,4.80902 -2.09425,34.90422 0,30.0952 0.28854,34.90422 2.09425,34.90422 1.80571,0 2.09425,-4.80902 2.09425,-34.90422 z m 78.88354,30.75132 c 5.62501,-1.30331 10.47127,-5.62082 10.47127,-9.32884 0,-1.10167 -1.43869,-3.44172 -3.19708,-5.20011 -2.69996,-2.69996 -5.23081,-3.34143 -16.27676,-4.1255 -14.16314,-1.00532 -19.39344,-3.09364 -24.3278,-9.71345 -3.79461,-5.09073 -3.82368,-13.571 -0.0642,-18.72852 1.56329,-2.14464 5.6328,-5.35592 9.04336,-7.13618 5.43525,-2.83711 7.76001,-3.17554 18.82511,-2.74051 11.0945,0.43618 13.57474,1.03284 20.47031,4.92447 6.58124,3.71421 8.10729,4.11361 9.46533,2.47728 1.29922,-1.56547 0.56506,-2.64667 -3.71629,-5.47299 -12.5023,-8.25334 -35.56334,-9.94932 -48.71508,-3.58268 -8.43236,4.08204 -12.19147,9.77513 -12.89726,19.53259 -0.70859,9.79607 1.87855,15.32913 9.53746,20.39756 4.64722,3.07538 7.73965,3.81812 19.20848,4.61347 14.43982,1.00139 17.05976,1.78304 17.05976,5.08967 0,4.72654 -16.77117,6.38153 -27.16208,2.68036 -4.1303,-1.4712 -5.99932,-1.57012 -7.41811,-0.39264 -2.36403,1.96198 0.22018,3.64795 9.44915,6.16477 7.68031,2.09447 12.93447,2.23495 20.24445,0.54125 z m 32.80997,-31.4494 c 0,-28.23363 0.2921,-32.80997 2.09425,-32.80997 1.80215,0 2.09425,4.57634 2.09425,32.80997 0,31.87918 0.0792,32.80997 2.79234,32.80997 2.71312,0 2.79234,-0.93079 2.79234,-32.80997 0,-20.94253 0.50499,-32.80997 1.39617,-32.80997 0.89117,0 1.39616,11.86744 1.39616,32.80997 0,31.87918 0.0792,32.80997 2.79234,32.80997 2.71312,0 2.79234,-0.93079 2.79234,-32.80997 0,-20.94253 0.50499,-32.80997 1.39617,-32.80997 0.89117,0 1.39617,11.86744 1.39617,32.80997 0,31.87918 0.0792,32.80997 2.79233,32.80997 2.71297,0 2.79234,-0.93079 2.79234,-32.74335 v -32.74335 l 8.72606,-0.41565 c 7.83742,-0.37334 8.77148,-0.73558 9.1722,-3.55705 l 0.44614,-3.14138 h -33.60515 -33.60515 v 3.49042 c 0,3.33529 0.37231,3.49042 8.37701,3.49042 h 8.37701 v 32.80997 c 0,31.87918 0.0792,32.80997 2.79234,32.80997 2.71312,0 2.79234,-0.93079 2.79234,-32.80997 z m -102.22018,-4.18965 c -0.30987,-25.53096 -0.011,-32.81085 1.34698,-32.80997 1.34663,8.9e-4 1.74521,7.49452 1.74521,32.81111 0,31.87918 0.0792,32.80997 2.79234,32.80997 2.71312,0 2.79234,-0.93079 2.79234,-32.80997 0,-20.94253 0.505,-32.80996 1.39617,-32.80996 0.89117,0 1.39617,11.86743 1.39617,32.80996 0,31.87918 0.0792,32.80997 2.79233,32.80997 2.71312,0 2.79234,-0.93079 2.79234,-32.80997 0,-20.94253 0.50499,-32.80996 1.39617,-32.80996 0.89117,0 1.39617,11.86743 1.39617,32.80996 0,31.87918 0.0792,32.80997 2.79234,32.80997 2.71311,0 2.79233,-0.93079 2.79233,-32.80997 v -32.80996 h 9.0751 c 8.14431,0 9.0751,-0.2864 9.0751,-2.79234 0,-2.71477 -0.93079,-2.79234 -33.50805,-2.79234 -32.57727,0 -33.50805,0.0776 -33.50805,2.79234 0,2.49461 0.9304,2.79222 8.72605,2.79119 l 8.72606,-0.001 -0.39824,32.81111 -0.39823,32.81111 h 3.5888 3.58881 z m 146.89758,-41.18584 c 0,-2.71477 -0.93079,-2.79233 -33.50805,-2.79233 -32.57727,0 -33.50805,0.0776 -33.50805,2.79233 0,2.71478 0.93078,2.79234 33.50805,2.79234 32.57726,0 33.50805,-0.0776 33.50805,-2.79234 z m -103.31649,-4.1885 c 0,-2.71477 -0.93079,-2.79234 -33.50805,-2.79234 -32.57727,0 -33.50805,0.0776 -33.50805,2.79234 0,2.71477 0.93078,2.79234 33.50805,2.79234 32.57726,0 33.50805,-0.0776 33.50805,-2.79234 z m 103.31649,-4.18851 c 0,-2.71477 -0.93079,-2.79234 -33.50805,-2.79234 -32.57727,0 -33.50805,0.0776 -33.50805,2.79234 0,2.71477 0.93078,2.79234 33.50805,2.79234 32.57726,0 33.50805,-0.0776 33.50805,-2.79234 z m -103.31649,-4.1885 c 0,-2.71478 -0.93079,-2.79234 -33.50805,-2.79234 -32.57727,0 -33.50805,0.0776 -33.50805,2.79234 0,2.71477 0.93078,2.79233 33.50805,2.79233 32.57726,0 33.50805,-0.0776 33.50805,-2.79233 z"
       id="path6475" /><path
       style="fill:#9a9bff;fill-opacity:1;stroke-width:0.98724;paint-order:markers stroke fill"
       d="m 344.38997,407.47374 c -0.57048,-1.95642 -0.97332,-2.10831 -3.2728,-1.23405 -3.30816,1.25776 -10.88087,1.28511 -15.17074,0.0548 -4.58949,-1.31625 -12.1633,-5.89926 -11.50616,-6.96254 0.30008,-0.48554 2.14881,0.20516 4.10828,1.53489 5.00734,3.39808 10.66492,4.69646 17.94469,4.11821 6.63702,-0.52719 8.68082,-1.60072 7.73584,-4.06331 -0.47788,-1.24532 -1.12561,-1.32125 -3.67872,-0.43123 -4.80789,1.67604 -14.07417,0.42563 -19.22789,-2.59465 -2.45634,-1.43952 -4.22056,-3.01457 -3.92048,-3.50011 0.30008,-0.48554 2.13255,0.19412 4.07215,1.51037 4.38448,2.97539 8.84929,3.85226 15.90622,3.12392 5.95637,-0.61475 7.75139,-1.67941 6.83923,-4.05647 -0.46691,-1.21674 -1.1234,-1.33318 -3.15708,-0.55998 -3.37275,1.28232 -10.48494,1.24474 -13.97486,-0.0738 -4.19258,-1.58407 -8.20922,-5.87123 -8.20747,-8.76025 10e-4,-2.39521 0.0936,-2.35031 1.72767,0.84141 0.94938,1.85439 3.27411,4.18674 5.16608,5.18301 6.1874,3.25815 19.36023,1.787 18.50602,-2.06676 -0.18916,-0.85342 -0.98394,-1.38322 -1.76616,-1.17733 -4.39499,1.15678 -11.13449,1.20794 -13.79786,0.10473 -1.66084,-0.68794 -3.66515,-2.49894 -4.45401,-4.02444 -5.55059,-10.73365 6.62738,-20.81895 16.96213,-14.04736 3.78404,2.47939 4.37709,5.82143 4.08883,23.04188 -0.1498,8.94857 -0.56511,15.26617 -0.92291,14.03911 z"
       id="path6477" /><path
       style="fill:#9a9bff;fill-opacity:1;stroke-width:0.98724;paint-order:markers stroke fill"
       d="m 567.67496,403.15797 c -4.24813,-0.86883 -8.57013,-5.51605 -9.4394,-10.1497 -1.3034,-6.94768 5.76325,-15.38882 12.88301,-15.38882 4.23011,0 9.46593,3.64001 11.65512,8.1028 2.44998,4.9944 1.4077,10.18628 -2.858,14.23644 -3.56491,3.38479 -6.97539,4.27616 -12.24073,3.19928 z"
       id="path6479" /><text
       xml:space="preserve"
       style="font-size:154.062px;font-family:Monoton;-inkscape-font-specification:Monoton;text-align:center;text-anchor:middle;fill:#9a9bff;fill-opacity:1;stroke-width:4.62185;paint-order:markers stroke fill"
       x="381.17422"
       y="603.08911"
       id="text6535"><tspan
         id="tspan6533"
         x="381.17426"
         y="603.08911"
         style="fill:#ffff00;stroke-width:4.62185">Solar</tspan></text></g></svg>
