<?xml version="1.0" encoding="UTF-8" standalone="no"?>
<!-- Created with Inkscape (http://www.inkscape.org/) -->

<svg
   width="92.989815mm"
   height="164.01604mm"
   viewBox="0 0 92.989815 164.01604"
   version="1.1"
   id="svg5"
   xml:space="preserve"
   inkscape:version="1.2.2 (732a01da63, 2022-12-09)"
   sodipodi:docname="drawing_AGI+logo.svg"
   xmlns:inkscape="http://www.inkscape.org/namespaces/inkscape"
   xmlns:sodipodi="http://sodipodi.sourceforge.net/DTD/sodipodi-0.dtd"
   xmlns="http://www.w3.org/2000/svg"
   xmlns:svg="http://www.w3.org/2000/svg"><sodipodi:namedview
     id="namedview7"
     pagecolor="#ffffff"
     bordercolor="#000000"
     borderopacity="0.25"
     inkscape:showpageshadow="2"
     inkscape:pageopacity="0.0"
     inkscape:pagecheckerboard="0"
     inkscape:deskcolor="#d1d1d1"
     inkscape:document-units="mm"
     showgrid="false"
     inkscape:lockguides="false"
     inkscape:zoom="0.50646226"
     inkscape:cx="-43.438577"
     inkscape:cy="455.11782"
     inkscape:window-width="1920"
     inkscape:window-height="991"
     inkscape:window-x="-9"
     inkscape:window-y="-9"
     inkscape:window-maximized="1"
     inkscape:current-layer="layer1" /><defs
     id="defs2" /><g
     inkscape:label="Layer 1"
     inkscape:groupmode="layer"
     id="layer1"
     transform="translate(-57.335016,-64.992048)"><path
       style="fill:#cccccc;fill-opacity:0.486275;stroke-width:0.264583"
       d="m 102.83376,65.008941 c -1.87197,0.115443 -3.843982,0.819724 -5.224149,2.08966 -1.146166,1.054625 -2.089663,2.621776 -2.089663,4.179316 0,37.621383 0.522414,75.145633 0.522414,110.751923 0,1.55821 0.758771,3.23259 1.933926,4.25583 1.54776,1.34768 3.851292,1.82417 5.902292,1.75194 1.68884,-0.0595 3.49815,-0.64196 4.74655,-1.78091 1.15627,-1.05489 2.04485,-2.66169 2.04485,-4.22686 0,-35.82964 0,-110.873245 0,-110.873245 0,-1.87667 -1.37507,-3.711473 -2.87329,-4.841618 -1.36566,-1.030158 -3.25554,-1.41133 -4.96293,-1.306036 z"
       id="path340"
       sodipodi:nodetypes="sssssssssss"
       inkscape:export-filename="AGI+Logo.png"
       inkscape:export-xdpi="96"
       inkscape:export-ydpi="96" /><path
       style="fill:#cccccc;fill-opacity:0.486275;stroke-width:0.264583"
       d="m 103.27642,197.00959 c -2.70686,0.002 -7.094642,-0.90664 -9.259404,-2.53172 -2.772195,-2.08107 -3.897293,-5.14927 -3.897293,-8.61567 0,-31.73422 0.738804,-67.50243 0.738804,-99.184696 0,-2.05767 -1.62603,-3.594695 -3.324627,-4.756063 -1.173348,-0.802245 -3.206262,-1.50835 -4.617535,-1.339085 -1.645951,0.197412 -3.229837,1.075841 -4.432838,2.216417 -1.028573,0.975198 -2.216417,2.461349 -2.216417,3.878731 V 185.6775 c 0,3.00231 0.693138,6.80067 1.982258,9.51213 1.232303,2.59195 2.602489,4.73284 4.47573,6.90718 2.676959,3.10724 5.907547,5.17048 9.491641,6.57139 3.511808,1.37265 7.43098,1.58971 11.201491,1.5746 3.39829,-0.0136 7.19208,-0.50055 10.084,-1.50002 2.89192,-0.99947 4.76375,-2.17608 7.09324,-4.04102 2.32949,-1.86494 4.77275,-4.15012 6.5569,-7.20336 1.78415,-3.05324 3.60168,-6.63145 3.60168,-10.89739 V 80.397653 c 0,-1.690576 -1.29265,-3.29398 -2.56273,-4.409748 -1.38607,-1.217661 -3.35004,-2.207941 -5.19473,-2.239504 -1.68134,-0.02877 -3.32993,0.696179 -4.61754,1.777749 -1.3598,1.142212 -2.95522,2.910935 -2.95522,4.686803 V 185.8622 c 0,3.06417 -1.24332,6.43367 -3.50933,8.49627 -2.22737,2.02743 -5.73658,2.64902 -8.63808,2.65112 z"
       id="path342"
       sodipodi:nodetypes="sssssssssssasczzsssssssas" /><path
       style="fill:#cccccc;fill-opacity:0.486275;stroke-width:0.264583"
       d="m 64.583518,105.39717 c -1.59198,0.0307 -3.332852,0.34261 -4.598182,1.29415 -1.28844,0.96891 -2.65032,2.5791 -2.65032,4.1912 v 76.66436 c 0,4.07024 0.775025,7.90937 2.06972,11.62695 1.331416,3.82302 3.730445,7.81302 5.759357,10.6922 2.028912,2.87918 3.674776,4.4849 6.018643,6.67631 3.03565,2.8382 6.399969,5.27785 10.039181,7.28451 3.404399,1.87718 7.434343,3.09211 11.223898,3.95987 4.547806,1.04139 5.951731,1.00647 10.613205,1.20056 4.00657,0.16682 9.77082,-0.6896 14.09248,-1.86749 3.18249,-0.86741 6.25678,-2.18916 9.14226,-3.78751 3.4132,-1.89068 6.61487,-3.92534 9.53407,-6.51434 2.46698,-2.18794 5.10306,-4.60545 6.984,-7.3138 1.89922,-2.73466 3.93123,-5.93118 5.16348,-9.02422 1.44303,-3.62209 2.34952,-7.46684 2.34952,-11.3658 v -55.80221 c 0,-1.76544 -0.91638,-3.62892 -2.21461,-4.82533 -1.29901,-1.19712 -3.33631,-1.95591 -5.10237,-1.91627 -1.63148,0.0366 -3.1863,0.38929 -4.47901,1.38526 -1.06468,0.82029 -2.53965,2.44235 -2.53965,3.78638 v 54.8907 c 0,2.66583 -0.66932,5.33738 -1.598,7.83622 -0.86911,2.33852 -1.89441,4.77217 -3.2651,6.8567 -1.53565,2.33539 -3.41062,4.46138 -5.48535,6.33427 -2.16151,1.95122 -4.70317,3.6077 -7.31381,4.89764 -2.1745,1.07444 -4.72493,2.05595 -7.1832,2.61208 -2.45828,0.55613 -4.95213,0.77769 -7.44441,0.71832 -3.18828,-0.076 -6.541527,-0.64356 -9.468767,-1.37134 -2.92724,-0.72778 -5.546665,-1.49193 -8.032126,-2.87328 -2.601054,-1.44559 -5.084224,-3.44305 -6.991937,-5.55066 -1.450483,-1.60247 -2.876473,-3.46086 -3.918111,-5.35475 0,0 -1.712373,-3.60176 -2.346225,-5.48536 -1.046455,-3.10972 -1.110133,-5.33032 -1.110133,-8.09742 v -76.14195 c 0,-1.97651 -1.387169,-3.52378 -3.041456,-4.60542 -1.065127,-0.69642 -2.765079,-1.03838 -4.207047,-1.01053 z"
       id="path354"
       sodipodi:nodetypes="asssazsssssssssssssssssssszazassssssa"
       inkscape:export-filename="AGI+Logo.svg"
       inkscape:export-xdpi="96"
       inkscape:export-ydpi="96" /></g></svg>
